M48
; DRILL file {KiCad 9.0.7} date 2026-05-13T18:58:51-0700
; FORMAT={-:-/ absolute / metric / decimal}
; #@! TF.CreationDate,2026-05-13T18:58:51-07:00
; #@! TF.GenerationSoftware,Kicad,Pcbnew,9.0.7
; #@! TF.FileFunction,Plated,1,4,PTH
FMAT,2
METRIC
; #@! TA.AperFunction,Plated,PTH,ComponentDrill
T1C0.800
; #@! TA.AperFunction,Plated,PTH,ComponentDrill
T2C1.000
; #@! TA.AperFunction,Plated,PTH,ComponentDrill
T3C1.100
; #@! TA.AperFunction,Plated,PTH,ComponentDrill
T4C2.700
%
G90
G05
T1
X93.99Y-87.94
X101.61Y-87.94
X104.56Y-87.94
X112.18Y-87.94
X115.32Y-87.94
X122.94Y-87.94
X126.5Y-47.69
X126.5Y-55.31
X126.5Y-58.163
X126.5Y-65.783
X126.5Y-69.317
X126.5Y-76.937
X126.5Y-80.47
X126.5Y-88.09
T2
X87.71Y-45.34
X87.71Y-47.88
X87.71Y-50.42
X87.71Y-52.96
X87.71Y-55.5
X87.71Y-58.04
X87.71Y-60.58
X87.71Y-63.12
X87.71Y-65.66
X87.71Y-68.2
X87.71Y-70.74
X87.71Y-73.28
X87.71Y-75.82
X87.71Y-78.36
X87.71Y-80.9
X87.71Y-83.44
X87.71Y-85.98
X87.71Y-88.52
X87.71Y-91.06
X87.71Y-93.6
X90.25Y-45.34
X90.25Y-47.88
X90.25Y-50.42
X90.25Y-52.96
X90.25Y-55.5
X90.25Y-58.04
X90.25Y-60.58
X90.25Y-63.12
X90.25Y-65.66
X90.25Y-68.2
X90.25Y-70.74
X90.25Y-73.28
X90.25Y-75.82
X90.25Y-78.36
X90.25Y-80.9
X90.25Y-83.44
X90.25Y-85.98
X90.25Y-88.52
X90.25Y-91.06
X90.25Y-93.6
T3
X97.51Y-96.49
X101.01Y-96.49
X104.51Y-96.49
X109.52Y-96.537
X113.02Y-96.537
X116.52Y-96.537
X121.42Y-96.59
X124.92Y-96.59
X128.42Y-96.59
X135.977Y-45.99
X135.977Y-49.49
X135.977Y-52.99
X136.0Y-82.0
X136.0Y-85.5
X136.0Y-89.0
X136.007Y-57.99
X136.007Y-61.49
X136.007Y-64.99
X136.007Y-69.99
X136.007Y-73.49
X136.007Y-76.99
T4
X89.0Y-40.5
X89.0Y-98.5
X138.0Y-40.5
X138.0Y-98.5
M30
