%TF.GenerationSoftware,KiCad,Pcbnew,9.0.7*%
%TF.CreationDate,2026-05-13T19:03:07-07:00*%
%TF.ProjectId,Freezer test board,46726565-7a65-4722-9074-65737420626f,rev?*%
%TF.SameCoordinates,Original*%
%TF.FileFunction,Soldermask,Bot*%
%TF.FilePolarity,Negative*%
%FSLAX46Y46*%
G04 Gerber Fmt 4.6, Leading zero omitted, Abs format (unit mm)*
G04 Created by KiCad (PCBNEW 9.0.7) date 2026-05-13 19:03:07*
%MOMM*%
%LPD*%
G01*
G04 APERTURE LIST*
G04 Aperture macros list*
%AMRoundRect*
0 Rectangle with rounded corners*
0 $1 Rounding radius*
0 $2 $3 $4 $5 $6 $7 $8 $9 X,Y pos of 4 corners*
0 Add a 4 corners polygon primitive as box body*
4,1,4,$2,$3,$4,$5,$6,$7,$8,$9,$2,$3,0*
0 Add four circle primitives for the rounded corners*
1,1,$1+$1,$2,$3*
1,1,$1+$1,$4,$5*
1,1,$1+$1,$6,$7*
1,1,$1+$1,$8,$9*
0 Add four rect primitives between the rounded corners*
20,1,$1+$1,$2,$3,$4,$5,0*
20,1,$1+$1,$4,$5,$6,$7,0*
20,1,$1+$1,$6,$7,$8,$9,0*
20,1,$1+$1,$8,$9,$2,$3,0*%
G04 Aperture macros list end*
%ADD10C,0.080000*%
%ADD11C,0.100000*%
%ADD12C,1.600000*%
%ADD13R,1.700000X1.700000*%
%ADD14C,1.700000*%
%ADD15C,5.400000*%
%ADD16RoundRect,0.102000X-0.825000X0.825000X-0.825000X-0.825000X0.825000X-0.825000X0.825000X0.825000X0*%
%ADD17C,1.854000*%
%ADD18RoundRect,0.102000X0.825000X0.825000X-0.825000X0.825000X-0.825000X-0.825000X0.825000X-0.825000X0*%
G04 APERTURE END LIST*
D10*
X139906892Y-94427935D02*
X139906892Y-93894601D01*
X139906892Y-93627935D02*
X139944988Y-93666030D01*
X139944988Y-93666030D02*
X139906892Y-93704125D01*
X139906892Y-93704125D02*
X139868797Y-93666030D01*
X139868797Y-93666030D02*
X139906892Y-93627935D01*
X139906892Y-93627935D02*
X139906892Y-93704125D01*
X139525940Y-94427935D02*
X139525940Y-93894601D01*
X139525940Y-93970792D02*
X139487845Y-93932697D01*
X139487845Y-93932697D02*
X139411655Y-93894601D01*
X139411655Y-93894601D02*
X139297369Y-93894601D01*
X139297369Y-93894601D02*
X139221178Y-93932697D01*
X139221178Y-93932697D02*
X139183083Y-94008887D01*
X139183083Y-94008887D02*
X139183083Y-94427935D01*
X139183083Y-94008887D02*
X139144988Y-93932697D01*
X139144988Y-93932697D02*
X139068797Y-93894601D01*
X139068797Y-93894601D02*
X138954512Y-93894601D01*
X138954512Y-93894601D02*
X138878321Y-93932697D01*
X138878321Y-93932697D02*
X138840226Y-94008887D01*
X138840226Y-94008887D02*
X138840226Y-94427935D01*
X137506892Y-94427935D02*
X137506892Y-94008887D01*
X137506892Y-94008887D02*
X137544987Y-93932697D01*
X137544987Y-93932697D02*
X137621178Y-93894601D01*
X137621178Y-93894601D02*
X137773559Y-93894601D01*
X137773559Y-93894601D02*
X137849749Y-93932697D01*
X137506892Y-94389840D02*
X137583083Y-94427935D01*
X137583083Y-94427935D02*
X137773559Y-94427935D01*
X137773559Y-94427935D02*
X137849749Y-94389840D01*
X137849749Y-94389840D02*
X137887845Y-94313649D01*
X137887845Y-94313649D02*
X137887845Y-94237459D01*
X137887845Y-94237459D02*
X137849749Y-94161268D01*
X137849749Y-94161268D02*
X137773559Y-94123173D01*
X137773559Y-94123173D02*
X137583083Y-94123173D01*
X137583083Y-94123173D02*
X137506892Y-94085078D01*
X136173558Y-94427935D02*
X136173558Y-93627935D01*
X136173558Y-94389840D02*
X136249749Y-94427935D01*
X136249749Y-94427935D02*
X136402130Y-94427935D01*
X136402130Y-94427935D02*
X136478320Y-94389840D01*
X136478320Y-94389840D02*
X136516415Y-94351744D01*
X136516415Y-94351744D02*
X136554511Y-94275554D01*
X136554511Y-94275554D02*
X136554511Y-94046982D01*
X136554511Y-94046982D02*
X136516415Y-93970792D01*
X136516415Y-93970792D02*
X136478320Y-93932697D01*
X136478320Y-93932697D02*
X136402130Y-93894601D01*
X136402130Y-93894601D02*
X136249749Y-93894601D01*
X136249749Y-93894601D02*
X136173558Y-93932697D01*
X135449748Y-94427935D02*
X135449748Y-94008887D01*
X135449748Y-94008887D02*
X135487843Y-93932697D01*
X135487843Y-93932697D02*
X135564034Y-93894601D01*
X135564034Y-93894601D02*
X135716415Y-93894601D01*
X135716415Y-93894601D02*
X135792605Y-93932697D01*
X135449748Y-94389840D02*
X135525939Y-94427935D01*
X135525939Y-94427935D02*
X135716415Y-94427935D01*
X135716415Y-94427935D02*
X135792605Y-94389840D01*
X135792605Y-94389840D02*
X135830701Y-94313649D01*
X135830701Y-94313649D02*
X135830701Y-94237459D01*
X135830701Y-94237459D02*
X135792605Y-94161268D01*
X135792605Y-94161268D02*
X135716415Y-94123173D01*
X135716415Y-94123173D02*
X135525939Y-94123173D01*
X135525939Y-94123173D02*
X135449748Y-94085078D01*
X135068795Y-93894601D02*
X135068795Y-94427935D01*
X135068795Y-93970792D02*
X135030700Y-93932697D01*
X135030700Y-93932697D02*
X134954510Y-93894601D01*
X134954510Y-93894601D02*
X134840224Y-93894601D01*
X134840224Y-93894601D02*
X134764033Y-93932697D01*
X134764033Y-93932697D02*
X134725938Y-94008887D01*
X134725938Y-94008887D02*
X134725938Y-94427935D01*
X134002128Y-94427935D02*
X134002128Y-93627935D01*
X134002128Y-94389840D02*
X134078319Y-94427935D01*
X134078319Y-94427935D02*
X134230700Y-94427935D01*
X134230700Y-94427935D02*
X134306890Y-94389840D01*
X134306890Y-94389840D02*
X134344985Y-94351744D01*
X134344985Y-94351744D02*
X134383081Y-94275554D01*
X134383081Y-94275554D02*
X134383081Y-94046982D01*
X134383081Y-94046982D02*
X134344985Y-93970792D01*
X134344985Y-93970792D02*
X134306890Y-93932697D01*
X134306890Y-93932697D02*
X134230700Y-93894601D01*
X134230700Y-93894601D02*
X134078319Y-93894601D01*
X134078319Y-93894601D02*
X134002128Y-93932697D01*
X133316413Y-94389840D02*
X133392604Y-94427935D01*
X133392604Y-94427935D02*
X133544985Y-94427935D01*
X133544985Y-94427935D02*
X133621175Y-94389840D01*
X133621175Y-94389840D02*
X133659271Y-94313649D01*
X133659271Y-94313649D02*
X133659271Y-94008887D01*
X133659271Y-94008887D02*
X133621175Y-93932697D01*
X133621175Y-93932697D02*
X133544985Y-93894601D01*
X133544985Y-93894601D02*
X133392604Y-93894601D01*
X133392604Y-93894601D02*
X133316413Y-93932697D01*
X133316413Y-93932697D02*
X133278318Y-94008887D01*
X133278318Y-94008887D02*
X133278318Y-94085078D01*
X133278318Y-94085078D02*
X133659271Y-94161268D01*
X132821176Y-94427935D02*
X132897366Y-94389840D01*
X132897366Y-94389840D02*
X132935461Y-94313649D01*
X132935461Y-94313649D02*
X132935461Y-93627935D01*
X132516413Y-94427935D02*
X132516413Y-93894601D01*
X132516413Y-93627935D02*
X132554509Y-93666030D01*
X132554509Y-93666030D02*
X132516413Y-93704125D01*
X132516413Y-93704125D02*
X132478318Y-93666030D01*
X132478318Y-93666030D02*
X132516413Y-93627935D01*
X132516413Y-93627935D02*
X132516413Y-93704125D01*
X132021176Y-94427935D02*
X132097366Y-94389840D01*
X132097366Y-94389840D02*
X132135461Y-94351744D01*
X132135461Y-94351744D02*
X132173557Y-94275554D01*
X132173557Y-94275554D02*
X132173557Y-94046982D01*
X132173557Y-94046982D02*
X132135461Y-93970792D01*
X132135461Y-93970792D02*
X132097366Y-93932697D01*
X132097366Y-93932697D02*
X132021176Y-93894601D01*
X132021176Y-93894601D02*
X131906890Y-93894601D01*
X131906890Y-93894601D02*
X131830699Y-93932697D01*
X131830699Y-93932697D02*
X131792604Y-93970792D01*
X131792604Y-93970792D02*
X131754509Y-94046982D01*
X131754509Y-94046982D02*
X131754509Y-94275554D01*
X131754509Y-94275554D02*
X131792604Y-94351744D01*
X131792604Y-94351744D02*
X131830699Y-94389840D01*
X131830699Y-94389840D02*
X131906890Y-94427935D01*
X131906890Y-94427935D02*
X132021176Y-94427935D01*
X131411651Y-93894601D02*
X131411651Y-94427935D01*
X131411651Y-93970792D02*
X131373556Y-93932697D01*
X131373556Y-93932697D02*
X131297366Y-93894601D01*
X131297366Y-93894601D02*
X131183080Y-93894601D01*
X131183080Y-93894601D02*
X131106889Y-93932697D01*
X131106889Y-93932697D02*
X131068794Y-94008887D01*
X131068794Y-94008887D02*
X131068794Y-94427935D01*
X130192603Y-93894601D02*
X129887841Y-93894601D01*
X130078317Y-93627935D02*
X130078317Y-94313649D01*
X130078317Y-94313649D02*
X130040222Y-94389840D01*
X130040222Y-94389840D02*
X129964032Y-94427935D01*
X129964032Y-94427935D02*
X129887841Y-94427935D01*
X129697365Y-93894601D02*
X129544984Y-94427935D01*
X129544984Y-94427935D02*
X129392603Y-94046982D01*
X129392603Y-94046982D02*
X129240222Y-94427935D01*
X129240222Y-94427935D02*
X129087841Y-93894601D01*
X128783079Y-94427935D02*
X128783079Y-93894601D01*
X128783079Y-93627935D02*
X128821175Y-93666030D01*
X128821175Y-93666030D02*
X128783079Y-93704125D01*
X128783079Y-93704125D02*
X128744984Y-93666030D01*
X128744984Y-93666030D02*
X128783079Y-93627935D01*
X128783079Y-93627935D02*
X128783079Y-93704125D01*
X128402127Y-93894601D02*
X128402127Y-94427935D01*
X128402127Y-93970792D02*
X128364032Y-93932697D01*
X128364032Y-93932697D02*
X128287842Y-93894601D01*
X128287842Y-93894601D02*
X128173556Y-93894601D01*
X128173556Y-93894601D02*
X128097365Y-93932697D01*
X128097365Y-93932697D02*
X128059270Y-94008887D01*
X128059270Y-94008887D02*
X128059270Y-94427935D01*
D11*
X129803734Y-38921895D02*
X129803734Y-38121895D01*
X129803734Y-38121895D02*
X129537068Y-38693323D01*
X129537068Y-38693323D02*
X129270401Y-38121895D01*
X129270401Y-38121895D02*
X129270401Y-38921895D01*
X128546591Y-38921895D02*
X128546591Y-38502847D01*
X128546591Y-38502847D02*
X128584686Y-38426657D01*
X128584686Y-38426657D02*
X128660877Y-38388561D01*
X128660877Y-38388561D02*
X128813258Y-38388561D01*
X128813258Y-38388561D02*
X128889448Y-38426657D01*
X128546591Y-38883800D02*
X128622782Y-38921895D01*
X128622782Y-38921895D02*
X128813258Y-38921895D01*
X128813258Y-38921895D02*
X128889448Y-38883800D01*
X128889448Y-38883800D02*
X128927544Y-38807609D01*
X128927544Y-38807609D02*
X128927544Y-38731419D01*
X128927544Y-38731419D02*
X128889448Y-38655228D01*
X128889448Y-38655228D02*
X128813258Y-38617133D01*
X128813258Y-38617133D02*
X128622782Y-38617133D01*
X128622782Y-38617133D02*
X128546591Y-38579038D01*
X127822781Y-38921895D02*
X127822781Y-38121895D01*
X127822781Y-38883800D02*
X127898972Y-38921895D01*
X127898972Y-38921895D02*
X128051353Y-38921895D01*
X128051353Y-38921895D02*
X128127543Y-38883800D01*
X128127543Y-38883800D02*
X128165638Y-38845704D01*
X128165638Y-38845704D02*
X128203734Y-38769514D01*
X128203734Y-38769514D02*
X128203734Y-38540942D01*
X128203734Y-38540942D02*
X128165638Y-38464752D01*
X128165638Y-38464752D02*
X128127543Y-38426657D01*
X128127543Y-38426657D02*
X128051353Y-38388561D01*
X128051353Y-38388561D02*
X127898972Y-38388561D01*
X127898972Y-38388561D02*
X127822781Y-38426657D01*
X127137066Y-38883800D02*
X127213257Y-38921895D01*
X127213257Y-38921895D02*
X127365638Y-38921895D01*
X127365638Y-38921895D02*
X127441828Y-38883800D01*
X127441828Y-38883800D02*
X127479924Y-38807609D01*
X127479924Y-38807609D02*
X127479924Y-38502847D01*
X127479924Y-38502847D02*
X127441828Y-38426657D01*
X127441828Y-38426657D02*
X127365638Y-38388561D01*
X127365638Y-38388561D02*
X127213257Y-38388561D01*
X127213257Y-38388561D02*
X127137066Y-38426657D01*
X127137066Y-38426657D02*
X127098971Y-38502847D01*
X127098971Y-38502847D02*
X127098971Y-38579038D01*
X127098971Y-38579038D02*
X127479924Y-38655228D01*
X126222781Y-38388561D02*
X126070400Y-38921895D01*
X126070400Y-38921895D02*
X125918019Y-38540942D01*
X125918019Y-38540942D02*
X125765638Y-38921895D01*
X125765638Y-38921895D02*
X125613257Y-38388561D01*
X125308495Y-38921895D02*
X125308495Y-38388561D01*
X125308495Y-38121895D02*
X125346591Y-38159990D01*
X125346591Y-38159990D02*
X125308495Y-38198085D01*
X125308495Y-38198085D02*
X125270400Y-38159990D01*
X125270400Y-38159990D02*
X125308495Y-38121895D01*
X125308495Y-38121895D02*
X125308495Y-38198085D01*
X125041829Y-38388561D02*
X124737067Y-38388561D01*
X124927543Y-38121895D02*
X124927543Y-38807609D01*
X124927543Y-38807609D02*
X124889448Y-38883800D01*
X124889448Y-38883800D02*
X124813258Y-38921895D01*
X124813258Y-38921895D02*
X124737067Y-38921895D01*
X124470400Y-38921895D02*
X124470400Y-38121895D01*
X124127543Y-38921895D02*
X124127543Y-38502847D01*
X124127543Y-38502847D02*
X124165638Y-38426657D01*
X124165638Y-38426657D02*
X124241829Y-38388561D01*
X124241829Y-38388561D02*
X124356115Y-38388561D01*
X124356115Y-38388561D02*
X124432305Y-38426657D01*
X124432305Y-38426657D02*
X124470400Y-38464752D01*
X123251352Y-38388561D02*
X122946590Y-38388561D01*
X123137066Y-38121895D02*
X123137066Y-38807609D01*
X123137066Y-38807609D02*
X123098971Y-38883800D01*
X123098971Y-38883800D02*
X123022781Y-38921895D01*
X123022781Y-38921895D02*
X122946590Y-38921895D01*
X122679923Y-38921895D02*
X122679923Y-38121895D01*
X122337066Y-38921895D02*
X122337066Y-38502847D01*
X122337066Y-38502847D02*
X122375161Y-38426657D01*
X122375161Y-38426657D02*
X122451352Y-38388561D01*
X122451352Y-38388561D02*
X122565638Y-38388561D01*
X122565638Y-38388561D02*
X122641828Y-38426657D01*
X122641828Y-38426657D02*
X122679923Y-38464752D01*
X121651351Y-38883800D02*
X121727542Y-38921895D01*
X121727542Y-38921895D02*
X121879923Y-38921895D01*
X121879923Y-38921895D02*
X121956113Y-38883800D01*
X121956113Y-38883800D02*
X121994209Y-38807609D01*
X121994209Y-38807609D02*
X121994209Y-38502847D01*
X121994209Y-38502847D02*
X121956113Y-38426657D01*
X121956113Y-38426657D02*
X121879923Y-38388561D01*
X121879923Y-38388561D02*
X121727542Y-38388561D01*
X121727542Y-38388561D02*
X121651351Y-38426657D01*
X121651351Y-38426657D02*
X121613256Y-38502847D01*
X121613256Y-38502847D02*
X121613256Y-38579038D01*
X121613256Y-38579038D02*
X121994209Y-38655228D01*
X120660875Y-38921895D02*
X120660875Y-38121895D01*
X120660875Y-38121895D02*
X120356113Y-38121895D01*
X120356113Y-38121895D02*
X120279923Y-38159990D01*
X120279923Y-38159990D02*
X120241828Y-38198085D01*
X120241828Y-38198085D02*
X120203732Y-38274276D01*
X120203732Y-38274276D02*
X120203732Y-38388561D01*
X120203732Y-38388561D02*
X120241828Y-38464752D01*
X120241828Y-38464752D02*
X120279923Y-38502847D01*
X120279923Y-38502847D02*
X120356113Y-38540942D01*
X120356113Y-38540942D02*
X120660875Y-38540942D01*
X119746590Y-38921895D02*
X119822780Y-38883800D01*
X119822780Y-38883800D02*
X119860875Y-38845704D01*
X119860875Y-38845704D02*
X119898971Y-38769514D01*
X119898971Y-38769514D02*
X119898971Y-38540942D01*
X119898971Y-38540942D02*
X119860875Y-38464752D01*
X119860875Y-38464752D02*
X119822780Y-38426657D01*
X119822780Y-38426657D02*
X119746590Y-38388561D01*
X119746590Y-38388561D02*
X119632304Y-38388561D01*
X119632304Y-38388561D02*
X119556113Y-38426657D01*
X119556113Y-38426657D02*
X119518018Y-38464752D01*
X119518018Y-38464752D02*
X119479923Y-38540942D01*
X119479923Y-38540942D02*
X119479923Y-38769514D01*
X119479923Y-38769514D02*
X119518018Y-38845704D01*
X119518018Y-38845704D02*
X119556113Y-38883800D01*
X119556113Y-38883800D02*
X119632304Y-38921895D01*
X119632304Y-38921895D02*
X119746590Y-38921895D01*
X119213256Y-38388561D02*
X119060875Y-38921895D01*
X119060875Y-38921895D02*
X118908494Y-38540942D01*
X118908494Y-38540942D02*
X118756113Y-38921895D01*
X118756113Y-38921895D02*
X118603732Y-38388561D01*
X117994208Y-38883800D02*
X118070399Y-38921895D01*
X118070399Y-38921895D02*
X118222780Y-38921895D01*
X118222780Y-38921895D02*
X118298970Y-38883800D01*
X118298970Y-38883800D02*
X118337066Y-38807609D01*
X118337066Y-38807609D02*
X118337066Y-38502847D01*
X118337066Y-38502847D02*
X118298970Y-38426657D01*
X118298970Y-38426657D02*
X118222780Y-38388561D01*
X118222780Y-38388561D02*
X118070399Y-38388561D01*
X118070399Y-38388561D02*
X117994208Y-38426657D01*
X117994208Y-38426657D02*
X117956113Y-38502847D01*
X117956113Y-38502847D02*
X117956113Y-38579038D01*
X117956113Y-38579038D02*
X118337066Y-38655228D01*
X117613256Y-38921895D02*
X117613256Y-38388561D01*
X117613256Y-38540942D02*
X117575161Y-38464752D01*
X117575161Y-38464752D02*
X117537066Y-38426657D01*
X117537066Y-38426657D02*
X117460875Y-38388561D01*
X117460875Y-38388561D02*
X117384685Y-38388561D01*
X116394209Y-38921895D02*
X116470399Y-38883800D01*
X116470399Y-38883800D02*
X116508494Y-38845704D01*
X116508494Y-38845704D02*
X116546590Y-38769514D01*
X116546590Y-38769514D02*
X116546590Y-38540942D01*
X116546590Y-38540942D02*
X116508494Y-38464752D01*
X116508494Y-38464752D02*
X116470399Y-38426657D01*
X116470399Y-38426657D02*
X116394209Y-38388561D01*
X116394209Y-38388561D02*
X116279923Y-38388561D01*
X116279923Y-38388561D02*
X116203732Y-38426657D01*
X116203732Y-38426657D02*
X116165637Y-38464752D01*
X116165637Y-38464752D02*
X116127542Y-38540942D01*
X116127542Y-38540942D02*
X116127542Y-38769514D01*
X116127542Y-38769514D02*
X116165637Y-38845704D01*
X116165637Y-38845704D02*
X116203732Y-38883800D01*
X116203732Y-38883800D02*
X116279923Y-38921895D01*
X116279923Y-38921895D02*
X116394209Y-38921895D01*
X115898970Y-38388561D02*
X115594208Y-38388561D01*
X115784684Y-38921895D02*
X115784684Y-38236180D01*
X115784684Y-38236180D02*
X115746589Y-38159990D01*
X115746589Y-38159990D02*
X115670399Y-38121895D01*
X115670399Y-38121895D02*
X115594208Y-38121895D01*
X114756113Y-38121895D02*
X114756113Y-38274276D01*
X114451351Y-38121895D02*
X114451351Y-38274276D01*
X114184684Y-38121895D02*
X113994208Y-38921895D01*
X113994208Y-38921895D02*
X113841827Y-38350466D01*
X113841827Y-38350466D02*
X113689446Y-38921895D01*
X113689446Y-38921895D02*
X113498970Y-38121895D01*
X113194207Y-38921895D02*
X113194207Y-38121895D01*
X112851350Y-38921895D02*
X112851350Y-38502847D01*
X112851350Y-38502847D02*
X112889445Y-38426657D01*
X112889445Y-38426657D02*
X112965636Y-38388561D01*
X112965636Y-38388561D02*
X113079922Y-38388561D01*
X113079922Y-38388561D02*
X113156112Y-38426657D01*
X113156112Y-38426657D02*
X113194207Y-38464752D01*
X112127540Y-38921895D02*
X112127540Y-38502847D01*
X112127540Y-38502847D02*
X112165635Y-38426657D01*
X112165635Y-38426657D02*
X112241826Y-38388561D01*
X112241826Y-38388561D02*
X112394207Y-38388561D01*
X112394207Y-38388561D02*
X112470397Y-38426657D01*
X112127540Y-38883800D02*
X112203731Y-38921895D01*
X112203731Y-38921895D02*
X112394207Y-38921895D01*
X112394207Y-38921895D02*
X112470397Y-38883800D01*
X112470397Y-38883800D02*
X112508493Y-38807609D01*
X112508493Y-38807609D02*
X112508493Y-38731419D01*
X112508493Y-38731419D02*
X112470397Y-38655228D01*
X112470397Y-38655228D02*
X112394207Y-38617133D01*
X112394207Y-38617133D02*
X112203731Y-38617133D01*
X112203731Y-38617133D02*
X112127540Y-38579038D01*
X111860873Y-38388561D02*
X111556111Y-38388561D01*
X111746587Y-38121895D02*
X111746587Y-38807609D01*
X111746587Y-38807609D02*
X111708492Y-38883800D01*
X111708492Y-38883800D02*
X111632302Y-38921895D01*
X111632302Y-38921895D02*
X111556111Y-38921895D01*
X110337063Y-38921895D02*
X110337063Y-38502847D01*
X110337063Y-38502847D02*
X110375158Y-38426657D01*
X110375158Y-38426657D02*
X110451349Y-38388561D01*
X110451349Y-38388561D02*
X110603730Y-38388561D01*
X110603730Y-38388561D02*
X110679920Y-38426657D01*
X110337063Y-38883800D02*
X110413254Y-38921895D01*
X110413254Y-38921895D02*
X110603730Y-38921895D01*
X110603730Y-38921895D02*
X110679920Y-38883800D01*
X110679920Y-38883800D02*
X110718016Y-38807609D01*
X110718016Y-38807609D02*
X110718016Y-38731419D01*
X110718016Y-38731419D02*
X110679920Y-38655228D01*
X110679920Y-38655228D02*
X110603730Y-38617133D01*
X110603730Y-38617133D02*
X110413254Y-38617133D01*
X110413254Y-38617133D02*
X110337063Y-38579038D01*
X109956110Y-38921895D02*
X109956110Y-38388561D01*
X109956110Y-38540942D02*
X109918015Y-38464752D01*
X109918015Y-38464752D02*
X109879920Y-38426657D01*
X109879920Y-38426657D02*
X109803729Y-38388561D01*
X109803729Y-38388561D02*
X109727539Y-38388561D01*
X109156110Y-38883800D02*
X109232301Y-38921895D01*
X109232301Y-38921895D02*
X109384682Y-38921895D01*
X109384682Y-38921895D02*
X109460872Y-38883800D01*
X109460872Y-38883800D02*
X109498968Y-38807609D01*
X109498968Y-38807609D02*
X109498968Y-38502847D01*
X109498968Y-38502847D02*
X109460872Y-38426657D01*
X109460872Y-38426657D02*
X109384682Y-38388561D01*
X109384682Y-38388561D02*
X109232301Y-38388561D01*
X109232301Y-38388561D02*
X109156110Y-38426657D01*
X109156110Y-38426657D02*
X109118015Y-38502847D01*
X109118015Y-38502847D02*
X109118015Y-38579038D01*
X109118015Y-38579038D02*
X109498968Y-38655228D01*
X108241825Y-38388561D02*
X108089444Y-38921895D01*
X108089444Y-38921895D02*
X107937063Y-38540942D01*
X107937063Y-38540942D02*
X107784682Y-38921895D01*
X107784682Y-38921895D02*
X107632301Y-38388561D01*
X107022777Y-38883800D02*
X107098968Y-38921895D01*
X107098968Y-38921895D02*
X107251349Y-38921895D01*
X107251349Y-38921895D02*
X107327539Y-38883800D01*
X107327539Y-38883800D02*
X107365635Y-38807609D01*
X107365635Y-38807609D02*
X107365635Y-38502847D01*
X107365635Y-38502847D02*
X107327539Y-38426657D01*
X107327539Y-38426657D02*
X107251349Y-38388561D01*
X107251349Y-38388561D02*
X107098968Y-38388561D01*
X107098968Y-38388561D02*
X107022777Y-38426657D01*
X107022777Y-38426657D02*
X106984682Y-38502847D01*
X106984682Y-38502847D02*
X106984682Y-38579038D01*
X106984682Y-38579038D02*
X107365635Y-38655228D01*
X105689444Y-38921895D02*
X105689444Y-38121895D01*
X105689444Y-38883800D02*
X105765635Y-38921895D01*
X105765635Y-38921895D02*
X105918016Y-38921895D01*
X105918016Y-38921895D02*
X105994206Y-38883800D01*
X105994206Y-38883800D02*
X106032301Y-38845704D01*
X106032301Y-38845704D02*
X106070397Y-38769514D01*
X106070397Y-38769514D02*
X106070397Y-38540942D01*
X106070397Y-38540942D02*
X106032301Y-38464752D01*
X106032301Y-38464752D02*
X105994206Y-38426657D01*
X105994206Y-38426657D02*
X105918016Y-38388561D01*
X105918016Y-38388561D02*
X105765635Y-38388561D01*
X105765635Y-38388561D02*
X105689444Y-38426657D01*
X105194206Y-38921895D02*
X105270396Y-38883800D01*
X105270396Y-38883800D02*
X105308491Y-38845704D01*
X105308491Y-38845704D02*
X105346587Y-38769514D01*
X105346587Y-38769514D02*
X105346587Y-38540942D01*
X105346587Y-38540942D02*
X105308491Y-38464752D01*
X105308491Y-38464752D02*
X105270396Y-38426657D01*
X105270396Y-38426657D02*
X105194206Y-38388561D01*
X105194206Y-38388561D02*
X105079920Y-38388561D01*
X105079920Y-38388561D02*
X105003729Y-38426657D01*
X105003729Y-38426657D02*
X104965634Y-38464752D01*
X104965634Y-38464752D02*
X104927539Y-38540942D01*
X104927539Y-38540942D02*
X104927539Y-38769514D01*
X104927539Y-38769514D02*
X104965634Y-38845704D01*
X104965634Y-38845704D02*
X105003729Y-38883800D01*
X105003729Y-38883800D02*
X105079920Y-38921895D01*
X105079920Y-38921895D02*
X105194206Y-38921895D01*
X104584681Y-38921895D02*
X104584681Y-38388561D01*
X104584681Y-38121895D02*
X104622777Y-38159990D01*
X104622777Y-38159990D02*
X104584681Y-38198085D01*
X104584681Y-38198085D02*
X104546586Y-38159990D01*
X104546586Y-38159990D02*
X104584681Y-38121895D01*
X104584681Y-38121895D02*
X104584681Y-38198085D01*
X104203729Y-38388561D02*
X104203729Y-38921895D01*
X104203729Y-38464752D02*
X104165634Y-38426657D01*
X104165634Y-38426657D02*
X104089444Y-38388561D01*
X104089444Y-38388561D02*
X103975158Y-38388561D01*
X103975158Y-38388561D02*
X103898967Y-38426657D01*
X103898967Y-38426657D02*
X103860872Y-38502847D01*
X103860872Y-38502847D02*
X103860872Y-38921895D01*
X103137062Y-38388561D02*
X103137062Y-39036180D01*
X103137062Y-39036180D02*
X103175157Y-39112371D01*
X103175157Y-39112371D02*
X103213253Y-39150466D01*
X103213253Y-39150466D02*
X103289443Y-39188561D01*
X103289443Y-39188561D02*
X103403729Y-39188561D01*
X103403729Y-39188561D02*
X103479919Y-39150466D01*
X103137062Y-38883800D02*
X103213253Y-38921895D01*
X103213253Y-38921895D02*
X103365634Y-38921895D01*
X103365634Y-38921895D02*
X103441824Y-38883800D01*
X103441824Y-38883800D02*
X103479919Y-38845704D01*
X103479919Y-38845704D02*
X103518015Y-38769514D01*
X103518015Y-38769514D02*
X103518015Y-38540942D01*
X103518015Y-38540942D02*
X103479919Y-38464752D01*
X103479919Y-38464752D02*
X103441824Y-38426657D01*
X103441824Y-38426657D02*
X103365634Y-38388561D01*
X103365634Y-38388561D02*
X103213253Y-38388561D01*
X103213253Y-38388561D02*
X103137062Y-38426657D01*
X102146585Y-38921895D02*
X102146585Y-38121895D01*
X102146585Y-38121895D02*
X101879919Y-38693323D01*
X101879919Y-38693323D02*
X101613252Y-38121895D01*
X101613252Y-38121895D02*
X101613252Y-38921895D01*
X100889442Y-38921895D02*
X100889442Y-38502847D01*
X100889442Y-38502847D02*
X100927537Y-38426657D01*
X100927537Y-38426657D02*
X101003728Y-38388561D01*
X101003728Y-38388561D02*
X101156109Y-38388561D01*
X101156109Y-38388561D02*
X101232299Y-38426657D01*
X100889442Y-38883800D02*
X100965633Y-38921895D01*
X100965633Y-38921895D02*
X101156109Y-38921895D01*
X101156109Y-38921895D02*
X101232299Y-38883800D01*
X101232299Y-38883800D02*
X101270395Y-38807609D01*
X101270395Y-38807609D02*
X101270395Y-38731419D01*
X101270395Y-38731419D02*
X101232299Y-38655228D01*
X101232299Y-38655228D02*
X101156109Y-38617133D01*
X101156109Y-38617133D02*
X100965633Y-38617133D01*
X100965633Y-38617133D02*
X100889442Y-38579038D01*
X100508489Y-38388561D02*
X100508489Y-38921895D01*
X100508489Y-38464752D02*
X100470394Y-38426657D01*
X100470394Y-38426657D02*
X100394204Y-38388561D01*
X100394204Y-38388561D02*
X100279918Y-38388561D01*
X100279918Y-38388561D02*
X100203727Y-38426657D01*
X100203727Y-38426657D02*
X100165632Y-38502847D01*
X100165632Y-38502847D02*
X100165632Y-38921895D01*
X99784679Y-38388561D02*
X99784679Y-38921895D01*
X99784679Y-38464752D02*
X99746584Y-38426657D01*
X99746584Y-38426657D02*
X99670394Y-38388561D01*
X99670394Y-38388561D02*
X99556108Y-38388561D01*
X99556108Y-38388561D02*
X99479917Y-38426657D01*
X99479917Y-38426657D02*
X99441822Y-38502847D01*
X99441822Y-38502847D02*
X99441822Y-38921895D01*
X99060869Y-38388561D02*
X99060869Y-38921895D01*
X99060869Y-38464752D02*
X99022774Y-38426657D01*
X99022774Y-38426657D02*
X98946584Y-38388561D01*
X98946584Y-38388561D02*
X98832298Y-38388561D01*
X98832298Y-38388561D02*
X98756107Y-38426657D01*
X98756107Y-38426657D02*
X98718012Y-38502847D01*
X98718012Y-38502847D02*
X98718012Y-38921895D01*
X98375155Y-38121895D02*
X98375155Y-38274276D01*
X98070393Y-38121895D02*
X98070393Y-38274276D01*
X97727535Y-38617133D02*
X97118012Y-38617133D01*
X96851345Y-38121895D02*
X96394202Y-38121895D01*
X96622774Y-38921895D02*
X96622774Y-38121895D01*
X96127535Y-38921895D02*
X96127535Y-38388561D01*
X96127535Y-38540942D02*
X96089440Y-38464752D01*
X96089440Y-38464752D02*
X96051345Y-38426657D01*
X96051345Y-38426657D02*
X95975154Y-38388561D01*
X95975154Y-38388561D02*
X95898964Y-38388561D01*
X95632297Y-38921895D02*
X95632297Y-38388561D01*
X95632297Y-38121895D02*
X95670393Y-38159990D01*
X95670393Y-38159990D02*
X95632297Y-38198085D01*
X95632297Y-38198085D02*
X95594202Y-38159990D01*
X95594202Y-38159990D02*
X95632297Y-38121895D01*
X95632297Y-38121895D02*
X95632297Y-38198085D01*
D12*
%TO.C,R7*%
X101610000Y-87940000D03*
X93990000Y-87940000D03*
%TD*%
%TO.C,R1*%
X126500000Y-47690000D03*
X126500000Y-55310000D03*
%TD*%
D13*
%TO.C,J2*%
X87710000Y-93600000D03*
D14*
X90250000Y-93600000D03*
X87710000Y-91060000D03*
X90250000Y-91060000D03*
X87710000Y-88520000D03*
X90250000Y-88520000D03*
X87710000Y-85980000D03*
X90250000Y-85980000D03*
X87710000Y-83440000D03*
X90250000Y-83440000D03*
X87710000Y-80900000D03*
X90250000Y-80900000D03*
X87710000Y-78360000D03*
X90250000Y-78360000D03*
X87710000Y-75820000D03*
X90250000Y-75820000D03*
X87710000Y-73280000D03*
X90250000Y-73280000D03*
X87710000Y-70740000D03*
X90250000Y-70740000D03*
X87710000Y-68200000D03*
X90250000Y-68200000D03*
X87710000Y-65660000D03*
X90250000Y-65660000D03*
X87710000Y-63120000D03*
X90250000Y-63120000D03*
X87710000Y-60580000D03*
X90250000Y-60580000D03*
X87710000Y-58040000D03*
X90250000Y-58040000D03*
X87710000Y-55500000D03*
X90250000Y-55500000D03*
X87710000Y-52960000D03*
X90250000Y-52960000D03*
X87710000Y-50420000D03*
X90250000Y-50420000D03*
X87710000Y-47880000D03*
X90250000Y-47880000D03*
X87710000Y-45340000D03*
X90250000Y-45340000D03*
%TD*%
D12*
%TO.C,R4*%
X126500000Y-80470000D03*
X126500000Y-88090000D03*
%TD*%
D15*
%TO.C,H2*%
X89000000Y-98500000D03*
%TD*%
D12*
%TO.C,R2*%
X126500000Y-58163333D03*
X126500000Y-65783333D03*
%TD*%
D15*
%TO.C,H4*%
X138000000Y-98500000D03*
%TD*%
D12*
%TO.C,R3*%
X126500000Y-69316667D03*
X126500000Y-76936667D03*
%TD*%
D16*
%TO.C,J3*%
X135977500Y-45990000D03*
D17*
X135977500Y-49490000D03*
X135977500Y-52990000D03*
%TD*%
D16*
%TO.C,J5*%
X136007500Y-69990000D03*
D17*
X136007500Y-73490000D03*
X136007500Y-76990000D03*
%TD*%
D12*
%TO.C,R5*%
X122940000Y-87940000D03*
X115320000Y-87940000D03*
%TD*%
D15*
%TO.C,H3*%
X138000000Y-40500000D03*
%TD*%
D18*
%TO.C,J9*%
X104510000Y-96490000D03*
D17*
X101010000Y-96490000D03*
X97510000Y-96490000D03*
%TD*%
D16*
%TO.C,J6*%
X136000000Y-82000000D03*
D17*
X136000000Y-85500000D03*
X136000000Y-89000000D03*
%TD*%
D12*
%TO.C,R6*%
X112180000Y-87940000D03*
X104560000Y-87940000D03*
%TD*%
D18*
%TO.C,J7*%
X128420000Y-96590000D03*
D17*
X124920000Y-96590000D03*
X121420000Y-96590000D03*
%TD*%
D18*
%TO.C,J8*%
X116520000Y-96537500D03*
D17*
X113020000Y-96537500D03*
X109520000Y-96537500D03*
%TD*%
D16*
%TO.C,J4*%
X136007500Y-57990000D03*
D17*
X136007500Y-61490000D03*
X136007500Y-64990000D03*
%TD*%
D15*
%TO.C,H1*%
X89000000Y-40500000D03*
%TD*%
M02*
