%TF.GenerationSoftware,KiCad,Pcbnew,9.0.2*%
%TF.CreationDate,2026-05-05T19:23:23-07:00*%
%TF.ProjectId,Freezer test board,46726565-7a65-4722-9074-65737420626f,rev?*%
%TF.SameCoordinates,Original*%
%TF.FileFunction,Copper,L2,Inr*%
%TF.FilePolarity,Positive*%
%FSLAX46Y46*%
G04 Gerber Fmt 4.6, Leading zero omitted, Abs format (unit mm)*
G04 Created by KiCad (PCBNEW 9.0.2) date 2026-05-05 19:23:23*
%MOMM*%
%LPD*%
G01*
G04 APERTURE LIST*
%TA.AperFunction,ComponentPad*%
%ADD10C,1.600000*%
%TD*%
%TA.AperFunction,ComponentPad*%
%ADD11R,1.700000X1.700000*%
%TD*%
%TA.AperFunction,ComponentPad*%
%ADD12C,1.700000*%
%TD*%
%TA.AperFunction,ComponentPad*%
%ADD13C,5.400000*%
%TD*%
%TA.AperFunction,ComponentPad*%
%ADD14R,1.650000X1.650000*%
%TD*%
%TA.AperFunction,ComponentPad*%
%ADD15C,1.650000*%
%TD*%
G04 APERTURE END LIST*
D10*
%TO.N,+3V3*%
%TO.C,R3*%
X126500000Y-76936667D03*
%TO.N,GPIO5*%
X126500000Y-69316667D03*
%TD*%
%TO.N,+3V3*%
%TO.C,R2*%
X126500000Y-65783333D03*
%TO.N,GPIO6*%
X126500000Y-58163333D03*
%TD*%
%TO.N,+3V3*%
%TO.C,R4*%
X126500000Y-88090000D03*
%TO.N,GPIO25*%
X126500000Y-80470000D03*
%TD*%
%TO.N,GPIO17*%
%TO.C,R7*%
X101610000Y-87940000D03*
%TO.N,+3V3*%
X93990000Y-87940000D03*
%TD*%
%TO.N,GPIO16*%
%TO.C,R1*%
X126500000Y-47690000D03*
%TO.N,+3V3*%
X126500000Y-55310000D03*
%TD*%
D11*
%TO.N,+3V3*%
%TO.C,J2*%
X87710000Y-93600000D03*
D12*
%TO.N,unconnected-(J2-Pin_2-Pad2)*%
X90250000Y-93600000D03*
%TO.N,unconnected-(J2-Pin_3-Pad3)*%
X87710000Y-91060000D03*
%TO.N,unconnected-(J2-Pin_4-Pad4)*%
X90250000Y-91060000D03*
%TO.N,unconnected-(J2-Pin_5-Pad5)*%
X87710000Y-88520000D03*
%TO.N,GND*%
X90250000Y-88520000D03*
%TO.N,unconnected-(J2-Pin_7-Pad7)*%
X87710000Y-85980000D03*
%TO.N,unconnected-(J2-Pin_8-Pad8)*%
X90250000Y-85980000D03*
%TO.N,unconnected-(J2-Pin_9-Pad9)*%
X87710000Y-83440000D03*
%TO.N,unconnected-(J2-Pin_10-Pad10)*%
X90250000Y-83440000D03*
%TO.N,GPIO17*%
X87710000Y-80900000D03*
%TO.N,unconnected-(J2-Pin_12-Pad12)*%
X90250000Y-80900000D03*
%TO.N,unconnected-(J2-Pin_13-Pad13)*%
X87710000Y-78360000D03*
%TO.N,GND*%
X90250000Y-78360000D03*
%TO.N,unconnected-(J2-Pin_15-Pad15)*%
X87710000Y-75820000D03*
%TO.N,GPIO23*%
X90250000Y-75820000D03*
%TO.N,unconnected-(J2-Pin_17-Pad17)*%
X87710000Y-73280000D03*
%TO.N,GPIO24*%
X90250000Y-73280000D03*
%TO.N,unconnected-(J2-Pin_19-Pad19)*%
X87710000Y-70740000D03*
%TO.N,GND*%
X90250000Y-70740000D03*
%TO.N,unconnected-(J2-Pin_21-Pad21)*%
X87710000Y-68200000D03*
%TO.N,GPIO25*%
X90250000Y-68200000D03*
%TO.N,unconnected-(J2-Pin_23-Pad23)*%
X87710000Y-65660000D03*
%TO.N,unconnected-(J2-Pin_24-Pad24)*%
X90250000Y-65660000D03*
%TO.N,unconnected-(J2-Pin_25-Pad25)*%
X87710000Y-63120000D03*
%TO.N,unconnected-(J2-Pin_26-Pad26)*%
X90250000Y-63120000D03*
%TO.N,unconnected-(J2-Pin_27-Pad27)*%
X87710000Y-60580000D03*
%TO.N,unconnected-(J2-Pin_28-Pad28)*%
X90250000Y-60580000D03*
%TO.N,GPIO5*%
X87710000Y-58040000D03*
%TO.N,GND*%
X90250000Y-58040000D03*
%TO.N,GPIO6*%
X87710000Y-55500000D03*
%TO.N,unconnected-(J2-Pin_32-Pad32)*%
X90250000Y-55500000D03*
%TO.N,unconnected-(J2-Pin_33-Pad33)*%
X87710000Y-52960000D03*
%TO.N,GND*%
X90250000Y-52960000D03*
%TO.N,unconnected-(J2-Pin_35-Pad35)*%
X87710000Y-50420000D03*
%TO.N,GPIO16*%
X90250000Y-50420000D03*
%TO.N,unconnected-(J2-Pin_37-Pad37)*%
X87710000Y-47880000D03*
%TO.N,unconnected-(J2-Pin_38-Pad38)*%
X90250000Y-47880000D03*
%TO.N,unconnected-(J2-Pin_39-Pad39)*%
X87710000Y-45340000D03*
%TO.N,unconnected-(J2-Pin_40-Pad40)*%
X90250000Y-45340000D03*
%TD*%
D13*
%TO.N,N/C*%
%TO.C,H2*%
X89000000Y-98500000D03*
%TD*%
%TO.N,N/C*%
%TO.C,H4*%
X138000000Y-98500000D03*
%TD*%
D14*
%TO.N,+3V3*%
%TO.C,J3*%
X135977500Y-45990000D03*
D15*
%TO.N,GPIO16*%
X135977500Y-49490000D03*
%TO.N,GND*%
X135977500Y-52990000D03*
%TD*%
D14*
%TO.N,+3V3*%
%TO.C,J5*%
X136007500Y-69990000D03*
D15*
%TO.N,GPIO5*%
X136007500Y-73490000D03*
%TO.N,GND*%
X136007500Y-76990000D03*
%TD*%
D10*
%TO.N,GPIO24*%
%TO.C,R5*%
X122940000Y-87940000D03*
%TO.N,+3V3*%
X115320000Y-87940000D03*
%TD*%
D13*
%TO.N,N/C*%
%TO.C,H3*%
X138000000Y-40500000D03*
%TD*%
D14*
%TO.N,+3V3*%
%TO.C,J9*%
X104510000Y-96490000D03*
D15*
%TO.N,GPIO17*%
X101010000Y-96490000D03*
%TO.N,GND*%
X97510000Y-96490000D03*
%TD*%
D14*
%TO.N,+3V3*%
%TO.C,J6*%
X136000000Y-82000000D03*
D15*
%TO.N,GPIO25*%
X136000000Y-85500000D03*
%TO.N,GND*%
X136000000Y-89000000D03*
%TD*%
D10*
%TO.N,GPIO23*%
%TO.C,R6*%
X112180000Y-87940000D03*
%TO.N,+3V3*%
X104560000Y-87940000D03*
%TD*%
D14*
%TO.N,+3V3*%
%TO.C,J7*%
X128420000Y-96590000D03*
D15*
%TO.N,GPIO24*%
X124920000Y-96590000D03*
%TO.N,GND*%
X121420000Y-96590000D03*
%TD*%
D14*
%TO.N,+3V3*%
%TO.C,J8*%
X116520000Y-96537500D03*
D15*
%TO.N,GPIO23*%
X113020000Y-96537500D03*
%TO.N,GND*%
X109520000Y-96537500D03*
%TD*%
D14*
%TO.N,+3V3*%
%TO.C,J4*%
X136007500Y-57990000D03*
D15*
%TO.N,GPIO6*%
X136007500Y-61490000D03*
%TO.N,GND*%
X136007500Y-64990000D03*
%TD*%
D13*
%TO.N,N/C*%
%TO.C,H1*%
X89000000Y-40500000D03*
%TD*%
%TA.AperFunction,Conductor*%
%TO.N,GND*%
G36*
X89784075Y-88712993D02*
G01*
X89849901Y-88827007D01*
X89942993Y-88920099D01*
X90057007Y-88985925D01*
X90120590Y-89002962D01*
X89488282Y-89635269D01*
X89488282Y-89635270D01*
X89542452Y-89674626D01*
X89542451Y-89674626D01*
X89551495Y-89679234D01*
X89602292Y-89727208D01*
X89619087Y-89795029D01*
X89596550Y-89861164D01*
X89551499Y-89900202D01*
X89542182Y-89904949D01*
X89370213Y-90029890D01*
X89219890Y-90180213D01*
X89094949Y-90352182D01*
X89090484Y-90360946D01*
X89042509Y-90411742D01*
X88974688Y-90428536D01*
X88908553Y-90405998D01*
X88869516Y-90360946D01*
X88865050Y-90352182D01*
X88740109Y-90180213D01*
X88589786Y-90029890D01*
X88417820Y-89904951D01*
X88417115Y-89904591D01*
X88409054Y-89900485D01*
X88358259Y-89852512D01*
X88341463Y-89784692D01*
X88363999Y-89718556D01*
X88409054Y-89679515D01*
X88417816Y-89675051D01*
X88472572Y-89635269D01*
X88589786Y-89550109D01*
X88589788Y-89550106D01*
X88589792Y-89550104D01*
X88740104Y-89399792D01*
X88740106Y-89399788D01*
X88740109Y-89399786D01*
X88825890Y-89281717D01*
X88865051Y-89227816D01*
X88869793Y-89218508D01*
X88917763Y-89167711D01*
X88985583Y-89150911D01*
X89051719Y-89173445D01*
X89090763Y-89218500D01*
X89095373Y-89227547D01*
X89134728Y-89281716D01*
X89767037Y-88649408D01*
X89784075Y-88712993D01*
G37*
%TD.AperFunction*%
%TA.AperFunction,Conductor*%
G36*
X89051444Y-86633999D02*
G01*
X89090486Y-86679056D01*
X89094951Y-86687820D01*
X89219890Y-86859786D01*
X89370213Y-87010109D01*
X89542179Y-87135048D01*
X89542181Y-87135049D01*
X89542184Y-87135051D01*
X89551493Y-87139794D01*
X89602290Y-87187766D01*
X89619087Y-87255587D01*
X89596552Y-87321722D01*
X89551505Y-87360760D01*
X89542446Y-87365376D01*
X89542440Y-87365380D01*
X89488282Y-87404727D01*
X89488282Y-87404728D01*
X90120591Y-88037037D01*
X90057007Y-88054075D01*
X89942993Y-88119901D01*
X89849901Y-88212993D01*
X89784075Y-88327007D01*
X89767037Y-88390591D01*
X89134728Y-87758282D01*
X89134727Y-87758282D01*
X89095380Y-87812440D01*
X89095376Y-87812446D01*
X89090760Y-87821505D01*
X89042781Y-87872297D01*
X88974959Y-87889087D01*
X88908826Y-87866543D01*
X88869794Y-87821493D01*
X88865051Y-87812184D01*
X88865049Y-87812181D01*
X88865048Y-87812179D01*
X88740109Y-87640213D01*
X88589786Y-87489890D01*
X88417820Y-87364951D01*
X88409600Y-87360763D01*
X88409054Y-87360485D01*
X88358259Y-87312512D01*
X88341463Y-87244692D01*
X88363999Y-87178556D01*
X88409054Y-87139515D01*
X88417816Y-87135051D01*
X88475996Y-87092781D01*
X88589786Y-87010109D01*
X88589788Y-87010106D01*
X88589792Y-87010104D01*
X88740104Y-86859792D01*
X88740106Y-86859788D01*
X88740109Y-86859786D01*
X88865048Y-86687820D01*
X88865047Y-86687820D01*
X88865051Y-86687816D01*
X88869514Y-86679054D01*
X88917488Y-86628259D01*
X88985308Y-86611463D01*
X89051444Y-86633999D01*
G37*
%TD.AperFunction*%
%TA.AperFunction,Conductor*%
G36*
X89784075Y-78552993D02*
G01*
X89849901Y-78667007D01*
X89942993Y-78760099D01*
X90057007Y-78825925D01*
X90120590Y-78842962D01*
X89488282Y-79475269D01*
X89488282Y-79475270D01*
X89542452Y-79514626D01*
X89542451Y-79514626D01*
X89551495Y-79519234D01*
X89602292Y-79567208D01*
X89619087Y-79635029D01*
X89596550Y-79701164D01*
X89551499Y-79740202D01*
X89542182Y-79744949D01*
X89370213Y-79869890D01*
X89219890Y-80020213D01*
X89094949Y-80192182D01*
X89090484Y-80200946D01*
X89042509Y-80251742D01*
X88974688Y-80268536D01*
X88908553Y-80245998D01*
X88869516Y-80200946D01*
X88865050Y-80192182D01*
X88740109Y-80020213D01*
X88589786Y-79869890D01*
X88417820Y-79744951D01*
X88417115Y-79744591D01*
X88409054Y-79740485D01*
X88358259Y-79692512D01*
X88341463Y-79624692D01*
X88363999Y-79558556D01*
X88409054Y-79519515D01*
X88417816Y-79515051D01*
X88472572Y-79475269D01*
X88589786Y-79390109D01*
X88589788Y-79390106D01*
X88589792Y-79390104D01*
X88740104Y-79239792D01*
X88740106Y-79239788D01*
X88740109Y-79239786D01*
X88825890Y-79121717D01*
X88865051Y-79067816D01*
X88869793Y-79058508D01*
X88917763Y-79007711D01*
X88985583Y-78990911D01*
X89051719Y-79013445D01*
X89090763Y-79058500D01*
X89095373Y-79067547D01*
X89134728Y-79121716D01*
X89767037Y-78489408D01*
X89784075Y-78552993D01*
G37*
%TD.AperFunction*%
%TA.AperFunction,Conductor*%
G36*
X89051444Y-76473999D02*
G01*
X89090486Y-76519056D01*
X89094951Y-76527820D01*
X89219890Y-76699786D01*
X89370213Y-76850109D01*
X89542179Y-76975048D01*
X89542181Y-76975049D01*
X89542184Y-76975051D01*
X89551493Y-76979794D01*
X89602290Y-77027766D01*
X89619087Y-77095587D01*
X89596552Y-77161722D01*
X89551505Y-77200760D01*
X89542446Y-77205376D01*
X89542440Y-77205380D01*
X89488282Y-77244727D01*
X89488282Y-77244728D01*
X90120591Y-77877037D01*
X90057007Y-77894075D01*
X89942993Y-77959901D01*
X89849901Y-78052993D01*
X89784075Y-78167007D01*
X89767037Y-78230591D01*
X89134728Y-77598282D01*
X89134727Y-77598282D01*
X89095380Y-77652440D01*
X89095376Y-77652446D01*
X89090760Y-77661505D01*
X89042781Y-77712297D01*
X88974959Y-77729087D01*
X88908826Y-77706543D01*
X88869794Y-77661493D01*
X88865051Y-77652184D01*
X88865049Y-77652181D01*
X88865048Y-77652179D01*
X88740109Y-77480213D01*
X88589786Y-77329890D01*
X88417820Y-77204951D01*
X88409600Y-77200763D01*
X88409054Y-77200485D01*
X88358259Y-77152512D01*
X88341463Y-77084692D01*
X88363999Y-77018556D01*
X88409054Y-76979515D01*
X88417816Y-76975051D01*
X88439789Y-76959086D01*
X88589786Y-76850109D01*
X88589788Y-76850106D01*
X88589792Y-76850104D01*
X88740104Y-76699792D01*
X88740106Y-76699788D01*
X88740109Y-76699786D01*
X88865048Y-76527820D01*
X88865047Y-76527820D01*
X88865051Y-76527816D01*
X88869514Y-76519054D01*
X88917488Y-76468259D01*
X88985308Y-76451463D01*
X89051444Y-76473999D01*
G37*
%TD.AperFunction*%
%TA.AperFunction,Conductor*%
G36*
X89784075Y-70932993D02*
G01*
X89849901Y-71047007D01*
X89942993Y-71140099D01*
X90057007Y-71205925D01*
X90120590Y-71222962D01*
X89488282Y-71855269D01*
X89488282Y-71855270D01*
X89542452Y-71894626D01*
X89542451Y-71894626D01*
X89551495Y-71899234D01*
X89602292Y-71947208D01*
X89619087Y-72015029D01*
X89596550Y-72081164D01*
X89551499Y-72120202D01*
X89542182Y-72124949D01*
X89370213Y-72249890D01*
X89219890Y-72400213D01*
X89094949Y-72572182D01*
X89090484Y-72580946D01*
X89042509Y-72631742D01*
X88974688Y-72648536D01*
X88908553Y-72625998D01*
X88869516Y-72580946D01*
X88865050Y-72572182D01*
X88740109Y-72400213D01*
X88589786Y-72249890D01*
X88417820Y-72124951D01*
X88417115Y-72124591D01*
X88409054Y-72120485D01*
X88358259Y-72072512D01*
X88341463Y-72004692D01*
X88363999Y-71938556D01*
X88409054Y-71899515D01*
X88417816Y-71895051D01*
X88472572Y-71855269D01*
X88589786Y-71770109D01*
X88589788Y-71770106D01*
X88589792Y-71770104D01*
X88740104Y-71619792D01*
X88740106Y-71619788D01*
X88740109Y-71619786D01*
X88825890Y-71501717D01*
X88865051Y-71447816D01*
X88869793Y-71438508D01*
X88917763Y-71387711D01*
X88985583Y-71370911D01*
X89051719Y-71393445D01*
X89090763Y-71438500D01*
X89095373Y-71447547D01*
X89134728Y-71501716D01*
X89767037Y-70869408D01*
X89784075Y-70932993D01*
G37*
%TD.AperFunction*%
%TA.AperFunction,Conductor*%
G36*
X89051444Y-68853999D02*
G01*
X89090486Y-68899056D01*
X89094951Y-68907820D01*
X89219890Y-69079786D01*
X89370213Y-69230109D01*
X89542179Y-69355048D01*
X89542181Y-69355049D01*
X89542184Y-69355051D01*
X89551493Y-69359794D01*
X89602290Y-69407766D01*
X89619087Y-69475587D01*
X89596552Y-69541722D01*
X89551505Y-69580760D01*
X89542446Y-69585376D01*
X89542440Y-69585380D01*
X89488282Y-69624727D01*
X89488282Y-69624728D01*
X90120591Y-70257037D01*
X90057007Y-70274075D01*
X89942993Y-70339901D01*
X89849901Y-70432993D01*
X89784075Y-70547007D01*
X89767037Y-70610591D01*
X89134728Y-69978282D01*
X89134727Y-69978282D01*
X89095380Y-70032440D01*
X89095376Y-70032446D01*
X89090760Y-70041505D01*
X89042781Y-70092297D01*
X88974959Y-70109087D01*
X88908826Y-70086543D01*
X88869794Y-70041493D01*
X88865051Y-70032184D01*
X88865049Y-70032181D01*
X88865048Y-70032179D01*
X88740109Y-69860213D01*
X88589786Y-69709890D01*
X88417820Y-69584951D01*
X88409600Y-69580763D01*
X88409054Y-69580485D01*
X88358259Y-69532512D01*
X88341463Y-69464692D01*
X88363999Y-69398556D01*
X88409054Y-69359515D01*
X88417816Y-69355051D01*
X88439789Y-69339086D01*
X88589786Y-69230109D01*
X88589788Y-69230106D01*
X88589792Y-69230104D01*
X88740104Y-69079792D01*
X88740106Y-69079788D01*
X88740109Y-69079786D01*
X88865048Y-68907820D01*
X88865047Y-68907820D01*
X88865051Y-68907816D01*
X88869514Y-68899054D01*
X88917488Y-68848259D01*
X88985308Y-68831463D01*
X89051444Y-68853999D01*
G37*
%TD.AperFunction*%
%TA.AperFunction,Conductor*%
G36*
X89784075Y-58232993D02*
G01*
X89849901Y-58347007D01*
X89942993Y-58440099D01*
X90057007Y-58505925D01*
X90120590Y-58522962D01*
X89488282Y-59155269D01*
X89488282Y-59155270D01*
X89542452Y-59194626D01*
X89542451Y-59194626D01*
X89551495Y-59199234D01*
X89602292Y-59247208D01*
X89619087Y-59315029D01*
X89596550Y-59381164D01*
X89551499Y-59420202D01*
X89542182Y-59424949D01*
X89370213Y-59549890D01*
X89219890Y-59700213D01*
X89094949Y-59872182D01*
X89090484Y-59880946D01*
X89042509Y-59931742D01*
X88974688Y-59948536D01*
X88908553Y-59925998D01*
X88869516Y-59880946D01*
X88865050Y-59872182D01*
X88740109Y-59700213D01*
X88589786Y-59549890D01*
X88417820Y-59424951D01*
X88417115Y-59424591D01*
X88409054Y-59420485D01*
X88358259Y-59372512D01*
X88341463Y-59304692D01*
X88363999Y-59238556D01*
X88409054Y-59199515D01*
X88417816Y-59195051D01*
X88448794Y-59172544D01*
X88589786Y-59070109D01*
X88589788Y-59070106D01*
X88589792Y-59070104D01*
X88740104Y-58919792D01*
X88740106Y-58919788D01*
X88740109Y-58919786D01*
X88825890Y-58801717D01*
X88865051Y-58747816D01*
X88869793Y-58738508D01*
X88917763Y-58687711D01*
X88985583Y-58670911D01*
X89051719Y-58693445D01*
X89090763Y-58738500D01*
X89095373Y-58747547D01*
X89134728Y-58801716D01*
X89767037Y-58169408D01*
X89784075Y-58232993D01*
G37*
%TD.AperFunction*%
%TA.AperFunction,Conductor*%
G36*
X89051444Y-56153999D02*
G01*
X89090486Y-56199056D01*
X89094951Y-56207820D01*
X89219890Y-56379786D01*
X89370213Y-56530109D01*
X89542179Y-56655048D01*
X89542181Y-56655049D01*
X89542184Y-56655051D01*
X89551493Y-56659794D01*
X89602290Y-56707766D01*
X89619087Y-56775587D01*
X89596552Y-56841722D01*
X89551505Y-56880760D01*
X89542446Y-56885376D01*
X89542440Y-56885380D01*
X89488282Y-56924727D01*
X89488282Y-56924728D01*
X90120591Y-57557037D01*
X90057007Y-57574075D01*
X89942993Y-57639901D01*
X89849901Y-57732993D01*
X89784075Y-57847007D01*
X89767037Y-57910591D01*
X89134728Y-57278282D01*
X89134727Y-57278282D01*
X89095380Y-57332440D01*
X89095376Y-57332446D01*
X89090760Y-57341505D01*
X89042781Y-57392297D01*
X88974959Y-57409087D01*
X88908826Y-57386543D01*
X88869794Y-57341493D01*
X88865051Y-57332184D01*
X88865049Y-57332181D01*
X88865048Y-57332179D01*
X88740109Y-57160213D01*
X88589786Y-57009890D01*
X88417820Y-56884951D01*
X88409600Y-56880763D01*
X88409054Y-56880485D01*
X88358259Y-56832512D01*
X88341463Y-56764692D01*
X88363999Y-56698556D01*
X88409054Y-56659515D01*
X88417816Y-56655051D01*
X88523212Y-56578477D01*
X88589786Y-56530109D01*
X88589788Y-56530106D01*
X88589792Y-56530104D01*
X88740104Y-56379792D01*
X88740106Y-56379788D01*
X88740109Y-56379786D01*
X88865048Y-56207820D01*
X88865047Y-56207820D01*
X88865051Y-56207816D01*
X88869514Y-56199054D01*
X88917488Y-56148259D01*
X88985308Y-56131463D01*
X89051444Y-56153999D01*
G37*
%TD.AperFunction*%
%TA.AperFunction,Conductor*%
G36*
X89784075Y-53152993D02*
G01*
X89849901Y-53267007D01*
X89942993Y-53360099D01*
X90057007Y-53425925D01*
X90120590Y-53442962D01*
X89488282Y-54075269D01*
X89488282Y-54075270D01*
X89542452Y-54114626D01*
X89542451Y-54114626D01*
X89551495Y-54119234D01*
X89602292Y-54167208D01*
X89619087Y-54235029D01*
X89596550Y-54301164D01*
X89551499Y-54340202D01*
X89542182Y-54344949D01*
X89370213Y-54469890D01*
X89219890Y-54620213D01*
X89094949Y-54792182D01*
X89090484Y-54800946D01*
X89042509Y-54851742D01*
X88974688Y-54868536D01*
X88908553Y-54845998D01*
X88869516Y-54800946D01*
X88865050Y-54792182D01*
X88740109Y-54620213D01*
X88589786Y-54469890D01*
X88417820Y-54344951D01*
X88417115Y-54344591D01*
X88409054Y-54340485D01*
X88358259Y-54292512D01*
X88341463Y-54224692D01*
X88363999Y-54158556D01*
X88409054Y-54119515D01*
X88417816Y-54115051D01*
X88472572Y-54075269D01*
X88589786Y-53990109D01*
X88589788Y-53990106D01*
X88589792Y-53990104D01*
X88740104Y-53839792D01*
X88740106Y-53839788D01*
X88740109Y-53839786D01*
X88825890Y-53721717D01*
X88865051Y-53667816D01*
X88869793Y-53658508D01*
X88917763Y-53607711D01*
X88985583Y-53590911D01*
X89051719Y-53613445D01*
X89090763Y-53658500D01*
X89095373Y-53667547D01*
X89134728Y-53721716D01*
X89767037Y-53089408D01*
X89784075Y-53152993D01*
G37*
%TD.AperFunction*%
%TA.AperFunction,Conductor*%
G36*
X89051444Y-51073999D02*
G01*
X89090486Y-51119056D01*
X89094951Y-51127820D01*
X89219890Y-51299786D01*
X89370213Y-51450109D01*
X89542179Y-51575048D01*
X89542181Y-51575049D01*
X89542184Y-51575051D01*
X89551493Y-51579794D01*
X89602290Y-51627766D01*
X89619087Y-51695587D01*
X89596552Y-51761722D01*
X89551505Y-51800760D01*
X89542446Y-51805376D01*
X89542440Y-51805380D01*
X89488282Y-51844727D01*
X89488282Y-51844728D01*
X90120591Y-52477037D01*
X90057007Y-52494075D01*
X89942993Y-52559901D01*
X89849901Y-52652993D01*
X89784075Y-52767007D01*
X89767037Y-52830591D01*
X89134728Y-52198282D01*
X89134727Y-52198282D01*
X89095380Y-52252440D01*
X89095376Y-52252446D01*
X89090760Y-52261505D01*
X89042781Y-52312297D01*
X88974959Y-52329087D01*
X88908826Y-52306543D01*
X88869794Y-52261493D01*
X88865051Y-52252184D01*
X88865049Y-52252181D01*
X88865048Y-52252179D01*
X88740109Y-52080213D01*
X88589786Y-51929890D01*
X88417820Y-51804951D01*
X88409600Y-51800763D01*
X88409054Y-51800485D01*
X88358259Y-51752512D01*
X88341463Y-51684692D01*
X88363999Y-51618556D01*
X88409054Y-51579515D01*
X88417816Y-51575051D01*
X88439789Y-51559086D01*
X88589786Y-51450109D01*
X88589788Y-51450106D01*
X88589792Y-51450104D01*
X88740104Y-51299792D01*
X88740106Y-51299788D01*
X88740109Y-51299786D01*
X88865048Y-51127820D01*
X88865047Y-51127820D01*
X88865051Y-51127816D01*
X88869514Y-51119054D01*
X88917488Y-51068259D01*
X88985308Y-51051463D01*
X89051444Y-51073999D01*
G37*
%TD.AperFunction*%
%TA.AperFunction,Conductor*%
G36*
X136394687Y-37520185D02*
G01*
X136440442Y-37572989D01*
X136450386Y-37642147D01*
X136421361Y-37705703D01*
X136393620Y-37729494D01*
X136145045Y-37885684D01*
X135863997Y-38109811D01*
X135609811Y-38363997D01*
X135385684Y-38645045D01*
X135194432Y-38949420D01*
X135038465Y-39273288D01*
X134919741Y-39612580D01*
X134919737Y-39612592D01*
X134839748Y-39963048D01*
X134839746Y-39963064D01*
X134799500Y-40320259D01*
X134799500Y-40679740D01*
X134839746Y-41036935D01*
X134839748Y-41036951D01*
X134919737Y-41387407D01*
X134919741Y-41387419D01*
X135038465Y-41726711D01*
X135194432Y-42050579D01*
X135194434Y-42050582D01*
X135385685Y-42354956D01*
X135609812Y-42636003D01*
X135863997Y-42890188D01*
X136145044Y-43114315D01*
X136449418Y-43305566D01*
X136773292Y-43461536D01*
X137028119Y-43550703D01*
X137112580Y-43580258D01*
X137112592Y-43580262D01*
X137463052Y-43660252D01*
X137820260Y-43700499D01*
X137820261Y-43700500D01*
X137820264Y-43700500D01*
X138179739Y-43700500D01*
X138179739Y-43700499D01*
X138536948Y-43660252D01*
X138887408Y-43580262D01*
X139226708Y-43461536D01*
X139550582Y-43305566D01*
X139854956Y-43114315D01*
X140136003Y-42890188D01*
X140390188Y-42636003D01*
X140614315Y-42354956D01*
X140770506Y-42106378D01*
X140822841Y-42060088D01*
X140891894Y-42049440D01*
X140955743Y-42077815D01*
X140994115Y-42136204D01*
X140999500Y-42172351D01*
X140999500Y-96827648D01*
X140979815Y-96894687D01*
X140927011Y-96940442D01*
X140857853Y-96950386D01*
X140794297Y-96921361D01*
X140770506Y-96893620D01*
X140728281Y-96826420D01*
X140614315Y-96645044D01*
X140390188Y-96363997D01*
X140136003Y-96109812D01*
X139854956Y-95885685D01*
X139632934Y-95746179D01*
X139550579Y-95694432D01*
X139226711Y-95538465D01*
X138887419Y-95419741D01*
X138887407Y-95419737D01*
X138536951Y-95339748D01*
X138536935Y-95339746D01*
X138179740Y-95299500D01*
X138179736Y-95299500D01*
X137820264Y-95299500D01*
X137820259Y-95299500D01*
X137463064Y-95339746D01*
X137463048Y-95339748D01*
X137112592Y-95419737D01*
X137112580Y-95419741D01*
X136773288Y-95538465D01*
X136449420Y-95694432D01*
X136145045Y-95885684D01*
X135863997Y-96109811D01*
X135609811Y-96363997D01*
X135385684Y-96645045D01*
X135194432Y-96949420D01*
X135038465Y-97273288D01*
X134919741Y-97612580D01*
X134919737Y-97612592D01*
X134839748Y-97963048D01*
X134839746Y-97963064D01*
X134799500Y-98320259D01*
X134799500Y-98679740D01*
X134839746Y-99036935D01*
X134839748Y-99036951D01*
X134919737Y-99387407D01*
X134919741Y-99387419D01*
X135038465Y-99726711D01*
X135194432Y-100050579D01*
X135194434Y-100050582D01*
X135385685Y-100354956D01*
X135609812Y-100636003D01*
X135863997Y-100890188D01*
X136145044Y-101114315D01*
X136326420Y-101228281D01*
X136393620Y-101270506D01*
X136439911Y-101322841D01*
X136450559Y-101391894D01*
X136422184Y-101455743D01*
X136363794Y-101494115D01*
X136327648Y-101499500D01*
X90672352Y-101499500D01*
X90605313Y-101479815D01*
X90559558Y-101427011D01*
X90549614Y-101357853D01*
X90578639Y-101294297D01*
X90606380Y-101270506D01*
X90645230Y-101246094D01*
X90854956Y-101114315D01*
X91136003Y-100890188D01*
X91390188Y-100636003D01*
X91614315Y-100354956D01*
X91805566Y-100050582D01*
X91961536Y-99726708D01*
X92080262Y-99387408D01*
X92160252Y-99036948D01*
X92200500Y-98679736D01*
X92200500Y-98320264D01*
X92160252Y-97963052D01*
X92080262Y-97612592D01*
X92060925Y-97557331D01*
X92009502Y-97410372D01*
X91961536Y-97273292D01*
X91819143Y-96977610D01*
X91805567Y-96949420D01*
X91793434Y-96930110D01*
X91614315Y-96645044D01*
X91465280Y-96458160D01*
X91465280Y-96458158D01*
X91407513Y-96385720D01*
X96185000Y-96385720D01*
X96185000Y-96594279D01*
X96217626Y-96800272D01*
X96282075Y-96998627D01*
X96376759Y-97184451D01*
X96412627Y-97233818D01*
X96412627Y-97233819D01*
X96986212Y-96660234D01*
X96997482Y-96702292D01*
X97069890Y-96827708D01*
X97172292Y-96930110D01*
X97297708Y-97002518D01*
X97339765Y-97013787D01*
X96766179Y-97587371D01*
X96766180Y-97587372D01*
X96815543Y-97623236D01*
X96815556Y-97623244D01*
X97001372Y-97717924D01*
X97199727Y-97782373D01*
X97405721Y-97815000D01*
X97614279Y-97815000D01*
X97820272Y-97782373D01*
X98018627Y-97717924D01*
X98204451Y-97623240D01*
X98253818Y-97587372D01*
X98253818Y-97587371D01*
X97680234Y-97013787D01*
X97722292Y-97002518D01*
X97847708Y-96930110D01*
X97950110Y-96827708D01*
X98022518Y-96702292D01*
X98033787Y-96660234D01*
X98607371Y-97233818D01*
X98607372Y-97233818D01*
X98643240Y-97184451D01*
X98737924Y-96998627D01*
X98802373Y-96800272D01*
X98835000Y-96594279D01*
X98835000Y-96385720D01*
X98834993Y-96385675D01*
X99684500Y-96385675D01*
X99684500Y-96594324D01*
X99717137Y-96800389D01*
X99781612Y-96998820D01*
X99832563Y-97098816D01*
X99876330Y-97184714D01*
X99998965Y-97353505D01*
X100146495Y-97501035D01*
X100315286Y-97623670D01*
X100381344Y-97657328D01*
X100501179Y-97718387D01*
X100501181Y-97718387D01*
X100501184Y-97718389D01*
X100607545Y-97752948D01*
X100699610Y-97782862D01*
X100905676Y-97815500D01*
X100905681Y-97815500D01*
X101114324Y-97815500D01*
X101320389Y-97782862D01*
X101372626Y-97765889D01*
X101518816Y-97718389D01*
X101704714Y-97623670D01*
X101873505Y-97501035D01*
X102021035Y-97353505D01*
X102143670Y-97184714D01*
X102238389Y-96998816D01*
X102302862Y-96800389D01*
X102327466Y-96645045D01*
X102335500Y-96594324D01*
X102335500Y-96385675D01*
X102302862Y-96179610D01*
X102260713Y-96049890D01*
X102238389Y-95981184D01*
X102238387Y-95981181D01*
X102238387Y-95981179D01*
X102188421Y-95883116D01*
X102143670Y-95795286D01*
X102064770Y-95686691D01*
X102064770Y-95686689D01*
X102021039Y-95626501D01*
X102021035Y-95626495D01*
X102011675Y-95617135D01*
X103184500Y-95617135D01*
X103184500Y-97362870D01*
X103184501Y-97362876D01*
X103190908Y-97422483D01*
X103241202Y-97557328D01*
X103241206Y-97557335D01*
X103327452Y-97672544D01*
X103327455Y-97672547D01*
X103442664Y-97758793D01*
X103442671Y-97758797D01*
X103577517Y-97809091D01*
X103577516Y-97809091D01*
X103584444Y-97809835D01*
X103637127Y-97815500D01*
X105382872Y-97815499D01*
X105442483Y-97809091D01*
X105577331Y-97758796D01*
X105692546Y-97672546D01*
X105778796Y-97557331D01*
X105829091Y-97422483D01*
X105835500Y-97362873D01*
X105835499Y-96433220D01*
X108195000Y-96433220D01*
X108195000Y-96641779D01*
X108227626Y-96847772D01*
X108292075Y-97046127D01*
X108386759Y-97231951D01*
X108422627Y-97281318D01*
X108422627Y-97281319D01*
X108996212Y-96707734D01*
X109007482Y-96749792D01*
X109079890Y-96875208D01*
X109182292Y-96977610D01*
X109307708Y-97050018D01*
X109349765Y-97061287D01*
X108776179Y-97634871D01*
X108776180Y-97634872D01*
X108825543Y-97670736D01*
X108825556Y-97670744D01*
X109011372Y-97765424D01*
X109209727Y-97829873D01*
X109415721Y-97862500D01*
X109624279Y-97862500D01*
X109830272Y-97829873D01*
X110028627Y-97765424D01*
X110214451Y-97670740D01*
X110263818Y-97634872D01*
X110263818Y-97634871D01*
X109690234Y-97061287D01*
X109732292Y-97050018D01*
X109857708Y-96977610D01*
X109960110Y-96875208D01*
X110032518Y-96749792D01*
X110043787Y-96707734D01*
X110617371Y-97281318D01*
X110617372Y-97281318D01*
X110653240Y-97231951D01*
X110747924Y-97046127D01*
X110812373Y-96847772D01*
X110845000Y-96641779D01*
X110845000Y-96433220D01*
X110844993Y-96433175D01*
X111694500Y-96433175D01*
X111694500Y-96641824D01*
X111727137Y-96847889D01*
X111791612Y-97046320D01*
X111886196Y-97231951D01*
X111886330Y-97232214D01*
X112008965Y-97401005D01*
X112156495Y-97548535D01*
X112325286Y-97671170D01*
X112413116Y-97715921D01*
X112511179Y-97765887D01*
X112511181Y-97765887D01*
X112511184Y-97765889D01*
X112617545Y-97800448D01*
X112709610Y-97830362D01*
X112915676Y-97863000D01*
X112915681Y-97863000D01*
X113124324Y-97863000D01*
X113330389Y-97830362D01*
X113376132Y-97815499D01*
X113528816Y-97765889D01*
X113714714Y-97671170D01*
X113883505Y-97548535D01*
X114031035Y-97401005D01*
X114153670Y-97232214D01*
X114248389Y-97046316D01*
X114312862Y-96847889D01*
X114328399Y-96749792D01*
X114345500Y-96641824D01*
X114345500Y-96433175D01*
X114312862Y-96227110D01*
X114255279Y-96049890D01*
X114248389Y-96028684D01*
X114248387Y-96028681D01*
X114248387Y-96028679D01*
X114155399Y-95846180D01*
X114153670Y-95842786D01*
X114074770Y-95734191D01*
X114074770Y-95734189D01*
X114031039Y-95674001D01*
X114031035Y-95673995D01*
X114021675Y-95664635D01*
X115194500Y-95664635D01*
X115194500Y-97410370D01*
X115194501Y-97410376D01*
X115200908Y-97469983D01*
X115251202Y-97604828D01*
X115251206Y-97604835D01*
X115337452Y-97720044D01*
X115337455Y-97720047D01*
X115452664Y-97806293D01*
X115452671Y-97806297D01*
X115587517Y-97856591D01*
X115587516Y-97856591D01*
X115594444Y-97857335D01*
X115647127Y-97863000D01*
X117392872Y-97862999D01*
X117452483Y-97856591D01*
X117587331Y-97806296D01*
X117702546Y-97720046D01*
X117788796Y-97604831D01*
X117790213Y-97601033D01*
X117791801Y-97596777D01*
X117839091Y-97469982D01*
X117839855Y-97462873D01*
X117845500Y-97410373D01*
X117845499Y-96485720D01*
X120095000Y-96485720D01*
X120095000Y-96694279D01*
X120127626Y-96900272D01*
X120192075Y-97098627D01*
X120286759Y-97284451D01*
X120322627Y-97333818D01*
X120322627Y-97333819D01*
X120896212Y-96760234D01*
X120907482Y-96802292D01*
X120979890Y-96927708D01*
X121082292Y-97030110D01*
X121207708Y-97102518D01*
X121249765Y-97113787D01*
X120676179Y-97687371D01*
X120676180Y-97687372D01*
X120725543Y-97723236D01*
X120725556Y-97723244D01*
X120911372Y-97817924D01*
X121109727Y-97882373D01*
X121315721Y-97915000D01*
X121524279Y-97915000D01*
X121730272Y-97882373D01*
X121928627Y-97817924D01*
X122114451Y-97723240D01*
X122163818Y-97687372D01*
X122163818Y-97687371D01*
X121590234Y-97113787D01*
X121632292Y-97102518D01*
X121757708Y-97030110D01*
X121860110Y-96927708D01*
X121932518Y-96802292D01*
X121943787Y-96760234D01*
X122517371Y-97333818D01*
X122517372Y-97333818D01*
X122553240Y-97284451D01*
X122647924Y-97098627D01*
X122712373Y-96900272D01*
X122745000Y-96694279D01*
X122745000Y-96485720D01*
X122744993Y-96485675D01*
X123594500Y-96485675D01*
X123594500Y-96694324D01*
X123627137Y-96900389D01*
X123691612Y-97098820D01*
X123759446Y-97231951D01*
X123786330Y-97284714D01*
X123908965Y-97453505D01*
X124056495Y-97601035D01*
X124225286Y-97723670D01*
X124308142Y-97765887D01*
X124411179Y-97818387D01*
X124411181Y-97818387D01*
X124411184Y-97818389D01*
X124517545Y-97852948D01*
X124609610Y-97882862D01*
X124815676Y-97915500D01*
X124815681Y-97915500D01*
X125024324Y-97915500D01*
X125230389Y-97882862D01*
X125231894Y-97882373D01*
X125428816Y-97818389D01*
X125614714Y-97723670D01*
X125783505Y-97601035D01*
X125931035Y-97453505D01*
X126053670Y-97284714D01*
X126148389Y-97098816D01*
X126212862Y-96900389D01*
X126221864Y-96843553D01*
X126245500Y-96694324D01*
X126245500Y-96485675D01*
X126212862Y-96279610D01*
X126157690Y-96109811D01*
X126148389Y-96081184D01*
X126148387Y-96081181D01*
X126148387Y-96081179D01*
X126095551Y-95977482D01*
X126053670Y-95895286D01*
X125974770Y-95786691D01*
X125974770Y-95786689D01*
X125931039Y-95726501D01*
X125931035Y-95726495D01*
X125921675Y-95717135D01*
X127094500Y-95717135D01*
X127094500Y-97462870D01*
X127094501Y-97462876D01*
X127100908Y-97522483D01*
X127151202Y-97657328D01*
X127151206Y-97657335D01*
X127237452Y-97772544D01*
X127237455Y-97772547D01*
X127352664Y-97858793D01*
X127352671Y-97858797D01*
X127487517Y-97909091D01*
X127487516Y-97909091D01*
X127494444Y-97909835D01*
X127547127Y-97915500D01*
X129292872Y-97915499D01*
X129352483Y-97909091D01*
X129487331Y-97858796D01*
X129602546Y-97772546D01*
X129688796Y-97657331D01*
X129739091Y-97522483D01*
X129745500Y-97462873D01*
X129745499Y-95717128D01*
X129739091Y-95657517D01*
X129727519Y-95626492D01*
X129688797Y-95522671D01*
X129688793Y-95522664D01*
X129602547Y-95407455D01*
X129602544Y-95407452D01*
X129487335Y-95321206D01*
X129487328Y-95321202D01*
X129352482Y-95270908D01*
X129352483Y-95270908D01*
X129292883Y-95264501D01*
X129292881Y-95264500D01*
X129292873Y-95264500D01*
X129292864Y-95264500D01*
X127547129Y-95264500D01*
X127547123Y-95264501D01*
X127487516Y-95270908D01*
X127352671Y-95321202D01*
X127352664Y-95321206D01*
X127237455Y-95407452D01*
X127237452Y-95407455D01*
X127151206Y-95522664D01*
X127151202Y-95522671D01*
X127100908Y-95657517D01*
X127094501Y-95717116D01*
X127094501Y-95717123D01*
X127094500Y-95717135D01*
X125921675Y-95717135D01*
X125783505Y-95578965D01*
X125614714Y-95456330D01*
X125582914Y-95440127D01*
X125428820Y-95361612D01*
X125230389Y-95297137D01*
X125024324Y-95264500D01*
X125024319Y-95264500D01*
X124815681Y-95264500D01*
X124815676Y-95264500D01*
X124609610Y-95297137D01*
X124411179Y-95361612D01*
X124225285Y-95456330D01*
X124056493Y-95578966D01*
X123908966Y-95726493D01*
X123786330Y-95895285D01*
X123691612Y-96081179D01*
X123627137Y-96279610D01*
X123594500Y-96485675D01*
X122744993Y-96485675D01*
X122712373Y-96279727D01*
X122647924Y-96081372D01*
X122553244Y-95895556D01*
X122553236Y-95895543D01*
X122517372Y-95846180D01*
X122517371Y-95846179D01*
X121943787Y-96419764D01*
X121932518Y-96377708D01*
X121860110Y-96252292D01*
X121757708Y-96149890D01*
X121632292Y-96077482D01*
X121590233Y-96066212D01*
X122163819Y-95492627D01*
X122114451Y-95456759D01*
X121928627Y-95362075D01*
X121730272Y-95297626D01*
X121524279Y-95265000D01*
X121315721Y-95265000D01*
X121109727Y-95297626D01*
X120911372Y-95362075D01*
X120725552Y-95456757D01*
X120676180Y-95492627D01*
X121249766Y-96066212D01*
X121207708Y-96077482D01*
X121082292Y-96149890D01*
X120979890Y-96252292D01*
X120907482Y-96377708D01*
X120896212Y-96419765D01*
X120322627Y-95846180D01*
X120286757Y-95895552D01*
X120192075Y-96081372D01*
X120127626Y-96279727D01*
X120095000Y-96485720D01*
X117845499Y-96485720D01*
X117845499Y-95664628D01*
X117839091Y-95605017D01*
X117814269Y-95538465D01*
X117788797Y-95470171D01*
X117788793Y-95470164D01*
X117702547Y-95354955D01*
X117702544Y-95354952D01*
X117587335Y-95268706D01*
X117587328Y-95268702D01*
X117452482Y-95218408D01*
X117452483Y-95218408D01*
X117392883Y-95212001D01*
X117392881Y-95212000D01*
X117392873Y-95212000D01*
X117392864Y-95212000D01*
X115647129Y-95212000D01*
X115647123Y-95212001D01*
X115587516Y-95218408D01*
X115452671Y-95268702D01*
X115452664Y-95268706D01*
X115337455Y-95354952D01*
X115337452Y-95354955D01*
X115251206Y-95470164D01*
X115251202Y-95470171D01*
X115200908Y-95605017D01*
X115195264Y-95657517D01*
X115194501Y-95664623D01*
X115194500Y-95664635D01*
X114021675Y-95664635D01*
X113883505Y-95526465D01*
X113714714Y-95403830D01*
X113632765Y-95362075D01*
X113528820Y-95309112D01*
X113330389Y-95244637D01*
X113124324Y-95212000D01*
X113124319Y-95212000D01*
X112915681Y-95212000D01*
X112915676Y-95212000D01*
X112709610Y-95244637D01*
X112511179Y-95309112D01*
X112325285Y-95403830D01*
X112156493Y-95526466D01*
X112008966Y-95673993D01*
X111886330Y-95842785D01*
X111791612Y-96028679D01*
X111727137Y-96227110D01*
X111694500Y-96433175D01*
X110844993Y-96433175D01*
X110812373Y-96227227D01*
X110747924Y-96028872D01*
X110653244Y-95843056D01*
X110653236Y-95843043D01*
X110617372Y-95793680D01*
X110617371Y-95793679D01*
X110043787Y-96367264D01*
X110032518Y-96325208D01*
X109960110Y-96199792D01*
X109857708Y-96097390D01*
X109732292Y-96024982D01*
X109690233Y-96013712D01*
X110263819Y-95440127D01*
X110214451Y-95404259D01*
X110028627Y-95309575D01*
X109830272Y-95245126D01*
X109624279Y-95212500D01*
X109415721Y-95212500D01*
X109209727Y-95245126D01*
X109011372Y-95309575D01*
X108825552Y-95404257D01*
X108776180Y-95440127D01*
X109349766Y-96013712D01*
X109307708Y-96024982D01*
X109182292Y-96097390D01*
X109079890Y-96199792D01*
X109007482Y-96325208D01*
X108996212Y-96367265D01*
X108422627Y-95793680D01*
X108386757Y-95843052D01*
X108292075Y-96028872D01*
X108227626Y-96227227D01*
X108195000Y-96433220D01*
X105835499Y-96433220D01*
X105835499Y-95617128D01*
X105829091Y-95557517D01*
X105790382Y-95453733D01*
X105778797Y-95422671D01*
X105778793Y-95422664D01*
X105692547Y-95307455D01*
X105692544Y-95307452D01*
X105577335Y-95221206D01*
X105577328Y-95221202D01*
X105442482Y-95170908D01*
X105442483Y-95170908D01*
X105382883Y-95164501D01*
X105382881Y-95164500D01*
X105382873Y-95164500D01*
X105382864Y-95164500D01*
X103637129Y-95164500D01*
X103637123Y-95164501D01*
X103577516Y-95170908D01*
X103442671Y-95221202D01*
X103442664Y-95221206D01*
X103327455Y-95307452D01*
X103327452Y-95307455D01*
X103241206Y-95422664D01*
X103241202Y-95422671D01*
X103190908Y-95557517D01*
X103185802Y-95605016D01*
X103184501Y-95617123D01*
X103184500Y-95617135D01*
X102011675Y-95617135D01*
X101873505Y-95478965D01*
X101704714Y-95356330D01*
X101635779Y-95321206D01*
X101518820Y-95261612D01*
X101320389Y-95197137D01*
X101114324Y-95164500D01*
X101114319Y-95164500D01*
X100905681Y-95164500D01*
X100905676Y-95164500D01*
X100699610Y-95197137D01*
X100501179Y-95261612D01*
X100315285Y-95356330D01*
X100146493Y-95478966D01*
X99998966Y-95626493D01*
X99876330Y-95795285D01*
X99781612Y-95981179D01*
X99717137Y-96179610D01*
X99684500Y-96385675D01*
X98834993Y-96385675D01*
X98802373Y-96179727D01*
X98737924Y-95981372D01*
X98643244Y-95795556D01*
X98643236Y-95795543D01*
X98607372Y-95746180D01*
X98607371Y-95746179D01*
X98033787Y-96319764D01*
X98022518Y-96277708D01*
X97950110Y-96152292D01*
X97847708Y-96049890D01*
X97722292Y-95977482D01*
X97680233Y-95966212D01*
X98253819Y-95392627D01*
X98204451Y-95356759D01*
X98018627Y-95262075D01*
X97820272Y-95197626D01*
X97614279Y-95165000D01*
X97405721Y-95165000D01*
X97199727Y-95197626D01*
X97001372Y-95262075D01*
X96815552Y-95356757D01*
X96766180Y-95392627D01*
X97339766Y-95966212D01*
X97297708Y-95977482D01*
X97172292Y-96049890D01*
X97069890Y-96152292D01*
X96997482Y-96277708D01*
X96986212Y-96319765D01*
X96412627Y-95746180D01*
X96376757Y-95795552D01*
X96282075Y-95981372D01*
X96217626Y-96179727D01*
X96185000Y-96385720D01*
X91407513Y-96385720D01*
X91390194Y-96364003D01*
X91136002Y-96109811D01*
X90923065Y-95940000D01*
X90854956Y-95885685D01*
X90632934Y-95746179D01*
X90550579Y-95694432D01*
X90253998Y-95551606D01*
X90226711Y-95538465D01*
X89887419Y-95419741D01*
X89887407Y-95419737D01*
X89536951Y-95339748D01*
X89536935Y-95339746D01*
X89179740Y-95299500D01*
X89179736Y-95299500D01*
X88820264Y-95299500D01*
X88820259Y-95299500D01*
X88463064Y-95339746D01*
X88463048Y-95339748D01*
X88112592Y-95419737D01*
X88112580Y-95419741D01*
X87773288Y-95538465D01*
X87449420Y-95694432D01*
X87145045Y-95885684D01*
X86863997Y-96109811D01*
X86609811Y-96363997D01*
X86385684Y-96645045D01*
X86229494Y-96893620D01*
X86177159Y-96939911D01*
X86108106Y-96950559D01*
X86044257Y-96922184D01*
X86005885Y-96863794D01*
X86000500Y-96827648D01*
X86000500Y-45233713D01*
X86359500Y-45233713D01*
X86359500Y-45446286D01*
X86392753Y-45656239D01*
X86458444Y-45858414D01*
X86554951Y-46047820D01*
X86679890Y-46219786D01*
X86830213Y-46370109D01*
X87002182Y-46495050D01*
X87010946Y-46499516D01*
X87061742Y-46547491D01*
X87078536Y-46615312D01*
X87055998Y-46681447D01*
X87010946Y-46720484D01*
X87002182Y-46724949D01*
X86830213Y-46849890D01*
X86679890Y-47000213D01*
X86554951Y-47172179D01*
X86458444Y-47361585D01*
X86392753Y-47563760D01*
X86388970Y-47587648D01*
X86359500Y-47773713D01*
X86359500Y-47986287D01*
X86392754Y-48196243D01*
X86449735Y-48371613D01*
X86458444Y-48398414D01*
X86554951Y-48587820D01*
X86679890Y-48759786D01*
X86830213Y-48910109D01*
X87002182Y-49035050D01*
X87010946Y-49039516D01*
X87061742Y-49087491D01*
X87078536Y-49155312D01*
X87055998Y-49221447D01*
X87010946Y-49260484D01*
X87002182Y-49264949D01*
X86830213Y-49389890D01*
X86679890Y-49540213D01*
X86554951Y-49712179D01*
X86458444Y-49901585D01*
X86392753Y-50103760D01*
X86359500Y-50313713D01*
X86359500Y-50526287D01*
X86392754Y-50736243D01*
X86418506Y-50815500D01*
X86458444Y-50938414D01*
X86554951Y-51127820D01*
X86679890Y-51299786D01*
X86830213Y-51450109D01*
X87002182Y-51575050D01*
X87010946Y-51579516D01*
X87061742Y-51627491D01*
X87078536Y-51695312D01*
X87055998Y-51761447D01*
X87010946Y-51800484D01*
X87002182Y-51804949D01*
X86830213Y-51929890D01*
X86679890Y-52080213D01*
X86554951Y-52252179D01*
X86458444Y-52441585D01*
X86392753Y-52643760D01*
X86359500Y-52853713D01*
X86359500Y-53066286D01*
X86392735Y-53276127D01*
X86392754Y-53276243D01*
X86414624Y-53343553D01*
X86458444Y-53478414D01*
X86554951Y-53667820D01*
X86679890Y-53839786D01*
X86830213Y-53990109D01*
X87002182Y-54115050D01*
X87010946Y-54119516D01*
X87061742Y-54167491D01*
X87078536Y-54235312D01*
X87055998Y-54301447D01*
X87010946Y-54340484D01*
X87002182Y-54344949D01*
X86830213Y-54469890D01*
X86679890Y-54620213D01*
X86554951Y-54792179D01*
X86458444Y-54981585D01*
X86392753Y-55183760D01*
X86388970Y-55207648D01*
X86359500Y-55393713D01*
X86359500Y-55606287D01*
X86392754Y-55816243D01*
X86449735Y-55991613D01*
X86458444Y-56018414D01*
X86554951Y-56207820D01*
X86679890Y-56379786D01*
X86830213Y-56530109D01*
X87002182Y-56655050D01*
X87010946Y-56659516D01*
X87061742Y-56707491D01*
X87078536Y-56775312D01*
X87055998Y-56841447D01*
X87010946Y-56880484D01*
X87002182Y-56884949D01*
X86830213Y-57009890D01*
X86679890Y-57160213D01*
X86554951Y-57332179D01*
X86458444Y-57521585D01*
X86392753Y-57723760D01*
X86359500Y-57933713D01*
X86359500Y-58146286D01*
X86392753Y-58356239D01*
X86458444Y-58558414D01*
X86554951Y-58747820D01*
X86679890Y-58919786D01*
X86830213Y-59070109D01*
X87002182Y-59195050D01*
X87010946Y-59199516D01*
X87061742Y-59247491D01*
X87078536Y-59315312D01*
X87055998Y-59381447D01*
X87010946Y-59420484D01*
X87002182Y-59424949D01*
X86830213Y-59549890D01*
X86679890Y-59700213D01*
X86554951Y-59872179D01*
X86458444Y-60061585D01*
X86392753Y-60263760D01*
X86359500Y-60473713D01*
X86359500Y-60686286D01*
X86392753Y-60896239D01*
X86458444Y-61098414D01*
X86554951Y-61287820D01*
X86679890Y-61459786D01*
X86830213Y-61610109D01*
X87002182Y-61735050D01*
X87010946Y-61739516D01*
X87061742Y-61787491D01*
X87078536Y-61855312D01*
X87055998Y-61921447D01*
X87010946Y-61960484D01*
X87002182Y-61964949D01*
X86830213Y-62089890D01*
X86679890Y-62240213D01*
X86554951Y-62412179D01*
X86458444Y-62601585D01*
X86392753Y-62803760D01*
X86359500Y-63013713D01*
X86359500Y-63226286D01*
X86392753Y-63436239D01*
X86458444Y-63638414D01*
X86554951Y-63827820D01*
X86679890Y-63999786D01*
X86830213Y-64150109D01*
X87002182Y-64275050D01*
X87010946Y-64279516D01*
X87061742Y-64327491D01*
X87078536Y-64395312D01*
X87055998Y-64461447D01*
X87010946Y-64500484D01*
X87002182Y-64504949D01*
X86830213Y-64629890D01*
X86679890Y-64780213D01*
X86554951Y-64952179D01*
X86458444Y-65141585D01*
X86392753Y-65343760D01*
X86361672Y-65540000D01*
X86359500Y-65553713D01*
X86359500Y-65766287D01*
X86392754Y-65976243D01*
X86440516Y-66123240D01*
X86458444Y-66178414D01*
X86554951Y-66367820D01*
X86679890Y-66539786D01*
X86830213Y-66690109D01*
X87002182Y-66815050D01*
X87010946Y-66819516D01*
X87061742Y-66867491D01*
X87078536Y-66935312D01*
X87055998Y-67001447D01*
X87010946Y-67040484D01*
X87002182Y-67044949D01*
X86830213Y-67169890D01*
X86679890Y-67320213D01*
X86554951Y-67492179D01*
X86458444Y-67681585D01*
X86392753Y-67883760D01*
X86371782Y-68016167D01*
X86359500Y-68093713D01*
X86359500Y-68306287D01*
X86392754Y-68516243D01*
X86443008Y-68670909D01*
X86458444Y-68718414D01*
X86554951Y-68907820D01*
X86679890Y-69079786D01*
X86830213Y-69230109D01*
X87002182Y-69355050D01*
X87010946Y-69359516D01*
X87061742Y-69407491D01*
X87078536Y-69475312D01*
X87055998Y-69541447D01*
X87010946Y-69580484D01*
X87002182Y-69584949D01*
X86830213Y-69709890D01*
X86679890Y-69860213D01*
X86554951Y-70032179D01*
X86458444Y-70221585D01*
X86392753Y-70423760D01*
X86373233Y-70547007D01*
X86359500Y-70633713D01*
X86359500Y-70846287D01*
X86362129Y-70862883D01*
X86392735Y-71056127D01*
X86392754Y-71056243D01*
X86430543Y-71172546D01*
X86458444Y-71258414D01*
X86554951Y-71447820D01*
X86679890Y-71619786D01*
X86830213Y-71770109D01*
X87002182Y-71895050D01*
X87010946Y-71899516D01*
X87061742Y-71947491D01*
X87078536Y-72015312D01*
X87055998Y-72081447D01*
X87010946Y-72120484D01*
X87002182Y-72124949D01*
X86830213Y-72249890D01*
X86679890Y-72400213D01*
X86554951Y-72572179D01*
X86458444Y-72761585D01*
X86392753Y-72963760D01*
X86359500Y-73173713D01*
X86359500Y-73386286D01*
X86392753Y-73596239D01*
X86458444Y-73798414D01*
X86554951Y-73987820D01*
X86679890Y-74159786D01*
X86830213Y-74310109D01*
X87002182Y-74435050D01*
X87010946Y-74439516D01*
X87061742Y-74487491D01*
X87078536Y-74555312D01*
X87055998Y-74621447D01*
X87010946Y-74660484D01*
X87002182Y-74664949D01*
X86830213Y-74789890D01*
X86679890Y-74940213D01*
X86554951Y-75112179D01*
X86458444Y-75301585D01*
X86392753Y-75503760D01*
X86371782Y-75636167D01*
X86359500Y-75713713D01*
X86359500Y-75926287D01*
X86392754Y-76136243D01*
X86444518Y-76295556D01*
X86458444Y-76338414D01*
X86554951Y-76527820D01*
X86679890Y-76699786D01*
X86830213Y-76850109D01*
X87002182Y-76975050D01*
X87010946Y-76979516D01*
X87061742Y-77027491D01*
X87078536Y-77095312D01*
X87055998Y-77161447D01*
X87010946Y-77200484D01*
X87002182Y-77204949D01*
X86830213Y-77329890D01*
X86679890Y-77480213D01*
X86554951Y-77652179D01*
X86458444Y-77841585D01*
X86392753Y-78043760D01*
X86359500Y-78253713D01*
X86359500Y-78466286D01*
X86392753Y-78676239D01*
X86458444Y-78878414D01*
X86554951Y-79067820D01*
X86679890Y-79239786D01*
X86830213Y-79390109D01*
X87002182Y-79515050D01*
X87010946Y-79519516D01*
X87061742Y-79567491D01*
X87078536Y-79635312D01*
X87055998Y-79701447D01*
X87010946Y-79740484D01*
X87002182Y-79744949D01*
X86830213Y-79869890D01*
X86679890Y-80020213D01*
X86554951Y-80192179D01*
X86458444Y-80381585D01*
X86392753Y-80583760D01*
X86359500Y-80793713D01*
X86359500Y-81006286D01*
X86382517Y-81151613D01*
X86392754Y-81216243D01*
X86425563Y-81317219D01*
X86458444Y-81418414D01*
X86554951Y-81607820D01*
X86679890Y-81779786D01*
X86830213Y-81930109D01*
X87002182Y-82055050D01*
X87010946Y-82059516D01*
X87061742Y-82107491D01*
X87078536Y-82175312D01*
X87055998Y-82241447D01*
X87010946Y-82280484D01*
X87002182Y-82284949D01*
X86830213Y-82409890D01*
X86679890Y-82560213D01*
X86554951Y-82732179D01*
X86458444Y-82921585D01*
X86392753Y-83123760D01*
X86359500Y-83333713D01*
X86359500Y-83546286D01*
X86392753Y-83756239D01*
X86458444Y-83958414D01*
X86554951Y-84147820D01*
X86679890Y-84319786D01*
X86830213Y-84470109D01*
X87002182Y-84595050D01*
X87010946Y-84599516D01*
X87061742Y-84647491D01*
X87078536Y-84715312D01*
X87055998Y-84781447D01*
X87010946Y-84820484D01*
X87002182Y-84824949D01*
X86830213Y-84949890D01*
X86679890Y-85100213D01*
X86554951Y-85272179D01*
X86458444Y-85461585D01*
X86392753Y-85663760D01*
X86359500Y-85873713D01*
X86359500Y-86086286D01*
X86392753Y-86296239D01*
X86458444Y-86498414D01*
X86554951Y-86687820D01*
X86679890Y-86859786D01*
X86830213Y-87010109D01*
X87002182Y-87135050D01*
X87010946Y-87139516D01*
X87061742Y-87187491D01*
X87078536Y-87255312D01*
X87055998Y-87321447D01*
X87010946Y-87360484D01*
X87002182Y-87364949D01*
X86830213Y-87489890D01*
X86679890Y-87640213D01*
X86554951Y-87812179D01*
X86458444Y-88001585D01*
X86392753Y-88203760D01*
X86359500Y-88413713D01*
X86359500Y-88626286D01*
X86392735Y-88836127D01*
X86392754Y-88836243D01*
X86445962Y-89000001D01*
X86458444Y-89038414D01*
X86554951Y-89227820D01*
X86679890Y-89399786D01*
X86830213Y-89550109D01*
X87002182Y-89675050D01*
X87010946Y-89679516D01*
X87061742Y-89727491D01*
X87078536Y-89795312D01*
X87055998Y-89861447D01*
X87010946Y-89900484D01*
X87002182Y-89904949D01*
X86830213Y-90029890D01*
X86679890Y-90180213D01*
X86554951Y-90352179D01*
X86458444Y-90541585D01*
X86392753Y-90743760D01*
X86359500Y-90953713D01*
X86359500Y-91166286D01*
X86392753Y-91376239D01*
X86458444Y-91578414D01*
X86554951Y-91767820D01*
X86679890Y-91939786D01*
X86793430Y-92053326D01*
X86826915Y-92114649D01*
X86821931Y-92184341D01*
X86780059Y-92240274D01*
X86749083Y-92257189D01*
X86617669Y-92306203D01*
X86617664Y-92306206D01*
X86502455Y-92392452D01*
X86502452Y-92392455D01*
X86416206Y-92507664D01*
X86416202Y-92507671D01*
X86365908Y-92642517D01*
X86359501Y-92702116D01*
X86359500Y-92702135D01*
X86359500Y-94497870D01*
X86359501Y-94497876D01*
X86365908Y-94557483D01*
X86416202Y-94692328D01*
X86416206Y-94692335D01*
X86502452Y-94807544D01*
X86502455Y-94807547D01*
X86617664Y-94893793D01*
X86617671Y-94893797D01*
X86752517Y-94944091D01*
X86752516Y-94944091D01*
X86759444Y-94944835D01*
X86812127Y-94950500D01*
X88607872Y-94950499D01*
X88667483Y-94944091D01*
X88802331Y-94893796D01*
X88917546Y-94807546D01*
X89003796Y-94692331D01*
X89052810Y-94560916D01*
X89094681Y-94504984D01*
X89160145Y-94480566D01*
X89228418Y-94495417D01*
X89256673Y-94516569D01*
X89370213Y-94630109D01*
X89542179Y-94755048D01*
X89542181Y-94755049D01*
X89542184Y-94755051D01*
X89731588Y-94851557D01*
X89933757Y-94917246D01*
X90143713Y-94950500D01*
X90143714Y-94950500D01*
X90356286Y-94950500D01*
X90356287Y-94950500D01*
X90566243Y-94917246D01*
X90768412Y-94851557D01*
X90957816Y-94755051D01*
X91044138Y-94692335D01*
X91129786Y-94630109D01*
X91129788Y-94630106D01*
X91129792Y-94630104D01*
X91280104Y-94479792D01*
X91280106Y-94479788D01*
X91280109Y-94479786D01*
X91405048Y-94307820D01*
X91405047Y-94307820D01*
X91405051Y-94307816D01*
X91501557Y-94118412D01*
X91567246Y-93916243D01*
X91600500Y-93706287D01*
X91600500Y-93493713D01*
X91567246Y-93283757D01*
X91501557Y-93081588D01*
X91405051Y-92892184D01*
X91405049Y-92892181D01*
X91405048Y-92892179D01*
X91280109Y-92720213D01*
X91129786Y-92569890D01*
X90957820Y-92444951D01*
X90957115Y-92444591D01*
X90949054Y-92440485D01*
X90898259Y-92392512D01*
X90881463Y-92324692D01*
X90903999Y-92258556D01*
X90949054Y-92219515D01*
X90957816Y-92215051D01*
X91047554Y-92149853D01*
X91129786Y-92090109D01*
X91129788Y-92090106D01*
X91129792Y-92090104D01*
X91280104Y-91939792D01*
X91280106Y-91939788D01*
X91280109Y-91939786D01*
X91405048Y-91767820D01*
X91405047Y-91767820D01*
X91405051Y-91767816D01*
X91501557Y-91578412D01*
X91567246Y-91376243D01*
X91600500Y-91166287D01*
X91600500Y-90953713D01*
X91567246Y-90743757D01*
X91501557Y-90541588D01*
X91405051Y-90352184D01*
X91405049Y-90352181D01*
X91405048Y-90352179D01*
X91280109Y-90180213D01*
X91129786Y-90029890D01*
X90957817Y-89904949D01*
X90948504Y-89900204D01*
X90897707Y-89852230D01*
X90880912Y-89784409D01*
X90903449Y-89718274D01*
X90948507Y-89679232D01*
X90957555Y-89674622D01*
X91011716Y-89635270D01*
X91011717Y-89635270D01*
X90379408Y-89002962D01*
X90442993Y-88985925D01*
X90557007Y-88920099D01*
X90650099Y-88827007D01*
X90715925Y-88712993D01*
X90732962Y-88649408D01*
X91365270Y-89281717D01*
X91365270Y-89281716D01*
X91404622Y-89227554D01*
X91501095Y-89038217D01*
X91566757Y-88836130D01*
X91566757Y-88836127D01*
X91600000Y-88626246D01*
X91600000Y-88413753D01*
X91566757Y-88203872D01*
X91566757Y-88203869D01*
X91501095Y-88001782D01*
X91443666Y-87889071D01*
X91443665Y-87889069D01*
X91417464Y-87837648D01*
X92689500Y-87837648D01*
X92689500Y-88042351D01*
X92721522Y-88244534D01*
X92784781Y-88439223D01*
X92877715Y-88621613D01*
X92998028Y-88787213D01*
X93142786Y-88931971D01*
X93289295Y-89038414D01*
X93308390Y-89052287D01*
X93410430Y-89104279D01*
X93490776Y-89145218D01*
X93490778Y-89145218D01*
X93490781Y-89145220D01*
X93577649Y-89173445D01*
X93685465Y-89208477D01*
X93786557Y-89224488D01*
X93887648Y-89240500D01*
X93887649Y-89240500D01*
X94092351Y-89240500D01*
X94092352Y-89240500D01*
X94294534Y-89208477D01*
X94489219Y-89145220D01*
X94671610Y-89052287D01*
X94764590Y-88984732D01*
X94837213Y-88931971D01*
X94837215Y-88931968D01*
X94837219Y-88931966D01*
X94981966Y-88787219D01*
X94981968Y-88787215D01*
X94981971Y-88787213D01*
X95035894Y-88712993D01*
X95102287Y-88621610D01*
X95195220Y-88439219D01*
X95258477Y-88244534D01*
X95290500Y-88042352D01*
X95290500Y-87837648D01*
X100309500Y-87837648D01*
X100309500Y-88042351D01*
X100341522Y-88244534D01*
X100404781Y-88439223D01*
X100497715Y-88621613D01*
X100618028Y-88787213D01*
X100762786Y-88931971D01*
X100909295Y-89038414D01*
X100928390Y-89052287D01*
X101030430Y-89104279D01*
X101110776Y-89145218D01*
X101110778Y-89145218D01*
X101110781Y-89145220D01*
X101197649Y-89173445D01*
X101305465Y-89208477D01*
X101406557Y-89224488D01*
X101507648Y-89240500D01*
X101507649Y-89240500D01*
X101712351Y-89240500D01*
X101712352Y-89240500D01*
X101914534Y-89208477D01*
X102109219Y-89145220D01*
X102291610Y-89052287D01*
X102384590Y-88984732D01*
X102457213Y-88931971D01*
X102457215Y-88931968D01*
X102457219Y-88931966D01*
X102601966Y-88787219D01*
X102601968Y-88787215D01*
X102601971Y-88787213D01*
X102655894Y-88712993D01*
X102722287Y-88621610D01*
X102815220Y-88439219D01*
X102878477Y-88244534D01*
X102910500Y-88042352D01*
X102910500Y-87837648D01*
X103259500Y-87837648D01*
X103259500Y-88042351D01*
X103291522Y-88244534D01*
X103354781Y-88439223D01*
X103447715Y-88621613D01*
X103568028Y-88787213D01*
X103712786Y-88931971D01*
X103859295Y-89038414D01*
X103878390Y-89052287D01*
X103980430Y-89104279D01*
X104060776Y-89145218D01*
X104060778Y-89145218D01*
X104060781Y-89145220D01*
X104147649Y-89173445D01*
X104255465Y-89208477D01*
X104356557Y-89224488D01*
X104457648Y-89240500D01*
X104457649Y-89240500D01*
X104662351Y-89240500D01*
X104662352Y-89240500D01*
X104864534Y-89208477D01*
X105059219Y-89145220D01*
X105241610Y-89052287D01*
X105334590Y-88984732D01*
X105407213Y-88931971D01*
X105407215Y-88931968D01*
X105407219Y-88931966D01*
X105551966Y-88787219D01*
X105551968Y-88787215D01*
X105551971Y-88787213D01*
X105605894Y-88712993D01*
X105672287Y-88621610D01*
X105765220Y-88439219D01*
X105828477Y-88244534D01*
X105860500Y-88042352D01*
X105860500Y-87837648D01*
X110879500Y-87837648D01*
X110879500Y-88042351D01*
X110911522Y-88244534D01*
X110974781Y-88439223D01*
X111067715Y-88621613D01*
X111188028Y-88787213D01*
X111332786Y-88931971D01*
X111479295Y-89038414D01*
X111498390Y-89052287D01*
X111600430Y-89104279D01*
X111680776Y-89145218D01*
X111680778Y-89145218D01*
X111680781Y-89145220D01*
X111767649Y-89173445D01*
X111875465Y-89208477D01*
X111976557Y-89224488D01*
X112077648Y-89240500D01*
X112077649Y-89240500D01*
X112282351Y-89240500D01*
X112282352Y-89240500D01*
X112484534Y-89208477D01*
X112679219Y-89145220D01*
X112861610Y-89052287D01*
X112954590Y-88984732D01*
X113027213Y-88931971D01*
X113027215Y-88931968D01*
X113027219Y-88931966D01*
X113171966Y-88787219D01*
X113171968Y-88787215D01*
X113171971Y-88787213D01*
X113225894Y-88712993D01*
X113292287Y-88621610D01*
X113385220Y-88439219D01*
X113448477Y-88244534D01*
X113480500Y-88042352D01*
X113480500Y-87837648D01*
X114019500Y-87837648D01*
X114019500Y-88042351D01*
X114051522Y-88244534D01*
X114114781Y-88439223D01*
X114207715Y-88621613D01*
X114328028Y-88787213D01*
X114472786Y-88931971D01*
X114619295Y-89038414D01*
X114638390Y-89052287D01*
X114740430Y-89104279D01*
X114820776Y-89145218D01*
X114820778Y-89145218D01*
X114820781Y-89145220D01*
X114907649Y-89173445D01*
X115015465Y-89208477D01*
X115116557Y-89224488D01*
X115217648Y-89240500D01*
X115217649Y-89240500D01*
X115422351Y-89240500D01*
X115422352Y-89240500D01*
X115624534Y-89208477D01*
X115819219Y-89145220D01*
X116001610Y-89052287D01*
X116094590Y-88984732D01*
X116167213Y-88931971D01*
X116167215Y-88931968D01*
X116167219Y-88931966D01*
X116311966Y-88787219D01*
X116311968Y-88787215D01*
X116311971Y-88787213D01*
X116365894Y-88712993D01*
X116432287Y-88621610D01*
X116525220Y-88439219D01*
X116588477Y-88244534D01*
X116620500Y-88042352D01*
X116620500Y-87837648D01*
X121639500Y-87837648D01*
X121639500Y-88042351D01*
X121671522Y-88244534D01*
X121734781Y-88439223D01*
X121827715Y-88621613D01*
X121948028Y-88787213D01*
X122092786Y-88931971D01*
X122239295Y-89038414D01*
X122258390Y-89052287D01*
X122360430Y-89104279D01*
X122440776Y-89145218D01*
X122440778Y-89145218D01*
X122440781Y-89145220D01*
X122527649Y-89173445D01*
X122635465Y-89208477D01*
X122736557Y-89224488D01*
X122837648Y-89240500D01*
X122837649Y-89240500D01*
X123042351Y-89240500D01*
X123042352Y-89240500D01*
X123244534Y-89208477D01*
X123439219Y-89145220D01*
X123621610Y-89052287D01*
X123714590Y-88984732D01*
X123787213Y-88931971D01*
X123787215Y-88931968D01*
X123787219Y-88931966D01*
X123931966Y-88787219D01*
X123931968Y-88787215D01*
X123931971Y-88787213D01*
X123985894Y-88712993D01*
X124052287Y-88621610D01*
X124145220Y-88439219D01*
X124208477Y-88244534D01*
X124240500Y-88042352D01*
X124240500Y-87987648D01*
X125199500Y-87987648D01*
X125199500Y-88192351D01*
X125231522Y-88394534D01*
X125294781Y-88589223D01*
X125387715Y-88771613D01*
X125508028Y-88937213D01*
X125652786Y-89081971D01*
X125778692Y-89173445D01*
X125818390Y-89202287D01*
X125934607Y-89261503D01*
X126000776Y-89295218D01*
X126000778Y-89295218D01*
X126000781Y-89295220D01*
X126105137Y-89329127D01*
X126195465Y-89358477D01*
X126296557Y-89374488D01*
X126397648Y-89390500D01*
X126397649Y-89390500D01*
X126602351Y-89390500D01*
X126602352Y-89390500D01*
X126804534Y-89358477D01*
X126999219Y-89295220D01*
X127181610Y-89202287D01*
X127316508Y-89104279D01*
X127347213Y-89081971D01*
X127347215Y-89081968D01*
X127347219Y-89081966D01*
X127491966Y-88937219D01*
X127522117Y-88895720D01*
X134675000Y-88895720D01*
X134675000Y-89104279D01*
X134707626Y-89310272D01*
X134772075Y-89508627D01*
X134866759Y-89694451D01*
X134902627Y-89743818D01*
X134902627Y-89743819D01*
X135476212Y-89170234D01*
X135487482Y-89212292D01*
X135559890Y-89337708D01*
X135662292Y-89440110D01*
X135787708Y-89512518D01*
X135829765Y-89523787D01*
X135256179Y-90097371D01*
X135256180Y-90097372D01*
X135305543Y-90133236D01*
X135305556Y-90133244D01*
X135491372Y-90227924D01*
X135689727Y-90292373D01*
X135895721Y-90325000D01*
X136104279Y-90325000D01*
X136310272Y-90292373D01*
X136508627Y-90227924D01*
X136694451Y-90133240D01*
X136743818Y-90097372D01*
X136743818Y-90097371D01*
X136170234Y-89523787D01*
X136212292Y-89512518D01*
X136337708Y-89440110D01*
X136440110Y-89337708D01*
X136512518Y-89212292D01*
X136523787Y-89170234D01*
X137097371Y-89743818D01*
X137097372Y-89743818D01*
X137133240Y-89694451D01*
X137227924Y-89508627D01*
X137292373Y-89310272D01*
X137325000Y-89104279D01*
X137325000Y-88895720D01*
X137292373Y-88689727D01*
X137227924Y-88491372D01*
X137133244Y-88305556D01*
X137133236Y-88305543D01*
X137097372Y-88256180D01*
X137097371Y-88256179D01*
X136523787Y-88829764D01*
X136512518Y-88787708D01*
X136440110Y-88662292D01*
X136337708Y-88559890D01*
X136212292Y-88487482D01*
X136170233Y-88476212D01*
X136743819Y-87902627D01*
X136694451Y-87866759D01*
X136508627Y-87772075D01*
X136310272Y-87707626D01*
X136104279Y-87675000D01*
X135895721Y-87675000D01*
X135689727Y-87707626D01*
X135491372Y-87772075D01*
X135305552Y-87866757D01*
X135256180Y-87902627D01*
X135829766Y-88476212D01*
X135787708Y-88487482D01*
X135662292Y-88559890D01*
X135559890Y-88662292D01*
X135487482Y-88787708D01*
X135476212Y-88829765D01*
X134902627Y-88256180D01*
X134866757Y-88305552D01*
X134772075Y-88491372D01*
X134707626Y-88689727D01*
X134675000Y-88895720D01*
X127522117Y-88895720D01*
X127578611Y-88817963D01*
X127601438Y-88786541D01*
X127612287Y-88771610D01*
X127705220Y-88589219D01*
X127768477Y-88394534D01*
X127800500Y-88192352D01*
X127800500Y-87987648D01*
X127768477Y-87785466D01*
X127705220Y-87590781D01*
X127705218Y-87590778D01*
X127705218Y-87590776D01*
X127653813Y-87489890D01*
X127612287Y-87408390D01*
X127580726Y-87364949D01*
X127491971Y-87242786D01*
X127347213Y-87098028D01*
X127181613Y-86977715D01*
X127181612Y-86977714D01*
X127181610Y-86977713D01*
X127123350Y-86948028D01*
X126999223Y-86884781D01*
X126804534Y-86821522D01*
X126623578Y-86792862D01*
X126602352Y-86789500D01*
X126397648Y-86789500D01*
X126376422Y-86792862D01*
X126195465Y-86821522D01*
X126000776Y-86884781D01*
X125818386Y-86977715D01*
X125652786Y-87098028D01*
X125508028Y-87242786D01*
X125387715Y-87408386D01*
X125294781Y-87590776D01*
X125231522Y-87785465D01*
X125199500Y-87987648D01*
X124240500Y-87987648D01*
X124240500Y-87837648D01*
X124230114Y-87772075D01*
X124208477Y-87635465D01*
X124145218Y-87440776D01*
X124104447Y-87360760D01*
X124052287Y-87258390D01*
X124040950Y-87242786D01*
X123931971Y-87092786D01*
X123787213Y-86948028D01*
X123621613Y-86827715D01*
X123621612Y-86827714D01*
X123621610Y-86827713D01*
X123546613Y-86789500D01*
X123439223Y-86734781D01*
X123244534Y-86671522D01*
X123069995Y-86643878D01*
X123042352Y-86639500D01*
X122837648Y-86639500D01*
X122813329Y-86643351D01*
X122635465Y-86671522D01*
X122440776Y-86734781D01*
X122258386Y-86827715D01*
X122092786Y-86948028D01*
X121948028Y-87092786D01*
X121827715Y-87258386D01*
X121734781Y-87440776D01*
X121671522Y-87635465D01*
X121639500Y-87837648D01*
X116620500Y-87837648D01*
X116610114Y-87772075D01*
X116588477Y-87635465D01*
X116525218Y-87440776D01*
X116484447Y-87360760D01*
X116432287Y-87258390D01*
X116420950Y-87242786D01*
X116311971Y-87092786D01*
X116167213Y-86948028D01*
X116001613Y-86827715D01*
X116001612Y-86827714D01*
X116001610Y-86827713D01*
X115926613Y-86789500D01*
X115819223Y-86734781D01*
X115624534Y-86671522D01*
X115449995Y-86643878D01*
X115422352Y-86639500D01*
X115217648Y-86639500D01*
X115193329Y-86643351D01*
X115015465Y-86671522D01*
X114820776Y-86734781D01*
X114638386Y-86827715D01*
X114472786Y-86948028D01*
X114328028Y-87092786D01*
X114207715Y-87258386D01*
X114114781Y-87440776D01*
X114051522Y-87635465D01*
X114019500Y-87837648D01*
X113480500Y-87837648D01*
X113470114Y-87772075D01*
X113448477Y-87635465D01*
X113385218Y-87440776D01*
X113344447Y-87360760D01*
X113292287Y-87258390D01*
X113280950Y-87242786D01*
X113171971Y-87092786D01*
X113027213Y-86948028D01*
X112861613Y-86827715D01*
X112861612Y-86827714D01*
X112861610Y-86827713D01*
X112786613Y-86789500D01*
X112679223Y-86734781D01*
X112484534Y-86671522D01*
X112309995Y-86643878D01*
X112282352Y-86639500D01*
X112077648Y-86639500D01*
X112053329Y-86643351D01*
X111875465Y-86671522D01*
X111680776Y-86734781D01*
X111498386Y-86827715D01*
X111332786Y-86948028D01*
X111188028Y-87092786D01*
X111067715Y-87258386D01*
X110974781Y-87440776D01*
X110911522Y-87635465D01*
X110879500Y-87837648D01*
X105860500Y-87837648D01*
X105850114Y-87772075D01*
X105828477Y-87635465D01*
X105765218Y-87440776D01*
X105724447Y-87360760D01*
X105672287Y-87258390D01*
X105660950Y-87242786D01*
X105551971Y-87092786D01*
X105407213Y-86948028D01*
X105241613Y-86827715D01*
X105241612Y-86827714D01*
X105241610Y-86827713D01*
X105166613Y-86789500D01*
X105059223Y-86734781D01*
X104864534Y-86671522D01*
X104689995Y-86643878D01*
X104662352Y-86639500D01*
X104457648Y-86639500D01*
X104433329Y-86643351D01*
X104255465Y-86671522D01*
X104060776Y-86734781D01*
X103878386Y-86827715D01*
X103712786Y-86948028D01*
X103568028Y-87092786D01*
X103447715Y-87258386D01*
X103354781Y-87440776D01*
X103291522Y-87635465D01*
X103259500Y-87837648D01*
X102910500Y-87837648D01*
X102900114Y-87772075D01*
X102878477Y-87635465D01*
X102815218Y-87440776D01*
X102774447Y-87360760D01*
X102722287Y-87258390D01*
X102710950Y-87242786D01*
X102601971Y-87092786D01*
X102457213Y-86948028D01*
X102291613Y-86827715D01*
X102291612Y-86827714D01*
X102291610Y-86827713D01*
X102216613Y-86789500D01*
X102109223Y-86734781D01*
X101914534Y-86671522D01*
X101739995Y-86643878D01*
X101712352Y-86639500D01*
X101507648Y-86639500D01*
X101483329Y-86643351D01*
X101305465Y-86671522D01*
X101110776Y-86734781D01*
X100928386Y-86827715D01*
X100762786Y-86948028D01*
X100618028Y-87092786D01*
X100497715Y-87258386D01*
X100404781Y-87440776D01*
X100341522Y-87635465D01*
X100309500Y-87837648D01*
X95290500Y-87837648D01*
X95280114Y-87772075D01*
X95258477Y-87635465D01*
X95195218Y-87440776D01*
X95154447Y-87360760D01*
X95102287Y-87258390D01*
X95090950Y-87242786D01*
X94981971Y-87092786D01*
X94837213Y-86948028D01*
X94671613Y-86827715D01*
X94671612Y-86827714D01*
X94671610Y-86827713D01*
X94596613Y-86789500D01*
X94489223Y-86734781D01*
X94294534Y-86671522D01*
X94119995Y-86643878D01*
X94092352Y-86639500D01*
X93887648Y-86639500D01*
X93863329Y-86643351D01*
X93685465Y-86671522D01*
X93490776Y-86734781D01*
X93308386Y-86827715D01*
X93142786Y-86948028D01*
X92998028Y-87092786D01*
X92877715Y-87258386D01*
X92784781Y-87440776D01*
X92721522Y-87635465D01*
X92689500Y-87837648D01*
X91417464Y-87837648D01*
X91404626Y-87812452D01*
X91365270Y-87758282D01*
X91365269Y-87758282D01*
X90732962Y-88390590D01*
X90715925Y-88327007D01*
X90650099Y-88212993D01*
X90557007Y-88119901D01*
X90442993Y-88054075D01*
X90379409Y-88037037D01*
X91011716Y-87404728D01*
X90957547Y-87365373D01*
X90957547Y-87365372D01*
X90948500Y-87360763D01*
X90897706Y-87312788D01*
X90880912Y-87244966D01*
X90903451Y-87178832D01*
X90948508Y-87139793D01*
X90957816Y-87135051D01*
X91037007Y-87077515D01*
X91129786Y-87010109D01*
X91129788Y-87010106D01*
X91129792Y-87010104D01*
X91280104Y-86859792D01*
X91280106Y-86859788D01*
X91280109Y-86859786D01*
X91405048Y-86687820D01*
X91405047Y-86687820D01*
X91405051Y-86687816D01*
X91501557Y-86498412D01*
X91567246Y-86296243D01*
X91600500Y-86086287D01*
X91600500Y-85873713D01*
X91567246Y-85663757D01*
X91501557Y-85461588D01*
X91501555Y-85461585D01*
X91501555Y-85461583D01*
X91494178Y-85447105D01*
X91494177Y-85447104D01*
X91467973Y-85395675D01*
X134674500Y-85395675D01*
X134674500Y-85604324D01*
X134707137Y-85810389D01*
X134771612Y-86008820D01*
X134811084Y-86086287D01*
X134866330Y-86194714D01*
X134988965Y-86363505D01*
X135136495Y-86511035D01*
X135305286Y-86633670D01*
X135379575Y-86671522D01*
X135491179Y-86728387D01*
X135491181Y-86728387D01*
X135491184Y-86728389D01*
X135510857Y-86734781D01*
X135689610Y-86792862D01*
X135895676Y-86825500D01*
X135895681Y-86825500D01*
X136104324Y-86825500D01*
X136310389Y-86792862D01*
X136320736Y-86789500D01*
X136508816Y-86728389D01*
X136694714Y-86633670D01*
X136863505Y-86511035D01*
X137011035Y-86363505D01*
X137133670Y-86194714D01*
X137228389Y-86008816D01*
X137292862Y-85810389D01*
X137316086Y-85663760D01*
X137325500Y-85604324D01*
X137325500Y-85395675D01*
X137292862Y-85189610D01*
X137228387Y-84991179D01*
X137178421Y-84893116D01*
X137133670Y-84805286D01*
X137011035Y-84636495D01*
X136863505Y-84488965D01*
X136694714Y-84366330D01*
X136508820Y-84271612D01*
X136310389Y-84207137D01*
X136104324Y-84174500D01*
X136104319Y-84174500D01*
X135895681Y-84174500D01*
X135895676Y-84174500D01*
X135689610Y-84207137D01*
X135491179Y-84271612D01*
X135305285Y-84366330D01*
X135136493Y-84488966D01*
X134988966Y-84636493D01*
X134866330Y-84805285D01*
X134771612Y-84991179D01*
X134707137Y-85189610D01*
X134674500Y-85395675D01*
X91467973Y-85395675D01*
X91435397Y-85331742D01*
X91405051Y-85272184D01*
X91405049Y-85272181D01*
X91405048Y-85272179D01*
X91280109Y-85100213D01*
X91129786Y-84949890D01*
X90957820Y-84824951D01*
X90957115Y-84824591D01*
X90949054Y-84820485D01*
X90898259Y-84772512D01*
X90881463Y-84704692D01*
X90903999Y-84638556D01*
X90949054Y-84599515D01*
X90957816Y-84595051D01*
X91103831Y-84488966D01*
X91129786Y-84470109D01*
X91129788Y-84470106D01*
X91129792Y-84470104D01*
X91280104Y-84319792D01*
X91280106Y-84319788D01*
X91280109Y-84319786D01*
X91405048Y-84147820D01*
X91405047Y-84147820D01*
X91405051Y-84147816D01*
X91501557Y-83958412D01*
X91567246Y-83756243D01*
X91600500Y-83546287D01*
X91600500Y-83333713D01*
X91567246Y-83123757D01*
X91501557Y-82921588D01*
X91405051Y-82732184D01*
X91405049Y-82732181D01*
X91405048Y-82732179D01*
X91280109Y-82560213D01*
X91129786Y-82409890D01*
X90957820Y-82284951D01*
X90957115Y-82284591D01*
X90949054Y-82280485D01*
X90898259Y-82232512D01*
X90881463Y-82164692D01*
X90903999Y-82098556D01*
X90949054Y-82059515D01*
X90957816Y-82055051D01*
X90979789Y-82039086D01*
X91129786Y-81930109D01*
X91129788Y-81930106D01*
X91129792Y-81930104D01*
X91280104Y-81779792D01*
X91280106Y-81779788D01*
X91280109Y-81779786D01*
X91405048Y-81607820D01*
X91405047Y-81607820D01*
X91405051Y-81607816D01*
X91501557Y-81418412D01*
X91567246Y-81216243D01*
X91600500Y-81006287D01*
X91600500Y-80793713D01*
X91567246Y-80583757D01*
X91501557Y-80381588D01*
X91501557Y-80381587D01*
X91494455Y-80367648D01*
X125199500Y-80367648D01*
X125199500Y-80572351D01*
X125231522Y-80774534D01*
X125294781Y-80969223D01*
X125344862Y-81067511D01*
X125375242Y-81127135D01*
X125387715Y-81151613D01*
X125508028Y-81317213D01*
X125652786Y-81461971D01*
X125807749Y-81574556D01*
X125818390Y-81582287D01*
X125934607Y-81641503D01*
X126000776Y-81675218D01*
X126000778Y-81675218D01*
X126000781Y-81675220D01*
X126105137Y-81709127D01*
X126195465Y-81738477D01*
X126296557Y-81754488D01*
X126397648Y-81770500D01*
X126397649Y-81770500D01*
X126602351Y-81770500D01*
X126602352Y-81770500D01*
X126804534Y-81738477D01*
X126999219Y-81675220D01*
X127181610Y-81582287D01*
X127274590Y-81514732D01*
X127347213Y-81461971D01*
X127347215Y-81461968D01*
X127347219Y-81461966D01*
X127491966Y-81317219D01*
X127491968Y-81317215D01*
X127491971Y-81317213D01*
X127565329Y-81216243D01*
X127612287Y-81151610D01*
X127624758Y-81127135D01*
X134674500Y-81127135D01*
X134674500Y-82872870D01*
X134674501Y-82872876D01*
X134680908Y-82932483D01*
X134731202Y-83067328D01*
X134731206Y-83067335D01*
X134817452Y-83182544D01*
X134817455Y-83182547D01*
X134932664Y-83268793D01*
X134932671Y-83268797D01*
X135067517Y-83319091D01*
X135067516Y-83319091D01*
X135074444Y-83319835D01*
X135127127Y-83325500D01*
X136872872Y-83325499D01*
X136932483Y-83319091D01*
X137067331Y-83268796D01*
X137182546Y-83182546D01*
X137268796Y-83067331D01*
X137319091Y-82932483D01*
X137325500Y-82872873D01*
X137325499Y-81127128D01*
X137319091Y-81067517D01*
X137296253Y-81006286D01*
X137268797Y-80932671D01*
X137268793Y-80932664D01*
X137182547Y-80817455D01*
X137182544Y-80817452D01*
X137067335Y-80731206D01*
X137067328Y-80731202D01*
X136932482Y-80680908D01*
X136932483Y-80680908D01*
X136872883Y-80674501D01*
X136872881Y-80674500D01*
X136872873Y-80674500D01*
X136872864Y-80674500D01*
X135127129Y-80674500D01*
X135127123Y-80674501D01*
X135067516Y-80680908D01*
X134932671Y-80731202D01*
X134932664Y-80731206D01*
X134817455Y-80817452D01*
X134817452Y-80817455D01*
X134731206Y-80932664D01*
X134731202Y-80932671D01*
X134680908Y-81067517D01*
X134674501Y-81127116D01*
X134674501Y-81127123D01*
X134674500Y-81127135D01*
X127624758Y-81127135D01*
X127686334Y-81006286D01*
X127705218Y-80969223D01*
X127705218Y-80969222D01*
X127705220Y-80969219D01*
X127768477Y-80774534D01*
X127800500Y-80572352D01*
X127800500Y-80367648D01*
X127772709Y-80192184D01*
X127768477Y-80165465D01*
X127705218Y-79970776D01*
X127653813Y-79869890D01*
X127612287Y-79788390D01*
X127549120Y-79701447D01*
X127491971Y-79622786D01*
X127347213Y-79478028D01*
X127181613Y-79357715D01*
X127181612Y-79357714D01*
X127181610Y-79357713D01*
X127124653Y-79328691D01*
X126999223Y-79264781D01*
X126804534Y-79201522D01*
X126629995Y-79173878D01*
X126602352Y-79169500D01*
X126397648Y-79169500D01*
X126373329Y-79173351D01*
X126195465Y-79201522D01*
X126000776Y-79264781D01*
X125818386Y-79357715D01*
X125652786Y-79478028D01*
X125508028Y-79622786D01*
X125387715Y-79788386D01*
X125294781Y-79970776D01*
X125231522Y-80165465D01*
X125199500Y-80367648D01*
X91494455Y-80367648D01*
X91435397Y-80251742D01*
X91405051Y-80192184D01*
X91405049Y-80192181D01*
X91405048Y-80192179D01*
X91280109Y-80020213D01*
X91129786Y-79869890D01*
X90957817Y-79744949D01*
X90948504Y-79740204D01*
X90897707Y-79692230D01*
X90880912Y-79624409D01*
X90903449Y-79558274D01*
X90948507Y-79519232D01*
X90957555Y-79514622D01*
X91011716Y-79475270D01*
X91011717Y-79475270D01*
X90379408Y-78842962D01*
X90442993Y-78825925D01*
X90557007Y-78760099D01*
X90650099Y-78667007D01*
X90715925Y-78552993D01*
X90732962Y-78489408D01*
X91365270Y-79121717D01*
X91365270Y-79121716D01*
X91404622Y-79067554D01*
X91501095Y-78878217D01*
X91566757Y-78676130D01*
X91566757Y-78676127D01*
X91600000Y-78466246D01*
X91600000Y-78253753D01*
X91566757Y-78043872D01*
X91566757Y-78043869D01*
X91501095Y-77841782D01*
X91404624Y-77652449D01*
X91365270Y-77598282D01*
X91365269Y-77598282D01*
X90732962Y-78230590D01*
X90715925Y-78167007D01*
X90650099Y-78052993D01*
X90557007Y-77959901D01*
X90442993Y-77894075D01*
X90379409Y-77877037D01*
X91011716Y-77244728D01*
X90957547Y-77205373D01*
X90957547Y-77205372D01*
X90948500Y-77200763D01*
X90897706Y-77152788D01*
X90880912Y-77084966D01*
X90903451Y-77018832D01*
X90948508Y-76979793D01*
X90957816Y-76975051D01*
X91037007Y-76917515D01*
X91129786Y-76850109D01*
X91129788Y-76850106D01*
X91129792Y-76850104D01*
X91145581Y-76834315D01*
X125199500Y-76834315D01*
X125199500Y-77039018D01*
X125231522Y-77241201D01*
X125294781Y-77435890D01*
X125387715Y-77618280D01*
X125508028Y-77783880D01*
X125652786Y-77928638D01*
X125759882Y-78006446D01*
X125818390Y-78048954D01*
X125934607Y-78108170D01*
X126000776Y-78141885D01*
X126000778Y-78141885D01*
X126000781Y-78141887D01*
X126105137Y-78175794D01*
X126195465Y-78205144D01*
X126276154Y-78217924D01*
X126397648Y-78237167D01*
X126397649Y-78237167D01*
X126602351Y-78237167D01*
X126602352Y-78237167D01*
X126804534Y-78205144D01*
X126999219Y-78141887D01*
X127181610Y-78048954D01*
X127304182Y-77959901D01*
X127331858Y-77939794D01*
X127331859Y-77939793D01*
X127347215Y-77928636D01*
X127347215Y-77928635D01*
X127347219Y-77928633D01*
X127491966Y-77783886D01*
X127491968Y-77783882D01*
X127491971Y-77783880D01*
X127544732Y-77711257D01*
X127612287Y-77618277D01*
X127705220Y-77435886D01*
X127768477Y-77241201D01*
X127800500Y-77039019D01*
X127800500Y-76885720D01*
X134682500Y-76885720D01*
X134682500Y-77094279D01*
X134715126Y-77300272D01*
X134779575Y-77498627D01*
X134874259Y-77684451D01*
X134910127Y-77733818D01*
X134910127Y-77733819D01*
X135483712Y-77160234D01*
X135494982Y-77202292D01*
X135567390Y-77327708D01*
X135669792Y-77430110D01*
X135795208Y-77502518D01*
X135837265Y-77513787D01*
X135263679Y-78087371D01*
X135263680Y-78087372D01*
X135313043Y-78123236D01*
X135313056Y-78123244D01*
X135498872Y-78217924D01*
X135697227Y-78282373D01*
X135903221Y-78315000D01*
X136111779Y-78315000D01*
X136317772Y-78282373D01*
X136516127Y-78217924D01*
X136701951Y-78123240D01*
X136751318Y-78087372D01*
X136751318Y-78087371D01*
X136177734Y-77513787D01*
X136219792Y-77502518D01*
X136345208Y-77430110D01*
X136447610Y-77327708D01*
X136520018Y-77202292D01*
X136531287Y-77160234D01*
X137104871Y-77733818D01*
X137104872Y-77733818D01*
X137140740Y-77684451D01*
X137235424Y-77498627D01*
X137299873Y-77300272D01*
X137332500Y-77094279D01*
X137332500Y-76885720D01*
X137299873Y-76679727D01*
X137235424Y-76481372D01*
X137140744Y-76295556D01*
X137140736Y-76295543D01*
X137104872Y-76246180D01*
X137104871Y-76246179D01*
X136531287Y-76819764D01*
X136520018Y-76777708D01*
X136447610Y-76652292D01*
X136345208Y-76549890D01*
X136219792Y-76477482D01*
X136177733Y-76466212D01*
X136751319Y-75892627D01*
X136701951Y-75856759D01*
X136516127Y-75762075D01*
X136317772Y-75697626D01*
X136111779Y-75665000D01*
X135903221Y-75665000D01*
X135697227Y-75697626D01*
X135498872Y-75762075D01*
X135313052Y-75856757D01*
X135263680Y-75892627D01*
X135837266Y-76466212D01*
X135795208Y-76477482D01*
X135669792Y-76549890D01*
X135567390Y-76652292D01*
X135494982Y-76777708D01*
X135483712Y-76819765D01*
X134910127Y-76246180D01*
X134874257Y-76295552D01*
X134779575Y-76481372D01*
X134715126Y-76679727D01*
X134682500Y-76885720D01*
X127800500Y-76885720D01*
X127800500Y-76834315D01*
X127768477Y-76632133D01*
X127705220Y-76437448D01*
X127705218Y-76437445D01*
X127705218Y-76437443D01*
X127671503Y-76371274D01*
X127612287Y-76255057D01*
X127604556Y-76244416D01*
X127491971Y-76089453D01*
X127347213Y-75944695D01*
X127181613Y-75824382D01*
X127181612Y-75824381D01*
X127181610Y-75824380D01*
X127124653Y-75795358D01*
X126999223Y-75731448D01*
X126804534Y-75668189D01*
X126629995Y-75640545D01*
X126602352Y-75636167D01*
X126397648Y-75636167D01*
X126373329Y-75640018D01*
X126195465Y-75668189D01*
X126000776Y-75731448D01*
X125818386Y-75824382D01*
X125652786Y-75944695D01*
X125508028Y-76089453D01*
X125387715Y-76255053D01*
X125294781Y-76437443D01*
X125231522Y-76632132D01*
X125199500Y-76834315D01*
X91145581Y-76834315D01*
X91280104Y-76699792D01*
X91280106Y-76699788D01*
X91280109Y-76699786D01*
X91405048Y-76527820D01*
X91405047Y-76527820D01*
X91405051Y-76527816D01*
X91501557Y-76338412D01*
X91567246Y-76136243D01*
X91600500Y-75926287D01*
X91600500Y-75713713D01*
X91567246Y-75503757D01*
X91501557Y-75301588D01*
X91405051Y-75112184D01*
X91405049Y-75112181D01*
X91405048Y-75112179D01*
X91280109Y-74940213D01*
X91129786Y-74789890D01*
X90957820Y-74664951D01*
X90957115Y-74664591D01*
X90949054Y-74660485D01*
X90898259Y-74612512D01*
X90881463Y-74544692D01*
X90903999Y-74478556D01*
X90949054Y-74439515D01*
X90957816Y-74435051D01*
X91070054Y-74353506D01*
X91129786Y-74310109D01*
X91129788Y-74310106D01*
X91129792Y-74310104D01*
X91280104Y-74159792D01*
X91280106Y-74159788D01*
X91280109Y-74159786D01*
X91405048Y-73987820D01*
X91405047Y-73987820D01*
X91405051Y-73987816D01*
X91501557Y-73798412D01*
X91567246Y-73596243D01*
X91600500Y-73386287D01*
X91600500Y-73385675D01*
X134682000Y-73385675D01*
X134682000Y-73594324D01*
X134714637Y-73800389D01*
X134779112Y-73998820D01*
X134861129Y-74159786D01*
X134873830Y-74184714D01*
X134996465Y-74353505D01*
X135143995Y-74501035D01*
X135312786Y-74623670D01*
X135385038Y-74660484D01*
X135498679Y-74718387D01*
X135498681Y-74718387D01*
X135498684Y-74718389D01*
X135605045Y-74752948D01*
X135697110Y-74782862D01*
X135903176Y-74815500D01*
X135903181Y-74815500D01*
X136111824Y-74815500D01*
X136317889Y-74782862D01*
X136516316Y-74718389D01*
X136702214Y-74623670D01*
X136871005Y-74501035D01*
X137018535Y-74353505D01*
X137141170Y-74184714D01*
X137235889Y-73998816D01*
X137300362Y-73800389D01*
X137309665Y-73741650D01*
X137333000Y-73594324D01*
X137333000Y-73385675D01*
X137300362Y-73179610D01*
X137235887Y-72981179D01*
X137141169Y-72795285D01*
X137018535Y-72626495D01*
X136871005Y-72478965D01*
X136702214Y-72356330D01*
X136516320Y-72261612D01*
X136317889Y-72197137D01*
X136111824Y-72164500D01*
X136111819Y-72164500D01*
X135903181Y-72164500D01*
X135903176Y-72164500D01*
X135697110Y-72197137D01*
X135498679Y-72261612D01*
X135312785Y-72356330D01*
X135143993Y-72478966D01*
X134996466Y-72626493D01*
X134873830Y-72795285D01*
X134779112Y-72981179D01*
X134714637Y-73179610D01*
X134682000Y-73385675D01*
X91600500Y-73385675D01*
X91600500Y-73173713D01*
X91567246Y-72963757D01*
X91501557Y-72761588D01*
X91405051Y-72572184D01*
X91405049Y-72572181D01*
X91405048Y-72572179D01*
X91280109Y-72400213D01*
X91129786Y-72249890D01*
X90957817Y-72124949D01*
X90948504Y-72120204D01*
X90897707Y-72072230D01*
X90880912Y-72004409D01*
X90903449Y-71938274D01*
X90948507Y-71899232D01*
X90957555Y-71894622D01*
X91011716Y-71855270D01*
X91011717Y-71855270D01*
X90379408Y-71222962D01*
X90442993Y-71205925D01*
X90557007Y-71140099D01*
X90650099Y-71047007D01*
X90715925Y-70932993D01*
X90732962Y-70869408D01*
X91365270Y-71501717D01*
X91365270Y-71501716D01*
X91404622Y-71447554D01*
X91501095Y-71258217D01*
X91566757Y-71056130D01*
X91566757Y-71056127D01*
X91600000Y-70846246D01*
X91600000Y-70633753D01*
X91566757Y-70423872D01*
X91566757Y-70423869D01*
X91501095Y-70221782D01*
X91404624Y-70032449D01*
X91365270Y-69978282D01*
X91365269Y-69978282D01*
X90732962Y-70610590D01*
X90715925Y-70547007D01*
X90650099Y-70432993D01*
X90557007Y-70339901D01*
X90442993Y-70274075D01*
X90379409Y-70257037D01*
X91011716Y-69624728D01*
X90957547Y-69585373D01*
X90957547Y-69585372D01*
X90948500Y-69580763D01*
X90897706Y-69532788D01*
X90880912Y-69464966D01*
X90903451Y-69398832D01*
X90948508Y-69359793D01*
X90957816Y-69355051D01*
X91037007Y-69297515D01*
X91129786Y-69230109D01*
X91129788Y-69230106D01*
X91129792Y-69230104D01*
X91145581Y-69214315D01*
X125199500Y-69214315D01*
X125199500Y-69419018D01*
X125231522Y-69621201D01*
X125294781Y-69815890D01*
X125387715Y-69998280D01*
X125508028Y-70163880D01*
X125652786Y-70308638D01*
X125759882Y-70386446D01*
X125818390Y-70428954D01*
X125934607Y-70488170D01*
X126000776Y-70521885D01*
X126000778Y-70521885D01*
X126000781Y-70521887D01*
X126105137Y-70555794D01*
X126195465Y-70585144D01*
X126296557Y-70601155D01*
X126397648Y-70617167D01*
X126397649Y-70617167D01*
X126602351Y-70617167D01*
X126602352Y-70617167D01*
X126804534Y-70585144D01*
X126999219Y-70521887D01*
X127181610Y-70428954D01*
X127304182Y-70339901D01*
X127347213Y-70308638D01*
X127347215Y-70308635D01*
X127347219Y-70308633D01*
X127491966Y-70163886D01*
X127491968Y-70163882D01*
X127491971Y-70163880D01*
X127544732Y-70091257D01*
X127612287Y-69998277D01*
X127705220Y-69815886D01*
X127768477Y-69621201D01*
X127800500Y-69419019D01*
X127800500Y-69214315D01*
X127785108Y-69117135D01*
X134682000Y-69117135D01*
X134682000Y-70862870D01*
X134682001Y-70862876D01*
X134688408Y-70922483D01*
X134738702Y-71057328D01*
X134738706Y-71057335D01*
X134824952Y-71172544D01*
X134824955Y-71172547D01*
X134940164Y-71258793D01*
X134940171Y-71258797D01*
X135075017Y-71309091D01*
X135075016Y-71309091D01*
X135081944Y-71309835D01*
X135134627Y-71315500D01*
X136880372Y-71315499D01*
X136939983Y-71309091D01*
X137074831Y-71258796D01*
X137190046Y-71172546D01*
X137276296Y-71057331D01*
X137326591Y-70922483D01*
X137333000Y-70862873D01*
X137332999Y-69117128D01*
X137326591Y-69057517D01*
X137276296Y-68922669D01*
X137276295Y-68922668D01*
X137276293Y-68922664D01*
X137190047Y-68807455D01*
X137190044Y-68807452D01*
X137074835Y-68721206D01*
X137074828Y-68721202D01*
X136939982Y-68670908D01*
X136939983Y-68670908D01*
X136880383Y-68664501D01*
X136880381Y-68664500D01*
X136880373Y-68664500D01*
X136880364Y-68664500D01*
X135134629Y-68664500D01*
X135134623Y-68664501D01*
X135075016Y-68670908D01*
X134940171Y-68721202D01*
X134940164Y-68721206D01*
X134824955Y-68807452D01*
X134824952Y-68807455D01*
X134738706Y-68922664D01*
X134738702Y-68922671D01*
X134688408Y-69057517D01*
X134682001Y-69117116D01*
X134682001Y-69117123D01*
X134682000Y-69117135D01*
X127785108Y-69117135D01*
X127768477Y-69012133D01*
X127705220Y-68817448D01*
X127705218Y-68817445D01*
X127705218Y-68817443D01*
X127656180Y-68721202D01*
X127612287Y-68635057D01*
X127604556Y-68624416D01*
X127491971Y-68469453D01*
X127347213Y-68324695D01*
X127181613Y-68204382D01*
X127181612Y-68204381D01*
X127181610Y-68204380D01*
X127124653Y-68175358D01*
X126999223Y-68111448D01*
X126804534Y-68048189D01*
X126629995Y-68020545D01*
X126602352Y-68016167D01*
X126397648Y-68016167D01*
X126373329Y-68020018D01*
X126195465Y-68048189D01*
X126000776Y-68111448D01*
X125818386Y-68204382D01*
X125652786Y-68324695D01*
X125508028Y-68469453D01*
X125387715Y-68635053D01*
X125294781Y-68817443D01*
X125231522Y-69012132D01*
X125199500Y-69214315D01*
X91145581Y-69214315D01*
X91280104Y-69079792D01*
X91280106Y-69079788D01*
X91280109Y-69079786D01*
X91405048Y-68907820D01*
X91405047Y-68907820D01*
X91405051Y-68907816D01*
X91501557Y-68718412D01*
X91567246Y-68516243D01*
X91600500Y-68306287D01*
X91600500Y-68093713D01*
X91567246Y-67883757D01*
X91501557Y-67681588D01*
X91405051Y-67492184D01*
X91405049Y-67492181D01*
X91405048Y-67492179D01*
X91280109Y-67320213D01*
X91129786Y-67169890D01*
X90957820Y-67044951D01*
X90957115Y-67044591D01*
X90949054Y-67040485D01*
X90898259Y-66992512D01*
X90881463Y-66924692D01*
X90903999Y-66858556D01*
X90949054Y-66819515D01*
X90957816Y-66815051D01*
X90979789Y-66799086D01*
X91129786Y-66690109D01*
X91129788Y-66690106D01*
X91129792Y-66690104D01*
X91280104Y-66539792D01*
X91280106Y-66539788D01*
X91280109Y-66539786D01*
X91405048Y-66367820D01*
X91405047Y-66367820D01*
X91405051Y-66367816D01*
X91501557Y-66178412D01*
X91567246Y-65976243D01*
X91600500Y-65766287D01*
X91600500Y-65680981D01*
X125199500Y-65680981D01*
X125199500Y-65885684D01*
X125231522Y-66087867D01*
X125294781Y-66282556D01*
X125387715Y-66464946D01*
X125508028Y-66630546D01*
X125652786Y-66775304D01*
X125767375Y-66858556D01*
X125818390Y-66895620D01*
X125896290Y-66935312D01*
X126000776Y-66988551D01*
X126000778Y-66988551D01*
X126000781Y-66988553D01*
X126040465Y-67001447D01*
X126195465Y-67051810D01*
X126296557Y-67067821D01*
X126397648Y-67083833D01*
X126397649Y-67083833D01*
X126602351Y-67083833D01*
X126602352Y-67083833D01*
X126804534Y-67051810D01*
X126999219Y-66988553D01*
X127181610Y-66895620D01*
X127292509Y-66815048D01*
X127347213Y-66775304D01*
X127347215Y-66775301D01*
X127347219Y-66775299D01*
X127491966Y-66630552D01*
X127491968Y-66630548D01*
X127491971Y-66630546D01*
X127557911Y-66539786D01*
X127612287Y-66464943D01*
X127705220Y-66282552D01*
X127768477Y-66087867D01*
X127800500Y-65885685D01*
X127800500Y-65680981D01*
X127768477Y-65478798D01*
X127724533Y-65343553D01*
X127705220Y-65284114D01*
X127705218Y-65284111D01*
X127705218Y-65284109D01*
X127612287Y-65101723D01*
X127504767Y-64953733D01*
X127504766Y-64953730D01*
X127491971Y-64936120D01*
X127491967Y-64936115D01*
X127441572Y-64885720D01*
X134682500Y-64885720D01*
X134682500Y-65094279D01*
X134715126Y-65300272D01*
X134779575Y-65498627D01*
X134874259Y-65684451D01*
X134910127Y-65733818D01*
X134910127Y-65733819D01*
X135483712Y-65160234D01*
X135494982Y-65202292D01*
X135567390Y-65327708D01*
X135669792Y-65430110D01*
X135795208Y-65502518D01*
X135837265Y-65513787D01*
X135263679Y-66087371D01*
X135263680Y-66087372D01*
X135313043Y-66123236D01*
X135313056Y-66123244D01*
X135498872Y-66217924D01*
X135697227Y-66282373D01*
X135903221Y-66315000D01*
X136111779Y-66315000D01*
X136317772Y-66282373D01*
X136516127Y-66217924D01*
X136701951Y-66123240D01*
X136751318Y-66087372D01*
X136751318Y-66087371D01*
X136177734Y-65513787D01*
X136219792Y-65502518D01*
X136345208Y-65430110D01*
X136447610Y-65327708D01*
X136520018Y-65202292D01*
X136531287Y-65160234D01*
X137104871Y-65733818D01*
X137104872Y-65733818D01*
X137140740Y-65684451D01*
X137235424Y-65498627D01*
X137299873Y-65300272D01*
X137332500Y-65094279D01*
X137332500Y-64885720D01*
X137299873Y-64679727D01*
X137235424Y-64481372D01*
X137140744Y-64295556D01*
X137140736Y-64295543D01*
X137104872Y-64246180D01*
X137104871Y-64246179D01*
X136531287Y-64819764D01*
X136520018Y-64777708D01*
X136447610Y-64652292D01*
X136345208Y-64549890D01*
X136219792Y-64477482D01*
X136177733Y-64466212D01*
X136751319Y-63892627D01*
X136701951Y-63856759D01*
X136516127Y-63762075D01*
X136317772Y-63697626D01*
X136111779Y-63665000D01*
X135903221Y-63665000D01*
X135697227Y-63697626D01*
X135498872Y-63762075D01*
X135313052Y-63856757D01*
X135263680Y-63892627D01*
X135837266Y-64466212D01*
X135795208Y-64477482D01*
X135669792Y-64549890D01*
X135567390Y-64652292D01*
X135494982Y-64777708D01*
X135483712Y-64819765D01*
X134910127Y-64246180D01*
X134874257Y-64295552D01*
X134779575Y-64481372D01*
X134715126Y-64679727D01*
X134682500Y-64885720D01*
X127441572Y-64885720D01*
X127347213Y-64791361D01*
X127181613Y-64671048D01*
X127181612Y-64671047D01*
X127181610Y-64671046D01*
X127100837Y-64629890D01*
X126999223Y-64578114D01*
X126804534Y-64514855D01*
X126629995Y-64487211D01*
X126602352Y-64482833D01*
X126397648Y-64482833D01*
X126373329Y-64486684D01*
X126195465Y-64514855D01*
X126000776Y-64578114D01*
X125818386Y-64671048D01*
X125652786Y-64791361D01*
X125508028Y-64936119D01*
X125387715Y-65101719D01*
X125294781Y-65284109D01*
X125231522Y-65478798D01*
X125199500Y-65680981D01*
X91600500Y-65680981D01*
X91600500Y-65553713D01*
X91567246Y-65343757D01*
X91501557Y-65141588D01*
X91405051Y-64952184D01*
X91405049Y-64952181D01*
X91405048Y-64952179D01*
X91280109Y-64780213D01*
X91129786Y-64629890D01*
X90957820Y-64504951D01*
X90957115Y-64504591D01*
X90949054Y-64500485D01*
X90898259Y-64452512D01*
X90881463Y-64384692D01*
X90903999Y-64318556D01*
X90949054Y-64279515D01*
X90957816Y-64275051D01*
X90997555Y-64246179D01*
X91129786Y-64150109D01*
X91129788Y-64150106D01*
X91129792Y-64150104D01*
X91280104Y-63999792D01*
X91405051Y-63827816D01*
X91501557Y-63638412D01*
X91567246Y-63436243D01*
X91600500Y-63226287D01*
X91600500Y-63013713D01*
X91567246Y-62803757D01*
X91501557Y-62601588D01*
X91405051Y-62412184D01*
X91405049Y-62412181D01*
X91405048Y-62412179D01*
X91280109Y-62240213D01*
X91129786Y-62089890D01*
X90957820Y-61964951D01*
X90957115Y-61964591D01*
X90949054Y-61960485D01*
X90898259Y-61912512D01*
X90881463Y-61844692D01*
X90903999Y-61778556D01*
X90949054Y-61739515D01*
X90957816Y-61735051D01*
X90979789Y-61719086D01*
X91129786Y-61610109D01*
X91129788Y-61610106D01*
X91129792Y-61610104D01*
X91280104Y-61459792D01*
X91287386Y-61449768D01*
X91333953Y-61385675D01*
X134682000Y-61385675D01*
X134682000Y-61594324D01*
X134714637Y-61800389D01*
X134779112Y-61998820D01*
X134825515Y-62089890D01*
X134873830Y-62184714D01*
X134996465Y-62353505D01*
X135143995Y-62501035D01*
X135312786Y-62623670D01*
X135380848Y-62658349D01*
X135498679Y-62718387D01*
X135498681Y-62718387D01*
X135498684Y-62718389D01*
X135605045Y-62752948D01*
X135697110Y-62782862D01*
X135903176Y-62815500D01*
X135903181Y-62815500D01*
X136111824Y-62815500D01*
X136317889Y-62782862D01*
X136516316Y-62718389D01*
X136702214Y-62623670D01*
X136871005Y-62501035D01*
X137018535Y-62353505D01*
X137141170Y-62184714D01*
X137235889Y-61998816D01*
X137300362Y-61800389D01*
X137310004Y-61739514D01*
X137333000Y-61594324D01*
X137333000Y-61385675D01*
X137300362Y-61179610D01*
X137270448Y-61087545D01*
X137235889Y-60981184D01*
X137235887Y-60981181D01*
X137235887Y-60981179D01*
X137141169Y-60795285D01*
X137018535Y-60626495D01*
X136871005Y-60478965D01*
X136702214Y-60356330D01*
X136516320Y-60261612D01*
X136317889Y-60197137D01*
X136111824Y-60164500D01*
X136111819Y-60164500D01*
X135903181Y-60164500D01*
X135903176Y-60164500D01*
X135697110Y-60197137D01*
X135498679Y-60261612D01*
X135312785Y-60356330D01*
X135143993Y-60478966D01*
X134996466Y-60626493D01*
X134873830Y-60795285D01*
X134779112Y-60981179D01*
X134714637Y-61179610D01*
X134682000Y-61385675D01*
X91333953Y-61385675D01*
X91390443Y-61307924D01*
X91405049Y-61287819D01*
X91409514Y-61279056D01*
X91501557Y-61098412D01*
X91567246Y-60896243D01*
X91600500Y-60686287D01*
X91600500Y-60473713D01*
X91567246Y-60263757D01*
X91501557Y-60061588D01*
X91405051Y-59872184D01*
X91405049Y-59872181D01*
X91405048Y-59872179D01*
X91280109Y-59700213D01*
X91129786Y-59549890D01*
X90957817Y-59424949D01*
X90948504Y-59420204D01*
X90897707Y-59372230D01*
X90880912Y-59304409D01*
X90903449Y-59238274D01*
X90948507Y-59199232D01*
X90957555Y-59194622D01*
X91011716Y-59155270D01*
X91011717Y-59155270D01*
X90379408Y-58522962D01*
X90442993Y-58505925D01*
X90557007Y-58440099D01*
X90650099Y-58347007D01*
X90715925Y-58232993D01*
X90732962Y-58169408D01*
X91365270Y-58801717D01*
X91365270Y-58801716D01*
X91404622Y-58747554D01*
X91501095Y-58558217D01*
X91566757Y-58356130D01*
X91566757Y-58356127D01*
X91600000Y-58146246D01*
X91600000Y-58060981D01*
X125199500Y-58060981D01*
X125199500Y-58265684D01*
X125231522Y-58467867D01*
X125294781Y-58662556D01*
X125387715Y-58844946D01*
X125508028Y-59010546D01*
X125652786Y-59155304D01*
X125795235Y-59258797D01*
X125818390Y-59275620D01*
X125896290Y-59315312D01*
X126000776Y-59368551D01*
X126000778Y-59368551D01*
X126000781Y-59368553D01*
X126039594Y-59381164D01*
X126195465Y-59431810D01*
X126296557Y-59447821D01*
X126397648Y-59463833D01*
X126397649Y-59463833D01*
X126602351Y-59463833D01*
X126602352Y-59463833D01*
X126804534Y-59431810D01*
X126999219Y-59368553D01*
X127181610Y-59275620D01*
X127293095Y-59194622D01*
X127347213Y-59155304D01*
X127347215Y-59155301D01*
X127347219Y-59155299D01*
X127491966Y-59010552D01*
X127491968Y-59010548D01*
X127491971Y-59010546D01*
X127557911Y-58919786D01*
X127612287Y-58844943D01*
X127705220Y-58662552D01*
X127768477Y-58467867D01*
X127800500Y-58265685D01*
X127800500Y-58060981D01*
X127780349Y-57933753D01*
X127768477Y-57858798D01*
X127727600Y-57732993D01*
X127705220Y-57664114D01*
X127705218Y-57664111D01*
X127705218Y-57664109D01*
X127659343Y-57574075D01*
X127612287Y-57481723D01*
X127604556Y-57471082D01*
X127491971Y-57316119D01*
X127347213Y-57171361D01*
X127272576Y-57117135D01*
X134682000Y-57117135D01*
X134682000Y-58862870D01*
X134682001Y-58862876D01*
X134688408Y-58922483D01*
X134738702Y-59057328D01*
X134738706Y-59057335D01*
X134824952Y-59172544D01*
X134824955Y-59172547D01*
X134940164Y-59258793D01*
X134940171Y-59258797D01*
X135075017Y-59309091D01*
X135075016Y-59309091D01*
X135081944Y-59309835D01*
X135134627Y-59315500D01*
X136880372Y-59315499D01*
X136939983Y-59309091D01*
X137074831Y-59258796D01*
X137190046Y-59172546D01*
X137276296Y-59057331D01*
X137326591Y-58922483D01*
X137333000Y-58862873D01*
X137332999Y-57117128D01*
X137326591Y-57057517D01*
X137324178Y-57051048D01*
X137276297Y-56922671D01*
X137276293Y-56922664D01*
X137190047Y-56807455D01*
X137190044Y-56807452D01*
X137074835Y-56721206D01*
X137074828Y-56721202D01*
X136939982Y-56670908D01*
X136939983Y-56670908D01*
X136880383Y-56664501D01*
X136880381Y-56664500D01*
X136880373Y-56664500D01*
X136880364Y-56664500D01*
X135134629Y-56664500D01*
X135134623Y-56664501D01*
X135075016Y-56670908D01*
X134940171Y-56721202D01*
X134940164Y-56721206D01*
X134824955Y-56807452D01*
X134824952Y-56807455D01*
X134738706Y-56922664D01*
X134738702Y-56922671D01*
X134688408Y-57057517D01*
X134682001Y-57117116D01*
X134682001Y-57117123D01*
X134682000Y-57117135D01*
X127272576Y-57117135D01*
X127181613Y-57051048D01*
X127181612Y-57051047D01*
X127181610Y-57051046D01*
X127100837Y-57009890D01*
X126999223Y-56958114D01*
X126804534Y-56894855D01*
X126629995Y-56867211D01*
X126602352Y-56862833D01*
X126397648Y-56862833D01*
X126373329Y-56866684D01*
X126195465Y-56894855D01*
X126000776Y-56958114D01*
X125818386Y-57051048D01*
X125652786Y-57171361D01*
X125508028Y-57316119D01*
X125387715Y-57481719D01*
X125294781Y-57664109D01*
X125231522Y-57858798D01*
X125199500Y-58060981D01*
X91600000Y-58060981D01*
X91600000Y-57933753D01*
X91566757Y-57723872D01*
X91566757Y-57723869D01*
X91501095Y-57521782D01*
X91404624Y-57332449D01*
X91365270Y-57278282D01*
X91365269Y-57278282D01*
X90732962Y-57910590D01*
X90715925Y-57847007D01*
X90650099Y-57732993D01*
X90557007Y-57639901D01*
X90442993Y-57574075D01*
X90379409Y-57557037D01*
X91011716Y-56924728D01*
X90957547Y-56885373D01*
X90957547Y-56885372D01*
X90948500Y-56880763D01*
X90897706Y-56832788D01*
X90880912Y-56764966D01*
X90903451Y-56698832D01*
X90948508Y-56659793D01*
X90957816Y-56655051D01*
X91063212Y-56578477D01*
X91129786Y-56530109D01*
X91129788Y-56530106D01*
X91129792Y-56530104D01*
X91280104Y-56379792D01*
X91280106Y-56379788D01*
X91280109Y-56379786D01*
X91405048Y-56207820D01*
X91405047Y-56207820D01*
X91405051Y-56207816D01*
X91501557Y-56018412D01*
X91567246Y-55816243D01*
X91600500Y-55606287D01*
X91600500Y-55393713D01*
X91571030Y-55207648D01*
X125199500Y-55207648D01*
X125199500Y-55412351D01*
X125231522Y-55614534D01*
X125294781Y-55809223D01*
X125387715Y-55991613D01*
X125508028Y-56157213D01*
X125652786Y-56301971D01*
X125759900Y-56379792D01*
X125818390Y-56422287D01*
X125934607Y-56481503D01*
X126000776Y-56515218D01*
X126000778Y-56515218D01*
X126000781Y-56515220D01*
X126046605Y-56530109D01*
X126195465Y-56578477D01*
X126296557Y-56594488D01*
X126397648Y-56610500D01*
X126397649Y-56610500D01*
X126602351Y-56610500D01*
X126602352Y-56610500D01*
X126804534Y-56578477D01*
X126999219Y-56515220D01*
X127181610Y-56422287D01*
X127274590Y-56354732D01*
X127347213Y-56301971D01*
X127347215Y-56301968D01*
X127347219Y-56301966D01*
X127491966Y-56157219D01*
X127491968Y-56157215D01*
X127491971Y-56157213D01*
X127544732Y-56084590D01*
X127612287Y-55991610D01*
X127705220Y-55809219D01*
X127768477Y-55614534D01*
X127800500Y-55412352D01*
X127800500Y-55207648D01*
X127768477Y-55005466D01*
X127705220Y-54810781D01*
X127705218Y-54810778D01*
X127705218Y-54810776D01*
X127671503Y-54744607D01*
X127612287Y-54628390D01*
X127604556Y-54617749D01*
X127491971Y-54462786D01*
X127347213Y-54318028D01*
X127181613Y-54197715D01*
X127181612Y-54197714D01*
X127181610Y-54197713D01*
X127086987Y-54149500D01*
X126999223Y-54104781D01*
X126804534Y-54041522D01*
X126629995Y-54013878D01*
X126602352Y-54009500D01*
X126397648Y-54009500D01*
X126373329Y-54013351D01*
X126195465Y-54041522D01*
X126000776Y-54104781D01*
X125818386Y-54197715D01*
X125652786Y-54318028D01*
X125508028Y-54462786D01*
X125387715Y-54628386D01*
X125294781Y-54810776D01*
X125231522Y-55005465D01*
X125199500Y-55207648D01*
X91571030Y-55207648D01*
X91567246Y-55183757D01*
X91501557Y-54981588D01*
X91405051Y-54792184D01*
X91405049Y-54792181D01*
X91405048Y-54792179D01*
X91280109Y-54620213D01*
X91129786Y-54469890D01*
X90957817Y-54344949D01*
X90948504Y-54340204D01*
X90897707Y-54292230D01*
X90880912Y-54224409D01*
X90903449Y-54158274D01*
X90948507Y-54119232D01*
X90957555Y-54114622D01*
X91011716Y-54075270D01*
X91011717Y-54075270D01*
X90379408Y-53442962D01*
X90442993Y-53425925D01*
X90557007Y-53360099D01*
X90650099Y-53267007D01*
X90715925Y-53152993D01*
X90732962Y-53089408D01*
X91365270Y-53721717D01*
X91365270Y-53721716D01*
X91404622Y-53667554D01*
X91501095Y-53478217D01*
X91566757Y-53276130D01*
X91566757Y-53276127D01*
X91600000Y-53066246D01*
X91600000Y-52885720D01*
X134652500Y-52885720D01*
X134652500Y-53094279D01*
X134685126Y-53300272D01*
X134749575Y-53498627D01*
X134844259Y-53684451D01*
X134880127Y-53733818D01*
X134880127Y-53733819D01*
X135453712Y-53160234D01*
X135464982Y-53202292D01*
X135537390Y-53327708D01*
X135639792Y-53430110D01*
X135765208Y-53502518D01*
X135807265Y-53513787D01*
X135233679Y-54087371D01*
X135233680Y-54087372D01*
X135283043Y-54123236D01*
X135283056Y-54123244D01*
X135468872Y-54217924D01*
X135667227Y-54282373D01*
X135873221Y-54315000D01*
X136081779Y-54315000D01*
X136287772Y-54282373D01*
X136486127Y-54217924D01*
X136671951Y-54123240D01*
X136721318Y-54087372D01*
X136721318Y-54087371D01*
X136147734Y-53513787D01*
X136189792Y-53502518D01*
X136315208Y-53430110D01*
X136417610Y-53327708D01*
X136490018Y-53202292D01*
X136501287Y-53160234D01*
X137074871Y-53733818D01*
X137074872Y-53733818D01*
X137110740Y-53684451D01*
X137205424Y-53498627D01*
X137269873Y-53300272D01*
X137302500Y-53094279D01*
X137302500Y-52885720D01*
X137269873Y-52679727D01*
X137205424Y-52481372D01*
X137110744Y-52295556D01*
X137110736Y-52295543D01*
X137074872Y-52246180D01*
X137074871Y-52246179D01*
X136501287Y-52819764D01*
X136490018Y-52777708D01*
X136417610Y-52652292D01*
X136315208Y-52549890D01*
X136189792Y-52477482D01*
X136147733Y-52466212D01*
X136721319Y-51892627D01*
X136671951Y-51856759D01*
X136486127Y-51762075D01*
X136287772Y-51697626D01*
X136081779Y-51665000D01*
X135873221Y-51665000D01*
X135667227Y-51697626D01*
X135468872Y-51762075D01*
X135283052Y-51856757D01*
X135233680Y-51892627D01*
X135807266Y-52466212D01*
X135765208Y-52477482D01*
X135639792Y-52549890D01*
X135537390Y-52652292D01*
X135464982Y-52777708D01*
X135453712Y-52819765D01*
X134880127Y-52246180D01*
X134844257Y-52295552D01*
X134749575Y-52481372D01*
X134685126Y-52679727D01*
X134652500Y-52885720D01*
X91600000Y-52885720D01*
X91600000Y-52853753D01*
X91566757Y-52643872D01*
X91566757Y-52643869D01*
X91501095Y-52441782D01*
X91404624Y-52252449D01*
X91365270Y-52198282D01*
X91365269Y-52198282D01*
X90732962Y-52830590D01*
X90715925Y-52767007D01*
X90650099Y-52652993D01*
X90557007Y-52559901D01*
X90442993Y-52494075D01*
X90379409Y-52477037D01*
X91004240Y-51852205D01*
X91011716Y-51844728D01*
X90957547Y-51805373D01*
X90957547Y-51805372D01*
X90948500Y-51800763D01*
X90897706Y-51752788D01*
X90880912Y-51684966D01*
X90903451Y-51618832D01*
X90948508Y-51579793D01*
X90957816Y-51575051D01*
X91037007Y-51517515D01*
X91129786Y-51450109D01*
X91129788Y-51450106D01*
X91129792Y-51450104D01*
X91280104Y-51299792D01*
X91280106Y-51299788D01*
X91280109Y-51299786D01*
X91405048Y-51127820D01*
X91405047Y-51127820D01*
X91405051Y-51127816D01*
X91501557Y-50938412D01*
X91567246Y-50736243D01*
X91600500Y-50526287D01*
X91600500Y-50313713D01*
X91567246Y-50103757D01*
X91501557Y-49901588D01*
X91405051Y-49712184D01*
X91405049Y-49712181D01*
X91405048Y-49712179D01*
X91280109Y-49540213D01*
X91129786Y-49389890D01*
X91123984Y-49385675D01*
X134652000Y-49385675D01*
X134652000Y-49594324D01*
X134684637Y-49800389D01*
X134749112Y-49998820D01*
X134802582Y-50103760D01*
X134843830Y-50184714D01*
X134966465Y-50353505D01*
X135113995Y-50501035D01*
X135282786Y-50623670D01*
X135370616Y-50668421D01*
X135468679Y-50718387D01*
X135468681Y-50718387D01*
X135468684Y-50718389D01*
X135523621Y-50736239D01*
X135667110Y-50782862D01*
X135873176Y-50815500D01*
X135873181Y-50815500D01*
X136081824Y-50815500D01*
X136287889Y-50782862D01*
X136486316Y-50718389D01*
X136672214Y-50623670D01*
X136841005Y-50501035D01*
X136988535Y-50353505D01*
X137111170Y-50184714D01*
X137205889Y-49998816D01*
X137270362Y-49800389D01*
X137275809Y-49765998D01*
X137303000Y-49594324D01*
X137303000Y-49385675D01*
X137270362Y-49179610D01*
X137224842Y-49039516D01*
X137205889Y-48981184D01*
X137205887Y-48981181D01*
X137205887Y-48981179D01*
X137114737Y-48802287D01*
X137111170Y-48795286D01*
X136988535Y-48626495D01*
X136841005Y-48478965D01*
X136672214Y-48356330D01*
X136643403Y-48341650D01*
X136486320Y-48261612D01*
X136287889Y-48197137D01*
X136081824Y-48164500D01*
X136081819Y-48164500D01*
X135873181Y-48164500D01*
X135873176Y-48164500D01*
X135667110Y-48197137D01*
X135468679Y-48261612D01*
X135282785Y-48356330D01*
X135113993Y-48478966D01*
X134966466Y-48626493D01*
X134843830Y-48795285D01*
X134749112Y-48981179D01*
X134684637Y-49179610D01*
X134652000Y-49385675D01*
X91123984Y-49385675D01*
X90957820Y-49264951D01*
X90957115Y-49264591D01*
X90949054Y-49260485D01*
X90898259Y-49212512D01*
X90881463Y-49144692D01*
X90903999Y-49078556D01*
X90949054Y-49039515D01*
X90957816Y-49035051D01*
X91063212Y-48958477D01*
X91129786Y-48910109D01*
X91129788Y-48910106D01*
X91129792Y-48910104D01*
X91280104Y-48759792D01*
X91280106Y-48759788D01*
X91280109Y-48759786D01*
X91405048Y-48587820D01*
X91405047Y-48587820D01*
X91405051Y-48587816D01*
X91501557Y-48398412D01*
X91567246Y-48196243D01*
X91600500Y-47986287D01*
X91600500Y-47773713D01*
X91571030Y-47587648D01*
X125199500Y-47587648D01*
X125199500Y-47792351D01*
X125231522Y-47994534D01*
X125294781Y-48189223D01*
X125331666Y-48261612D01*
X125379927Y-48356330D01*
X125387715Y-48371613D01*
X125508028Y-48537213D01*
X125652786Y-48681971D01*
X125759900Y-48759792D01*
X125818390Y-48802287D01*
X125934607Y-48861503D01*
X126000776Y-48895218D01*
X126000778Y-48895218D01*
X126000781Y-48895220D01*
X126046605Y-48910109D01*
X126195465Y-48958477D01*
X126296557Y-48974488D01*
X126397648Y-48990500D01*
X126397649Y-48990500D01*
X126602351Y-48990500D01*
X126602352Y-48990500D01*
X126804534Y-48958477D01*
X126999219Y-48895220D01*
X127181610Y-48802287D01*
X127274590Y-48734732D01*
X127347213Y-48681971D01*
X127347215Y-48681968D01*
X127347219Y-48681966D01*
X127491966Y-48537219D01*
X127491968Y-48537215D01*
X127491971Y-48537213D01*
X127544732Y-48464590D01*
X127612287Y-48371610D01*
X127705220Y-48189219D01*
X127768477Y-47994534D01*
X127800500Y-47792352D01*
X127800500Y-47587648D01*
X127768477Y-47385466D01*
X127705220Y-47190781D01*
X127705218Y-47190778D01*
X127705218Y-47190776D01*
X127671503Y-47124607D01*
X127612287Y-47008390D01*
X127604556Y-46997749D01*
X127491971Y-46842786D01*
X127347213Y-46698028D01*
X127181613Y-46577715D01*
X127181612Y-46577714D01*
X127181610Y-46577713D01*
X127122296Y-46547491D01*
X126999223Y-46484781D01*
X126804534Y-46421522D01*
X126629995Y-46393878D01*
X126602352Y-46389500D01*
X126397648Y-46389500D01*
X126373329Y-46393351D01*
X126195465Y-46421522D01*
X126000776Y-46484781D01*
X125818386Y-46577715D01*
X125652786Y-46698028D01*
X125508028Y-46842786D01*
X125387715Y-47008386D01*
X125294781Y-47190776D01*
X125231522Y-47385465D01*
X125199500Y-47587648D01*
X91571030Y-47587648D01*
X91567246Y-47563757D01*
X91501557Y-47361588D01*
X91405051Y-47172184D01*
X91405049Y-47172181D01*
X91405048Y-47172179D01*
X91280109Y-47000213D01*
X91129786Y-46849890D01*
X90957820Y-46724951D01*
X90957115Y-46724591D01*
X90949054Y-46720485D01*
X90898259Y-46672512D01*
X90881463Y-46604692D01*
X90903999Y-46538556D01*
X90949054Y-46499515D01*
X90957816Y-46495051D01*
X90979789Y-46479086D01*
X91129786Y-46370109D01*
X91129788Y-46370106D01*
X91129792Y-46370104D01*
X91280104Y-46219792D01*
X91280106Y-46219788D01*
X91280109Y-46219786D01*
X91405048Y-46047820D01*
X91405047Y-46047820D01*
X91405051Y-46047816D01*
X91501557Y-45858412D01*
X91567246Y-45656243D01*
X91600500Y-45446287D01*
X91600500Y-45233713D01*
X91582035Y-45117135D01*
X134652000Y-45117135D01*
X134652000Y-46862870D01*
X134652001Y-46862876D01*
X134658408Y-46922483D01*
X134708702Y-47057328D01*
X134708706Y-47057335D01*
X134794952Y-47172544D01*
X134794955Y-47172547D01*
X134910164Y-47258793D01*
X134910171Y-47258797D01*
X135045017Y-47309091D01*
X135045016Y-47309091D01*
X135051944Y-47309835D01*
X135104627Y-47315500D01*
X136850372Y-47315499D01*
X136909983Y-47309091D01*
X137044831Y-47258796D01*
X137160046Y-47172546D01*
X137246296Y-47057331D01*
X137296591Y-46922483D01*
X137303000Y-46862873D01*
X137302999Y-45117128D01*
X137296591Y-45057517D01*
X137284000Y-45023760D01*
X137246297Y-44922671D01*
X137246293Y-44922664D01*
X137160047Y-44807455D01*
X137160044Y-44807452D01*
X137044835Y-44721206D01*
X137044828Y-44721202D01*
X136909982Y-44670908D01*
X136909983Y-44670908D01*
X136850383Y-44664501D01*
X136850381Y-44664500D01*
X136850373Y-44664500D01*
X136850364Y-44664500D01*
X135104629Y-44664500D01*
X135104623Y-44664501D01*
X135045016Y-44670908D01*
X134910171Y-44721202D01*
X134910164Y-44721206D01*
X134794955Y-44807452D01*
X134794952Y-44807455D01*
X134708706Y-44922664D01*
X134708702Y-44922671D01*
X134658408Y-45057517D01*
X134652001Y-45117116D01*
X134652001Y-45117123D01*
X134652000Y-45117135D01*
X91582035Y-45117135D01*
X91582034Y-45117127D01*
X91567246Y-45023760D01*
X91567246Y-45023757D01*
X91501557Y-44821588D01*
X91405051Y-44632184D01*
X91405049Y-44632181D01*
X91405048Y-44632179D01*
X91280109Y-44460213D01*
X91129786Y-44309890D01*
X90957820Y-44184951D01*
X90768414Y-44088444D01*
X90768413Y-44088443D01*
X90768412Y-44088443D01*
X90566243Y-44022754D01*
X90566241Y-44022753D01*
X90566240Y-44022753D01*
X90404957Y-43997208D01*
X90356287Y-43989500D01*
X90143713Y-43989500D01*
X90095042Y-43997208D01*
X89933760Y-44022753D01*
X89731585Y-44088444D01*
X89542179Y-44184951D01*
X89370213Y-44309890D01*
X89219890Y-44460213D01*
X89094949Y-44632182D01*
X89090484Y-44640946D01*
X89042509Y-44691742D01*
X88974688Y-44708536D01*
X88908553Y-44685998D01*
X88869516Y-44640946D01*
X88865050Y-44632182D01*
X88740109Y-44460213D01*
X88589786Y-44309890D01*
X88417820Y-44184951D01*
X88228414Y-44088444D01*
X88228413Y-44088443D01*
X88228412Y-44088443D01*
X88026243Y-44022754D01*
X88026241Y-44022753D01*
X88026240Y-44022753D01*
X87864957Y-43997208D01*
X87816287Y-43989500D01*
X87603713Y-43989500D01*
X87555042Y-43997208D01*
X87393760Y-44022753D01*
X87191585Y-44088444D01*
X87002179Y-44184951D01*
X86830213Y-44309890D01*
X86679890Y-44460213D01*
X86554951Y-44632179D01*
X86458444Y-44821585D01*
X86392753Y-45023760D01*
X86359500Y-45233713D01*
X86000500Y-45233713D01*
X86000500Y-42172351D01*
X86020185Y-42105312D01*
X86072989Y-42059557D01*
X86142147Y-42049613D01*
X86205703Y-42078638D01*
X86229492Y-42106377D01*
X86385685Y-42354956D01*
X86609812Y-42636003D01*
X86863997Y-42890188D01*
X87145044Y-43114315D01*
X87449418Y-43305566D01*
X87773292Y-43461536D01*
X88028119Y-43550703D01*
X88112580Y-43580258D01*
X88112592Y-43580262D01*
X88463052Y-43660252D01*
X88820260Y-43700499D01*
X88820261Y-43700500D01*
X88820264Y-43700500D01*
X89179739Y-43700500D01*
X89179739Y-43700499D01*
X89536948Y-43660252D01*
X89887408Y-43580262D01*
X90226708Y-43461536D01*
X90550582Y-43305566D01*
X90854956Y-43114315D01*
X91136003Y-42890188D01*
X91390188Y-42636003D01*
X91614315Y-42354956D01*
X91805566Y-42050582D01*
X91961536Y-41726708D01*
X92080262Y-41387408D01*
X92160252Y-41036948D01*
X92200500Y-40679736D01*
X92200500Y-40320264D01*
X92160252Y-39963052D01*
X92080262Y-39612592D01*
X91961536Y-39273292D01*
X91805566Y-38949418D01*
X91614315Y-38645044D01*
X91390188Y-38363997D01*
X91136003Y-38109812D01*
X90854956Y-37885685D01*
X90606380Y-37729494D01*
X90560089Y-37677159D01*
X90549441Y-37608106D01*
X90577816Y-37544257D01*
X90636206Y-37505885D01*
X90672352Y-37500500D01*
X136327648Y-37500500D01*
X136394687Y-37520185D01*
G37*
%TD.AperFunction*%
%TD*%
M02*
