M48
; DRILL file {KiCad 9.0.2} date 2026-05-05T19:36:51-0700
; FORMAT={-:-/ absolute / inch / decimal}
; #@! TF.CreationDate,2026-05-05T19:36:51-07:00
; #@! TF.GenerationSoftware,Kicad,Pcbnew,9.0.2
; #@! TF.FileFunction,Plated,1,4,PTH
FMAT,2
INCH
; #@! TA.AperFunction,Plated,PTH,ComponentDrill
T1C0.0315
; #@! TA.AperFunction,Plated,PTH,ComponentDrill
T2C0.0394
; #@! TA.AperFunction,Plated,PTH,ComponentDrill
T3C0.0433
; #@! TA.AperFunction,Plated,PTH,ComponentDrill
T4C0.1063
%
G90
G05
T1
X3.7004Y-3.4622
X4.0004Y-3.4622
X4.1165Y-3.4622
X4.4165Y-3.4622
X4.5402Y-3.4622
X4.8402Y-3.4622
X4.9803Y-1.8776
X4.9803Y-2.1776
X4.9803Y-2.2899
X4.9803Y-2.5899
X4.9803Y-2.729
X4.9803Y-3.029
X4.9803Y-3.1681
X4.9803Y-3.4681
T2
X3.4531Y-1.785
X3.4531Y-1.885
X3.4531Y-1.985
X3.4531Y-2.085
X3.4531Y-2.185
X3.4531Y-2.285
X3.4531Y-2.385
X3.4531Y-2.485
X3.4531Y-2.585
X3.4531Y-2.685
X3.4531Y-2.785
X3.4531Y-2.885
X3.4531Y-2.985
X3.4531Y-3.085
X3.4531Y-3.185
X3.4531Y-3.285
X3.4531Y-3.385
X3.4531Y-3.485
X3.4531Y-3.585
X3.4531Y-3.685
X3.5531Y-1.785
X3.5531Y-1.885
X3.5531Y-1.985
X3.5531Y-2.085
X3.5531Y-2.185
X3.5531Y-2.285
X3.5531Y-2.385
X3.5531Y-2.485
X3.5531Y-2.585
X3.5531Y-2.685
X3.5531Y-2.785
X3.5531Y-2.885
X3.5531Y-2.985
X3.5531Y-3.085
X3.5531Y-3.185
X3.5531Y-3.285
X3.5531Y-3.385
X3.5531Y-3.485
X3.5531Y-3.585
X3.5531Y-3.685
T3
X3.839Y-3.7988
X3.9768Y-3.7988
X4.1146Y-3.7988
X4.3118Y-3.8007
X4.4496Y-3.8007
X4.5874Y-3.8007
X4.7803Y-3.8028
X4.9181Y-3.8028
X5.0559Y-3.8028
X5.3534Y-1.8106
X5.3534Y-1.9484
X5.3534Y-2.0862
X5.3543Y-3.2283
X5.3543Y-3.3661
X5.3543Y-3.5039
X5.3546Y-2.2831
X5.3546Y-2.4209
X5.3546Y-2.5587
X5.3546Y-2.7555
X5.3546Y-2.8933
X5.3546Y-3.0311
T4
X3.5039Y-1.5945
X3.5039Y-3.878
X5.4331Y-1.5945
X5.4331Y-3.878
M30
