%TF.GenerationSoftware,KiCad,Pcbnew,9.0.2*%
%TF.CreationDate,2026-05-05T18:45:39-07:00*%
%TF.ProjectId,Freezer test board,46726565-7a65-4722-9074-65737420626f,rev?*%
%TF.SameCoordinates,Original*%
%TF.FileFunction,Soldermask,Bot*%
%TF.FilePolarity,Negative*%
%FSLAX46Y46*%
G04 Gerber Fmt 4.6, Leading zero omitted, Abs format (unit mm)*
G04 Created by KiCad (PCBNEW 9.0.2) date 2026-05-05 18:45:39*
%MOMM*%
%LPD*%
G01*
G04 APERTURE LIST*
G04 Aperture macros list*
%AMRoundRect*
0 Rectangle with rounded corners*
0 $1 Rounding radius*
0 $2 $3 $4 $5 $6 $7 $8 $9 X,Y pos of 4 corners*
0 Add a 4 corners polygon primitive as box body*
4,1,4,$2,$3,$4,$5,$6,$7,$8,$9,$2,$3,0*
0 Add four circle primitives for the rounded corners*
1,1,$1+$1,$2,$3*
1,1,$1+$1,$4,$5*
1,1,$1+$1,$6,$7*
1,1,$1+$1,$8,$9*
0 Add four rect primitives between the rounded corners*
20,1,$1+$1,$2,$3,$4,$5,0*
20,1,$1+$1,$4,$5,$6,$7,0*
20,1,$1+$1,$6,$7,$8,$9,0*
20,1,$1+$1,$8,$9,$2,$3,0*%
G04 Aperture macros list end*
%ADD10C,0.075000*%
%ADD11C,0.050000*%
%ADD12C,1.600000*%
%ADD13R,1.700000X1.700000*%
%ADD14C,1.700000*%
%ADD15C,5.400000*%
%ADD16RoundRect,0.102000X-0.825000X0.825000X-0.825000X-0.825000X0.825000X-0.825000X0.825000X0.825000X0*%
%ADD17C,1.854000*%
%ADD18RoundRect,0.102000X0.825000X0.825000X-0.825000X0.825000X-0.825000X-0.825000X0.825000X-0.825000X0*%
G04 APERTURE END LIST*
D10*
X139910181Y-94428195D02*
X139910181Y-93894861D01*
X139910181Y-93628195D02*
X139948277Y-93666290D01*
X139948277Y-93666290D02*
X139910181Y-93704385D01*
X139910181Y-93704385D02*
X139872086Y-93666290D01*
X139872086Y-93666290D02*
X139910181Y-93628195D01*
X139910181Y-93628195D02*
X139910181Y-93704385D01*
X139529229Y-94428195D02*
X139529229Y-93894861D01*
X139529229Y-93971052D02*
X139491134Y-93932957D01*
X139491134Y-93932957D02*
X139414944Y-93894861D01*
X139414944Y-93894861D02*
X139300658Y-93894861D01*
X139300658Y-93894861D02*
X139224467Y-93932957D01*
X139224467Y-93932957D02*
X139186372Y-94009147D01*
X139186372Y-94009147D02*
X139186372Y-94428195D01*
X139186372Y-94009147D02*
X139148277Y-93932957D01*
X139148277Y-93932957D02*
X139072086Y-93894861D01*
X139072086Y-93894861D02*
X138957801Y-93894861D01*
X138957801Y-93894861D02*
X138881610Y-93932957D01*
X138881610Y-93932957D02*
X138843515Y-94009147D01*
X138843515Y-94009147D02*
X138843515Y-94428195D01*
X137510181Y-94428195D02*
X137510181Y-94009147D01*
X137510181Y-94009147D02*
X137548276Y-93932957D01*
X137548276Y-93932957D02*
X137624467Y-93894861D01*
X137624467Y-93894861D02*
X137776848Y-93894861D01*
X137776848Y-93894861D02*
X137853038Y-93932957D01*
X137510181Y-94390100D02*
X137586372Y-94428195D01*
X137586372Y-94428195D02*
X137776848Y-94428195D01*
X137776848Y-94428195D02*
X137853038Y-94390100D01*
X137853038Y-94390100D02*
X137891134Y-94313909D01*
X137891134Y-94313909D02*
X137891134Y-94237719D01*
X137891134Y-94237719D02*
X137853038Y-94161528D01*
X137853038Y-94161528D02*
X137776848Y-94123433D01*
X137776848Y-94123433D02*
X137586372Y-94123433D01*
X137586372Y-94123433D02*
X137510181Y-94085338D01*
X136176847Y-94428195D02*
X136176847Y-93628195D01*
X136176847Y-94390100D02*
X136253038Y-94428195D01*
X136253038Y-94428195D02*
X136405419Y-94428195D01*
X136405419Y-94428195D02*
X136481609Y-94390100D01*
X136481609Y-94390100D02*
X136519704Y-94352004D01*
X136519704Y-94352004D02*
X136557800Y-94275814D01*
X136557800Y-94275814D02*
X136557800Y-94047242D01*
X136557800Y-94047242D02*
X136519704Y-93971052D01*
X136519704Y-93971052D02*
X136481609Y-93932957D01*
X136481609Y-93932957D02*
X136405419Y-93894861D01*
X136405419Y-93894861D02*
X136253038Y-93894861D01*
X136253038Y-93894861D02*
X136176847Y-93932957D01*
X135453037Y-94428195D02*
X135453037Y-94009147D01*
X135453037Y-94009147D02*
X135491132Y-93932957D01*
X135491132Y-93932957D02*
X135567323Y-93894861D01*
X135567323Y-93894861D02*
X135719704Y-93894861D01*
X135719704Y-93894861D02*
X135795894Y-93932957D01*
X135453037Y-94390100D02*
X135529228Y-94428195D01*
X135529228Y-94428195D02*
X135719704Y-94428195D01*
X135719704Y-94428195D02*
X135795894Y-94390100D01*
X135795894Y-94390100D02*
X135833990Y-94313909D01*
X135833990Y-94313909D02*
X135833990Y-94237719D01*
X135833990Y-94237719D02*
X135795894Y-94161528D01*
X135795894Y-94161528D02*
X135719704Y-94123433D01*
X135719704Y-94123433D02*
X135529228Y-94123433D01*
X135529228Y-94123433D02*
X135453037Y-94085338D01*
X135072084Y-93894861D02*
X135072084Y-94428195D01*
X135072084Y-93971052D02*
X135033989Y-93932957D01*
X135033989Y-93932957D02*
X134957799Y-93894861D01*
X134957799Y-93894861D02*
X134843513Y-93894861D01*
X134843513Y-93894861D02*
X134767322Y-93932957D01*
X134767322Y-93932957D02*
X134729227Y-94009147D01*
X134729227Y-94009147D02*
X134729227Y-94428195D01*
X134005417Y-94428195D02*
X134005417Y-93628195D01*
X134005417Y-94390100D02*
X134081608Y-94428195D01*
X134081608Y-94428195D02*
X134233989Y-94428195D01*
X134233989Y-94428195D02*
X134310179Y-94390100D01*
X134310179Y-94390100D02*
X134348274Y-94352004D01*
X134348274Y-94352004D02*
X134386370Y-94275814D01*
X134386370Y-94275814D02*
X134386370Y-94047242D01*
X134386370Y-94047242D02*
X134348274Y-93971052D01*
X134348274Y-93971052D02*
X134310179Y-93932957D01*
X134310179Y-93932957D02*
X134233989Y-93894861D01*
X134233989Y-93894861D02*
X134081608Y-93894861D01*
X134081608Y-93894861D02*
X134005417Y-93932957D01*
X133319702Y-94390100D02*
X133395893Y-94428195D01*
X133395893Y-94428195D02*
X133548274Y-94428195D01*
X133548274Y-94428195D02*
X133624464Y-94390100D01*
X133624464Y-94390100D02*
X133662560Y-94313909D01*
X133662560Y-94313909D02*
X133662560Y-94009147D01*
X133662560Y-94009147D02*
X133624464Y-93932957D01*
X133624464Y-93932957D02*
X133548274Y-93894861D01*
X133548274Y-93894861D02*
X133395893Y-93894861D01*
X133395893Y-93894861D02*
X133319702Y-93932957D01*
X133319702Y-93932957D02*
X133281607Y-94009147D01*
X133281607Y-94009147D02*
X133281607Y-94085338D01*
X133281607Y-94085338D02*
X133662560Y-94161528D01*
X132824465Y-94428195D02*
X132900655Y-94390100D01*
X132900655Y-94390100D02*
X132938750Y-94313909D01*
X132938750Y-94313909D02*
X132938750Y-93628195D01*
X132519702Y-94428195D02*
X132519702Y-93894861D01*
X132519702Y-93628195D02*
X132557798Y-93666290D01*
X132557798Y-93666290D02*
X132519702Y-93704385D01*
X132519702Y-93704385D02*
X132481607Y-93666290D01*
X132481607Y-93666290D02*
X132519702Y-93628195D01*
X132519702Y-93628195D02*
X132519702Y-93704385D01*
X132024465Y-94428195D02*
X132100655Y-94390100D01*
X132100655Y-94390100D02*
X132138750Y-94352004D01*
X132138750Y-94352004D02*
X132176846Y-94275814D01*
X132176846Y-94275814D02*
X132176846Y-94047242D01*
X132176846Y-94047242D02*
X132138750Y-93971052D01*
X132138750Y-93971052D02*
X132100655Y-93932957D01*
X132100655Y-93932957D02*
X132024465Y-93894861D01*
X132024465Y-93894861D02*
X131910179Y-93894861D01*
X131910179Y-93894861D02*
X131833988Y-93932957D01*
X131833988Y-93932957D02*
X131795893Y-93971052D01*
X131795893Y-93971052D02*
X131757798Y-94047242D01*
X131757798Y-94047242D02*
X131757798Y-94275814D01*
X131757798Y-94275814D02*
X131795893Y-94352004D01*
X131795893Y-94352004D02*
X131833988Y-94390100D01*
X131833988Y-94390100D02*
X131910179Y-94428195D01*
X131910179Y-94428195D02*
X132024465Y-94428195D01*
X131414940Y-93894861D02*
X131414940Y-94428195D01*
X131414940Y-93971052D02*
X131376845Y-93932957D01*
X131376845Y-93932957D02*
X131300655Y-93894861D01*
X131300655Y-93894861D02*
X131186369Y-93894861D01*
X131186369Y-93894861D02*
X131110178Y-93932957D01*
X131110178Y-93932957D02*
X131072083Y-94009147D01*
X131072083Y-94009147D02*
X131072083Y-94428195D01*
X130195892Y-93894861D02*
X129891130Y-93894861D01*
X130081606Y-93628195D02*
X130081606Y-94313909D01*
X130081606Y-94313909D02*
X130043511Y-94390100D01*
X130043511Y-94390100D02*
X129967321Y-94428195D01*
X129967321Y-94428195D02*
X129891130Y-94428195D01*
X129700654Y-93894861D02*
X129548273Y-94428195D01*
X129548273Y-94428195D02*
X129395892Y-94047242D01*
X129395892Y-94047242D02*
X129243511Y-94428195D01*
X129243511Y-94428195D02*
X129091130Y-93894861D01*
X128786368Y-94428195D02*
X128786368Y-93894861D01*
X128786368Y-93628195D02*
X128824464Y-93666290D01*
X128824464Y-93666290D02*
X128786368Y-93704385D01*
X128786368Y-93704385D02*
X128748273Y-93666290D01*
X128748273Y-93666290D02*
X128786368Y-93628195D01*
X128786368Y-93628195D02*
X128786368Y-93704385D01*
X128405416Y-93894861D02*
X128405416Y-94428195D01*
X128405416Y-93971052D02*
X128367321Y-93932957D01*
X128367321Y-93932957D02*
X128291131Y-93894861D01*
X128291131Y-93894861D02*
X128176845Y-93894861D01*
X128176845Y-93894861D02*
X128100654Y-93932957D01*
X128100654Y-93932957D02*
X128062559Y-94009147D01*
X128062559Y-94009147D02*
X128062559Y-94428195D01*
D11*
X129836629Y-39509495D02*
X129836629Y-38709495D01*
X129836629Y-38709495D02*
X129569963Y-39280923D01*
X129569963Y-39280923D02*
X129303296Y-38709495D01*
X129303296Y-38709495D02*
X129303296Y-39509495D01*
X128579486Y-39509495D02*
X128579486Y-39090447D01*
X128579486Y-39090447D02*
X128617581Y-39014257D01*
X128617581Y-39014257D02*
X128693772Y-38976161D01*
X128693772Y-38976161D02*
X128846153Y-38976161D01*
X128846153Y-38976161D02*
X128922343Y-39014257D01*
X128579486Y-39471400D02*
X128655677Y-39509495D01*
X128655677Y-39509495D02*
X128846153Y-39509495D01*
X128846153Y-39509495D02*
X128922343Y-39471400D01*
X128922343Y-39471400D02*
X128960439Y-39395209D01*
X128960439Y-39395209D02*
X128960439Y-39319019D01*
X128960439Y-39319019D02*
X128922343Y-39242828D01*
X128922343Y-39242828D02*
X128846153Y-39204733D01*
X128846153Y-39204733D02*
X128655677Y-39204733D01*
X128655677Y-39204733D02*
X128579486Y-39166638D01*
X127855676Y-39509495D02*
X127855676Y-38709495D01*
X127855676Y-39471400D02*
X127931867Y-39509495D01*
X127931867Y-39509495D02*
X128084248Y-39509495D01*
X128084248Y-39509495D02*
X128160438Y-39471400D01*
X128160438Y-39471400D02*
X128198533Y-39433304D01*
X128198533Y-39433304D02*
X128236629Y-39357114D01*
X128236629Y-39357114D02*
X128236629Y-39128542D01*
X128236629Y-39128542D02*
X128198533Y-39052352D01*
X128198533Y-39052352D02*
X128160438Y-39014257D01*
X128160438Y-39014257D02*
X128084248Y-38976161D01*
X128084248Y-38976161D02*
X127931867Y-38976161D01*
X127931867Y-38976161D02*
X127855676Y-39014257D01*
X127169961Y-39471400D02*
X127246152Y-39509495D01*
X127246152Y-39509495D02*
X127398533Y-39509495D01*
X127398533Y-39509495D02*
X127474723Y-39471400D01*
X127474723Y-39471400D02*
X127512819Y-39395209D01*
X127512819Y-39395209D02*
X127512819Y-39090447D01*
X127512819Y-39090447D02*
X127474723Y-39014257D01*
X127474723Y-39014257D02*
X127398533Y-38976161D01*
X127398533Y-38976161D02*
X127246152Y-38976161D01*
X127246152Y-38976161D02*
X127169961Y-39014257D01*
X127169961Y-39014257D02*
X127131866Y-39090447D01*
X127131866Y-39090447D02*
X127131866Y-39166638D01*
X127131866Y-39166638D02*
X127512819Y-39242828D01*
X126255676Y-38976161D02*
X126103295Y-39509495D01*
X126103295Y-39509495D02*
X125950914Y-39128542D01*
X125950914Y-39128542D02*
X125798533Y-39509495D01*
X125798533Y-39509495D02*
X125646152Y-38976161D01*
X125341390Y-39509495D02*
X125341390Y-38976161D01*
X125341390Y-38709495D02*
X125379486Y-38747590D01*
X125379486Y-38747590D02*
X125341390Y-38785685D01*
X125341390Y-38785685D02*
X125303295Y-38747590D01*
X125303295Y-38747590D02*
X125341390Y-38709495D01*
X125341390Y-38709495D02*
X125341390Y-38785685D01*
X125074724Y-38976161D02*
X124769962Y-38976161D01*
X124960438Y-38709495D02*
X124960438Y-39395209D01*
X124960438Y-39395209D02*
X124922343Y-39471400D01*
X124922343Y-39471400D02*
X124846153Y-39509495D01*
X124846153Y-39509495D02*
X124769962Y-39509495D01*
X124503295Y-39509495D02*
X124503295Y-38709495D01*
X124160438Y-39509495D02*
X124160438Y-39090447D01*
X124160438Y-39090447D02*
X124198533Y-39014257D01*
X124198533Y-39014257D02*
X124274724Y-38976161D01*
X124274724Y-38976161D02*
X124389010Y-38976161D01*
X124389010Y-38976161D02*
X124465200Y-39014257D01*
X124465200Y-39014257D02*
X124503295Y-39052352D01*
X123284247Y-38976161D02*
X122979485Y-38976161D01*
X123169961Y-38709495D02*
X123169961Y-39395209D01*
X123169961Y-39395209D02*
X123131866Y-39471400D01*
X123131866Y-39471400D02*
X123055676Y-39509495D01*
X123055676Y-39509495D02*
X122979485Y-39509495D01*
X122712818Y-39509495D02*
X122712818Y-38709495D01*
X122369961Y-39509495D02*
X122369961Y-39090447D01*
X122369961Y-39090447D02*
X122408056Y-39014257D01*
X122408056Y-39014257D02*
X122484247Y-38976161D01*
X122484247Y-38976161D02*
X122598533Y-38976161D01*
X122598533Y-38976161D02*
X122674723Y-39014257D01*
X122674723Y-39014257D02*
X122712818Y-39052352D01*
X121684246Y-39471400D02*
X121760437Y-39509495D01*
X121760437Y-39509495D02*
X121912818Y-39509495D01*
X121912818Y-39509495D02*
X121989008Y-39471400D01*
X121989008Y-39471400D02*
X122027104Y-39395209D01*
X122027104Y-39395209D02*
X122027104Y-39090447D01*
X122027104Y-39090447D02*
X121989008Y-39014257D01*
X121989008Y-39014257D02*
X121912818Y-38976161D01*
X121912818Y-38976161D02*
X121760437Y-38976161D01*
X121760437Y-38976161D02*
X121684246Y-39014257D01*
X121684246Y-39014257D02*
X121646151Y-39090447D01*
X121646151Y-39090447D02*
X121646151Y-39166638D01*
X121646151Y-39166638D02*
X122027104Y-39242828D01*
X120693770Y-39509495D02*
X120693770Y-38709495D01*
X120693770Y-38709495D02*
X120389008Y-38709495D01*
X120389008Y-38709495D02*
X120312818Y-38747590D01*
X120312818Y-38747590D02*
X120274723Y-38785685D01*
X120274723Y-38785685D02*
X120236627Y-38861876D01*
X120236627Y-38861876D02*
X120236627Y-38976161D01*
X120236627Y-38976161D02*
X120274723Y-39052352D01*
X120274723Y-39052352D02*
X120312818Y-39090447D01*
X120312818Y-39090447D02*
X120389008Y-39128542D01*
X120389008Y-39128542D02*
X120693770Y-39128542D01*
X119779485Y-39509495D02*
X119855675Y-39471400D01*
X119855675Y-39471400D02*
X119893770Y-39433304D01*
X119893770Y-39433304D02*
X119931866Y-39357114D01*
X119931866Y-39357114D02*
X119931866Y-39128542D01*
X119931866Y-39128542D02*
X119893770Y-39052352D01*
X119893770Y-39052352D02*
X119855675Y-39014257D01*
X119855675Y-39014257D02*
X119779485Y-38976161D01*
X119779485Y-38976161D02*
X119665199Y-38976161D01*
X119665199Y-38976161D02*
X119589008Y-39014257D01*
X119589008Y-39014257D02*
X119550913Y-39052352D01*
X119550913Y-39052352D02*
X119512818Y-39128542D01*
X119512818Y-39128542D02*
X119512818Y-39357114D01*
X119512818Y-39357114D02*
X119550913Y-39433304D01*
X119550913Y-39433304D02*
X119589008Y-39471400D01*
X119589008Y-39471400D02*
X119665199Y-39509495D01*
X119665199Y-39509495D02*
X119779485Y-39509495D01*
X119246151Y-38976161D02*
X119093770Y-39509495D01*
X119093770Y-39509495D02*
X118941389Y-39128542D01*
X118941389Y-39128542D02*
X118789008Y-39509495D01*
X118789008Y-39509495D02*
X118636627Y-38976161D01*
X118027103Y-39471400D02*
X118103294Y-39509495D01*
X118103294Y-39509495D02*
X118255675Y-39509495D01*
X118255675Y-39509495D02*
X118331865Y-39471400D01*
X118331865Y-39471400D02*
X118369961Y-39395209D01*
X118369961Y-39395209D02*
X118369961Y-39090447D01*
X118369961Y-39090447D02*
X118331865Y-39014257D01*
X118331865Y-39014257D02*
X118255675Y-38976161D01*
X118255675Y-38976161D02*
X118103294Y-38976161D01*
X118103294Y-38976161D02*
X118027103Y-39014257D01*
X118027103Y-39014257D02*
X117989008Y-39090447D01*
X117989008Y-39090447D02*
X117989008Y-39166638D01*
X117989008Y-39166638D02*
X118369961Y-39242828D01*
X117646151Y-39509495D02*
X117646151Y-38976161D01*
X117646151Y-39128542D02*
X117608056Y-39052352D01*
X117608056Y-39052352D02*
X117569961Y-39014257D01*
X117569961Y-39014257D02*
X117493770Y-38976161D01*
X117493770Y-38976161D02*
X117417580Y-38976161D01*
X116427104Y-39509495D02*
X116503294Y-39471400D01*
X116503294Y-39471400D02*
X116541389Y-39433304D01*
X116541389Y-39433304D02*
X116579485Y-39357114D01*
X116579485Y-39357114D02*
X116579485Y-39128542D01*
X116579485Y-39128542D02*
X116541389Y-39052352D01*
X116541389Y-39052352D02*
X116503294Y-39014257D01*
X116503294Y-39014257D02*
X116427104Y-38976161D01*
X116427104Y-38976161D02*
X116312818Y-38976161D01*
X116312818Y-38976161D02*
X116236627Y-39014257D01*
X116236627Y-39014257D02*
X116198532Y-39052352D01*
X116198532Y-39052352D02*
X116160437Y-39128542D01*
X116160437Y-39128542D02*
X116160437Y-39357114D01*
X116160437Y-39357114D02*
X116198532Y-39433304D01*
X116198532Y-39433304D02*
X116236627Y-39471400D01*
X116236627Y-39471400D02*
X116312818Y-39509495D01*
X116312818Y-39509495D02*
X116427104Y-39509495D01*
X115931865Y-38976161D02*
X115627103Y-38976161D01*
X115817579Y-39509495D02*
X115817579Y-38823780D01*
X115817579Y-38823780D02*
X115779484Y-38747590D01*
X115779484Y-38747590D02*
X115703294Y-38709495D01*
X115703294Y-38709495D02*
X115627103Y-38709495D01*
X114789008Y-38709495D02*
X114789008Y-38861876D01*
X114484246Y-38709495D02*
X114484246Y-38861876D01*
X114217579Y-38709495D02*
X114027103Y-39509495D01*
X114027103Y-39509495D02*
X113874722Y-38938066D01*
X113874722Y-38938066D02*
X113722341Y-39509495D01*
X113722341Y-39509495D02*
X113531865Y-38709495D01*
X113227102Y-39509495D02*
X113227102Y-38709495D01*
X112884245Y-39509495D02*
X112884245Y-39090447D01*
X112884245Y-39090447D02*
X112922340Y-39014257D01*
X112922340Y-39014257D02*
X112998531Y-38976161D01*
X112998531Y-38976161D02*
X113112817Y-38976161D01*
X113112817Y-38976161D02*
X113189007Y-39014257D01*
X113189007Y-39014257D02*
X113227102Y-39052352D01*
X112160435Y-39509495D02*
X112160435Y-39090447D01*
X112160435Y-39090447D02*
X112198530Y-39014257D01*
X112198530Y-39014257D02*
X112274721Y-38976161D01*
X112274721Y-38976161D02*
X112427102Y-38976161D01*
X112427102Y-38976161D02*
X112503292Y-39014257D01*
X112160435Y-39471400D02*
X112236626Y-39509495D01*
X112236626Y-39509495D02*
X112427102Y-39509495D01*
X112427102Y-39509495D02*
X112503292Y-39471400D01*
X112503292Y-39471400D02*
X112541388Y-39395209D01*
X112541388Y-39395209D02*
X112541388Y-39319019D01*
X112541388Y-39319019D02*
X112503292Y-39242828D01*
X112503292Y-39242828D02*
X112427102Y-39204733D01*
X112427102Y-39204733D02*
X112236626Y-39204733D01*
X112236626Y-39204733D02*
X112160435Y-39166638D01*
X111893768Y-38976161D02*
X111589006Y-38976161D01*
X111779482Y-38709495D02*
X111779482Y-39395209D01*
X111779482Y-39395209D02*
X111741387Y-39471400D01*
X111741387Y-39471400D02*
X111665197Y-39509495D01*
X111665197Y-39509495D02*
X111589006Y-39509495D01*
X110369958Y-39509495D02*
X110369958Y-39090447D01*
X110369958Y-39090447D02*
X110408053Y-39014257D01*
X110408053Y-39014257D02*
X110484244Y-38976161D01*
X110484244Y-38976161D02*
X110636625Y-38976161D01*
X110636625Y-38976161D02*
X110712815Y-39014257D01*
X110369958Y-39471400D02*
X110446149Y-39509495D01*
X110446149Y-39509495D02*
X110636625Y-39509495D01*
X110636625Y-39509495D02*
X110712815Y-39471400D01*
X110712815Y-39471400D02*
X110750911Y-39395209D01*
X110750911Y-39395209D02*
X110750911Y-39319019D01*
X110750911Y-39319019D02*
X110712815Y-39242828D01*
X110712815Y-39242828D02*
X110636625Y-39204733D01*
X110636625Y-39204733D02*
X110446149Y-39204733D01*
X110446149Y-39204733D02*
X110369958Y-39166638D01*
X109989005Y-39509495D02*
X109989005Y-38976161D01*
X109989005Y-39128542D02*
X109950910Y-39052352D01*
X109950910Y-39052352D02*
X109912815Y-39014257D01*
X109912815Y-39014257D02*
X109836624Y-38976161D01*
X109836624Y-38976161D02*
X109760434Y-38976161D01*
X109189005Y-39471400D02*
X109265196Y-39509495D01*
X109265196Y-39509495D02*
X109417577Y-39509495D01*
X109417577Y-39509495D02*
X109493767Y-39471400D01*
X109493767Y-39471400D02*
X109531863Y-39395209D01*
X109531863Y-39395209D02*
X109531863Y-39090447D01*
X109531863Y-39090447D02*
X109493767Y-39014257D01*
X109493767Y-39014257D02*
X109417577Y-38976161D01*
X109417577Y-38976161D02*
X109265196Y-38976161D01*
X109265196Y-38976161D02*
X109189005Y-39014257D01*
X109189005Y-39014257D02*
X109150910Y-39090447D01*
X109150910Y-39090447D02*
X109150910Y-39166638D01*
X109150910Y-39166638D02*
X109531863Y-39242828D01*
X108274720Y-38976161D02*
X108122339Y-39509495D01*
X108122339Y-39509495D02*
X107969958Y-39128542D01*
X107969958Y-39128542D02*
X107817577Y-39509495D01*
X107817577Y-39509495D02*
X107665196Y-38976161D01*
X107055672Y-39471400D02*
X107131863Y-39509495D01*
X107131863Y-39509495D02*
X107284244Y-39509495D01*
X107284244Y-39509495D02*
X107360434Y-39471400D01*
X107360434Y-39471400D02*
X107398530Y-39395209D01*
X107398530Y-39395209D02*
X107398530Y-39090447D01*
X107398530Y-39090447D02*
X107360434Y-39014257D01*
X107360434Y-39014257D02*
X107284244Y-38976161D01*
X107284244Y-38976161D02*
X107131863Y-38976161D01*
X107131863Y-38976161D02*
X107055672Y-39014257D01*
X107055672Y-39014257D02*
X107017577Y-39090447D01*
X107017577Y-39090447D02*
X107017577Y-39166638D01*
X107017577Y-39166638D02*
X107398530Y-39242828D01*
X105722339Y-39509495D02*
X105722339Y-38709495D01*
X105722339Y-39471400D02*
X105798530Y-39509495D01*
X105798530Y-39509495D02*
X105950911Y-39509495D01*
X105950911Y-39509495D02*
X106027101Y-39471400D01*
X106027101Y-39471400D02*
X106065196Y-39433304D01*
X106065196Y-39433304D02*
X106103292Y-39357114D01*
X106103292Y-39357114D02*
X106103292Y-39128542D01*
X106103292Y-39128542D02*
X106065196Y-39052352D01*
X106065196Y-39052352D02*
X106027101Y-39014257D01*
X106027101Y-39014257D02*
X105950911Y-38976161D01*
X105950911Y-38976161D02*
X105798530Y-38976161D01*
X105798530Y-38976161D02*
X105722339Y-39014257D01*
X105227101Y-39509495D02*
X105303291Y-39471400D01*
X105303291Y-39471400D02*
X105341386Y-39433304D01*
X105341386Y-39433304D02*
X105379482Y-39357114D01*
X105379482Y-39357114D02*
X105379482Y-39128542D01*
X105379482Y-39128542D02*
X105341386Y-39052352D01*
X105341386Y-39052352D02*
X105303291Y-39014257D01*
X105303291Y-39014257D02*
X105227101Y-38976161D01*
X105227101Y-38976161D02*
X105112815Y-38976161D01*
X105112815Y-38976161D02*
X105036624Y-39014257D01*
X105036624Y-39014257D02*
X104998529Y-39052352D01*
X104998529Y-39052352D02*
X104960434Y-39128542D01*
X104960434Y-39128542D02*
X104960434Y-39357114D01*
X104960434Y-39357114D02*
X104998529Y-39433304D01*
X104998529Y-39433304D02*
X105036624Y-39471400D01*
X105036624Y-39471400D02*
X105112815Y-39509495D01*
X105112815Y-39509495D02*
X105227101Y-39509495D01*
X104617576Y-39509495D02*
X104617576Y-38976161D01*
X104617576Y-38709495D02*
X104655672Y-38747590D01*
X104655672Y-38747590D02*
X104617576Y-38785685D01*
X104617576Y-38785685D02*
X104579481Y-38747590D01*
X104579481Y-38747590D02*
X104617576Y-38709495D01*
X104617576Y-38709495D02*
X104617576Y-38785685D01*
X104236624Y-38976161D02*
X104236624Y-39509495D01*
X104236624Y-39052352D02*
X104198529Y-39014257D01*
X104198529Y-39014257D02*
X104122339Y-38976161D01*
X104122339Y-38976161D02*
X104008053Y-38976161D01*
X104008053Y-38976161D02*
X103931862Y-39014257D01*
X103931862Y-39014257D02*
X103893767Y-39090447D01*
X103893767Y-39090447D02*
X103893767Y-39509495D01*
X103169957Y-38976161D02*
X103169957Y-39623780D01*
X103169957Y-39623780D02*
X103208052Y-39699971D01*
X103208052Y-39699971D02*
X103246148Y-39738066D01*
X103246148Y-39738066D02*
X103322338Y-39776161D01*
X103322338Y-39776161D02*
X103436624Y-39776161D01*
X103436624Y-39776161D02*
X103512814Y-39738066D01*
X103169957Y-39471400D02*
X103246148Y-39509495D01*
X103246148Y-39509495D02*
X103398529Y-39509495D01*
X103398529Y-39509495D02*
X103474719Y-39471400D01*
X103474719Y-39471400D02*
X103512814Y-39433304D01*
X103512814Y-39433304D02*
X103550910Y-39357114D01*
X103550910Y-39357114D02*
X103550910Y-39128542D01*
X103550910Y-39128542D02*
X103512814Y-39052352D01*
X103512814Y-39052352D02*
X103474719Y-39014257D01*
X103474719Y-39014257D02*
X103398529Y-38976161D01*
X103398529Y-38976161D02*
X103246148Y-38976161D01*
X103246148Y-38976161D02*
X103169957Y-39014257D01*
X102179480Y-39509495D02*
X102179480Y-38709495D01*
X102179480Y-38709495D02*
X101912814Y-39280923D01*
X101912814Y-39280923D02*
X101646147Y-38709495D01*
X101646147Y-38709495D02*
X101646147Y-39509495D01*
X100922337Y-39509495D02*
X100922337Y-39090447D01*
X100922337Y-39090447D02*
X100960432Y-39014257D01*
X100960432Y-39014257D02*
X101036623Y-38976161D01*
X101036623Y-38976161D02*
X101189004Y-38976161D01*
X101189004Y-38976161D02*
X101265194Y-39014257D01*
X100922337Y-39471400D02*
X100998528Y-39509495D01*
X100998528Y-39509495D02*
X101189004Y-39509495D01*
X101189004Y-39509495D02*
X101265194Y-39471400D01*
X101265194Y-39471400D02*
X101303290Y-39395209D01*
X101303290Y-39395209D02*
X101303290Y-39319019D01*
X101303290Y-39319019D02*
X101265194Y-39242828D01*
X101265194Y-39242828D02*
X101189004Y-39204733D01*
X101189004Y-39204733D02*
X100998528Y-39204733D01*
X100998528Y-39204733D02*
X100922337Y-39166638D01*
X100541384Y-38976161D02*
X100541384Y-39509495D01*
X100541384Y-39052352D02*
X100503289Y-39014257D01*
X100503289Y-39014257D02*
X100427099Y-38976161D01*
X100427099Y-38976161D02*
X100312813Y-38976161D01*
X100312813Y-38976161D02*
X100236622Y-39014257D01*
X100236622Y-39014257D02*
X100198527Y-39090447D01*
X100198527Y-39090447D02*
X100198527Y-39509495D01*
X99817574Y-38976161D02*
X99817574Y-39509495D01*
X99817574Y-39052352D02*
X99779479Y-39014257D01*
X99779479Y-39014257D02*
X99703289Y-38976161D01*
X99703289Y-38976161D02*
X99589003Y-38976161D01*
X99589003Y-38976161D02*
X99512812Y-39014257D01*
X99512812Y-39014257D02*
X99474717Y-39090447D01*
X99474717Y-39090447D02*
X99474717Y-39509495D01*
X99093764Y-38976161D02*
X99093764Y-39509495D01*
X99093764Y-39052352D02*
X99055669Y-39014257D01*
X99055669Y-39014257D02*
X98979479Y-38976161D01*
X98979479Y-38976161D02*
X98865193Y-38976161D01*
X98865193Y-38976161D02*
X98789002Y-39014257D01*
X98789002Y-39014257D02*
X98750907Y-39090447D01*
X98750907Y-39090447D02*
X98750907Y-39509495D01*
X98408050Y-38709495D02*
X98408050Y-38861876D01*
X98103288Y-38709495D02*
X98103288Y-38861876D01*
X97760430Y-39204733D02*
X97150907Y-39204733D01*
X96884240Y-38709495D02*
X96427097Y-38709495D01*
X96655669Y-39509495D02*
X96655669Y-38709495D01*
X96160430Y-39509495D02*
X96160430Y-38976161D01*
X96160430Y-39128542D02*
X96122335Y-39052352D01*
X96122335Y-39052352D02*
X96084240Y-39014257D01*
X96084240Y-39014257D02*
X96008049Y-38976161D01*
X96008049Y-38976161D02*
X95931859Y-38976161D01*
X95665192Y-39509495D02*
X95665192Y-38976161D01*
X95665192Y-38709495D02*
X95703288Y-38747590D01*
X95703288Y-38747590D02*
X95665192Y-38785685D01*
X95665192Y-38785685D02*
X95627097Y-38747590D01*
X95627097Y-38747590D02*
X95665192Y-38709495D01*
X95665192Y-38709495D02*
X95665192Y-38785685D01*
D12*
%TO.C,R7*%
X101610000Y-87940000D03*
X93990000Y-87940000D03*
%TD*%
%TO.C,R1*%
X126500000Y-47010000D03*
X126500000Y-54630000D03*
%TD*%
D13*
%TO.C,J2*%
X87710000Y-93600000D03*
D14*
X90250000Y-93600000D03*
X87710000Y-91060000D03*
X90250000Y-91060000D03*
X87710000Y-88520000D03*
X90250000Y-88520000D03*
X87710000Y-85980000D03*
X90250000Y-85980000D03*
X87710000Y-83440000D03*
X90250000Y-83440000D03*
X87710000Y-80900000D03*
X90250000Y-80900000D03*
X87710000Y-78360000D03*
X90250000Y-78360000D03*
X87710000Y-75820000D03*
X90250000Y-75820000D03*
X87710000Y-73280000D03*
X90250000Y-73280000D03*
X87710000Y-70740000D03*
X90250000Y-70740000D03*
X87710000Y-68200000D03*
X90250000Y-68200000D03*
X87710000Y-65660000D03*
X90250000Y-65660000D03*
X87710000Y-63120000D03*
X90250000Y-63120000D03*
X87710000Y-60580000D03*
X90250000Y-60580000D03*
X87710000Y-58040000D03*
X90250000Y-58040000D03*
X87710000Y-55500000D03*
X90250000Y-55500000D03*
X87710000Y-52960000D03*
X90250000Y-52960000D03*
X87710000Y-50420000D03*
X90250000Y-50420000D03*
X87710000Y-47880000D03*
X90250000Y-47880000D03*
X87710000Y-45340000D03*
X90250000Y-45340000D03*
%TD*%
D12*
%TO.C,R4*%
X126500000Y-80470000D03*
X126500000Y-88090000D03*
%TD*%
D15*
%TO.C,H2*%
X89000000Y-98500000D03*
%TD*%
D12*
%TO.C,R2*%
X126500000Y-58163333D03*
X126500000Y-65783333D03*
%TD*%
D15*
%TO.C,H4*%
X138000000Y-98500000D03*
%TD*%
D12*
%TO.C,R3*%
X126500000Y-69316667D03*
X126500000Y-76936667D03*
%TD*%
D16*
%TO.C,J3*%
X135977500Y-45990000D03*
D17*
X135977500Y-49490000D03*
X135977500Y-52990000D03*
%TD*%
D16*
%TO.C,J5*%
X136007500Y-69990000D03*
D17*
X136007500Y-73490000D03*
X136007500Y-76990000D03*
%TD*%
D12*
%TO.C,R5*%
X122940000Y-87940000D03*
X115320000Y-87940000D03*
%TD*%
D15*
%TO.C,H3*%
X138000000Y-40500000D03*
%TD*%
D18*
%TO.C,J9*%
X104510000Y-96490000D03*
D17*
X101010000Y-96490000D03*
X97510000Y-96490000D03*
%TD*%
D16*
%TO.C,J6*%
X136000000Y-82000000D03*
D17*
X136000000Y-85500000D03*
X136000000Y-89000000D03*
%TD*%
D12*
%TO.C,R6*%
X112180000Y-87940000D03*
X104560000Y-87940000D03*
%TD*%
D18*
%TO.C,J7*%
X128420000Y-96590000D03*
D17*
X124920000Y-96590000D03*
X121420000Y-96590000D03*
%TD*%
D18*
%TO.C,J8*%
X116520000Y-96537500D03*
D17*
X113020000Y-96537500D03*
X109520000Y-96537500D03*
%TD*%
D16*
%TO.C,J4*%
X136007500Y-57990000D03*
D17*
X136007500Y-61490000D03*
X136007500Y-64990000D03*
%TD*%
D15*
%TO.C,H1*%
X89000000Y-40500000D03*
%TD*%
M02*
