%TF.GenerationSoftware,KiCad,Pcbnew,9.0.2*%
%TF.CreationDate,2026-05-05T19:36:51-07:00*%
%TF.ProjectId,Freezer test board,46726565-7a65-4722-9074-65737420626f,rev?*%
%TF.SameCoordinates,Original*%
%TF.FileFunction,Soldermask,Top*%
%TF.FilePolarity,Negative*%
%FSLAX46Y46*%
G04 Gerber Fmt 4.6, Leading zero omitted, Abs format (unit mm)*
G04 Created by KiCad (PCBNEW 9.0.2) date 2026-05-05 19:36:51*
%MOMM*%
%LPD*%
G01*
G04 APERTURE LIST*
G04 Aperture macros list*
%AMRoundRect*
0 Rectangle with rounded corners*
0 $1 Rounding radius*
0 $2 $3 $4 $5 $6 $7 $8 $9 X,Y pos of 4 corners*
0 Add a 4 corners polygon primitive as box body*
4,1,4,$2,$3,$4,$5,$6,$7,$8,$9,$2,$3,0*
0 Add four circle primitives for the rounded corners*
1,1,$1+$1,$2,$3*
1,1,$1+$1,$4,$5*
1,1,$1+$1,$6,$7*
1,1,$1+$1,$8,$9*
0 Add four rect primitives between the rounded corners*
20,1,$1+$1,$2,$3,$4,$5,0*
20,1,$1+$1,$4,$5,$6,$7,0*
20,1,$1+$1,$6,$7,$8,$9,0*
20,1,$1+$1,$8,$9,$2,$3,0*%
G04 Aperture macros list end*
%ADD10C,0.400000*%
%ADD11C,0.100000*%
%ADD12C,0.240000*%
%ADD13C,0.000000*%
%ADD14C,1.600000*%
%ADD15R,1.700000X1.700000*%
%ADD16C,1.700000*%
%ADD17C,5.400000*%
%ADD18RoundRect,0.102000X-0.825000X0.825000X-0.825000X-0.825000X0.825000X-0.825000X0.825000X0.825000X0*%
%ADD19C,1.854000*%
%ADD20RoundRect,0.102000X0.825000X0.825000X-0.825000X0.825000X-0.825000X-0.825000X0.825000X-0.825000X0*%
G04 APERTURE END LIST*
D10*
X94428571Y-39869057D02*
X93828571Y-39869057D01*
X93828571Y-40811914D02*
X93828571Y-39011914D01*
X93828571Y-39011914D02*
X94685714Y-39011914D01*
X96399999Y-40811914D02*
X95799999Y-39954771D01*
X95371428Y-40811914D02*
X95371428Y-39011914D01*
X95371428Y-39011914D02*
X96057142Y-39011914D01*
X96057142Y-39011914D02*
X96228571Y-39097628D01*
X96228571Y-39097628D02*
X96314285Y-39183342D01*
X96314285Y-39183342D02*
X96399999Y-39354771D01*
X96399999Y-39354771D02*
X96399999Y-39611914D01*
X96399999Y-39611914D02*
X96314285Y-39783342D01*
X96314285Y-39783342D02*
X96228571Y-39869057D01*
X96228571Y-39869057D02*
X96057142Y-39954771D01*
X96057142Y-39954771D02*
X95371428Y-39954771D01*
X97171428Y-39869057D02*
X97771428Y-39869057D01*
X98028571Y-40811914D02*
X97171428Y-40811914D01*
X97171428Y-40811914D02*
X97171428Y-39011914D01*
X97171428Y-39011914D02*
X98028571Y-39011914D01*
X98799999Y-39869057D02*
X99399999Y-39869057D01*
X99657142Y-40811914D02*
X98799999Y-40811914D01*
X98799999Y-40811914D02*
X98799999Y-39011914D01*
X98799999Y-39011914D02*
X99657142Y-39011914D01*
X100257141Y-39011914D02*
X101457141Y-39011914D01*
X101457141Y-39011914D02*
X100257141Y-40811914D01*
X100257141Y-40811914D02*
X101457141Y-40811914D01*
X102142856Y-39869057D02*
X102742856Y-39869057D01*
X102999999Y-40811914D02*
X102142856Y-40811914D01*
X102142856Y-40811914D02*
X102142856Y-39011914D01*
X102142856Y-39011914D02*
X102999999Y-39011914D01*
X104799998Y-40811914D02*
X104199998Y-39954771D01*
X103771427Y-40811914D02*
X103771427Y-39011914D01*
X103771427Y-39011914D02*
X104457141Y-39011914D01*
X104457141Y-39011914D02*
X104628570Y-39097628D01*
X104628570Y-39097628D02*
X104714284Y-39183342D01*
X104714284Y-39183342D02*
X104799998Y-39354771D01*
X104799998Y-39354771D02*
X104799998Y-39611914D01*
X104799998Y-39611914D02*
X104714284Y-39783342D01*
X104714284Y-39783342D02*
X104628570Y-39869057D01*
X104628570Y-39869057D02*
X104457141Y-39954771D01*
X104457141Y-39954771D02*
X103771427Y-39954771D01*
X106685713Y-39011914D02*
X107714285Y-39011914D01*
X107199999Y-40811914D02*
X107199999Y-39011914D01*
X108314285Y-39869057D02*
X108914285Y-39869057D01*
X109171428Y-40811914D02*
X108314285Y-40811914D01*
X108314285Y-40811914D02*
X108314285Y-39011914D01*
X108314285Y-39011914D02*
X109171428Y-39011914D01*
X109857142Y-40726200D02*
X110114285Y-40811914D01*
X110114285Y-40811914D02*
X110542856Y-40811914D01*
X110542856Y-40811914D02*
X110714285Y-40726200D01*
X110714285Y-40726200D02*
X110799999Y-40640485D01*
X110799999Y-40640485D02*
X110885713Y-40469057D01*
X110885713Y-40469057D02*
X110885713Y-40297628D01*
X110885713Y-40297628D02*
X110799999Y-40126200D01*
X110799999Y-40126200D02*
X110714285Y-40040485D01*
X110714285Y-40040485D02*
X110542856Y-39954771D01*
X110542856Y-39954771D02*
X110199999Y-39869057D01*
X110199999Y-39869057D02*
X110028570Y-39783342D01*
X110028570Y-39783342D02*
X109942856Y-39697628D01*
X109942856Y-39697628D02*
X109857142Y-39526200D01*
X109857142Y-39526200D02*
X109857142Y-39354771D01*
X109857142Y-39354771D02*
X109942856Y-39183342D01*
X109942856Y-39183342D02*
X110028570Y-39097628D01*
X110028570Y-39097628D02*
X110199999Y-39011914D01*
X110199999Y-39011914D02*
X110628570Y-39011914D01*
X110628570Y-39011914D02*
X110885713Y-39097628D01*
X111399999Y-39011914D02*
X112428571Y-39011914D01*
X111914285Y-40811914D02*
X111914285Y-39011914D01*
D11*
X95190474Y-45396895D02*
X95190474Y-44596895D01*
X95190474Y-44596895D02*
X95380950Y-44596895D01*
X95380950Y-44596895D02*
X95495236Y-44634990D01*
X95495236Y-44634990D02*
X95571426Y-44711180D01*
X95571426Y-44711180D02*
X95609521Y-44787371D01*
X95609521Y-44787371D02*
X95647617Y-44939752D01*
X95647617Y-44939752D02*
X95647617Y-45054038D01*
X95647617Y-45054038D02*
X95609521Y-45206419D01*
X95609521Y-45206419D02*
X95571426Y-45282609D01*
X95571426Y-45282609D02*
X95495236Y-45358800D01*
X95495236Y-45358800D02*
X95380950Y-45396895D01*
X95380950Y-45396895D02*
X95190474Y-45396895D01*
X96295236Y-45358800D02*
X96219045Y-45396895D01*
X96219045Y-45396895D02*
X96066664Y-45396895D01*
X96066664Y-45396895D02*
X95990474Y-45358800D01*
X95990474Y-45358800D02*
X95952378Y-45282609D01*
X95952378Y-45282609D02*
X95952378Y-44977847D01*
X95952378Y-44977847D02*
X95990474Y-44901657D01*
X95990474Y-44901657D02*
X96066664Y-44863561D01*
X96066664Y-44863561D02*
X96219045Y-44863561D01*
X96219045Y-44863561D02*
X96295236Y-44901657D01*
X96295236Y-44901657D02*
X96333331Y-44977847D01*
X96333331Y-44977847D02*
X96333331Y-45054038D01*
X96333331Y-45054038D02*
X95952378Y-45130228D01*
X96638092Y-45358800D02*
X96714283Y-45396895D01*
X96714283Y-45396895D02*
X96866664Y-45396895D01*
X96866664Y-45396895D02*
X96942854Y-45358800D01*
X96942854Y-45358800D02*
X96980950Y-45282609D01*
X96980950Y-45282609D02*
X96980950Y-45244514D01*
X96980950Y-45244514D02*
X96942854Y-45168323D01*
X96942854Y-45168323D02*
X96866664Y-45130228D01*
X96866664Y-45130228D02*
X96752378Y-45130228D01*
X96752378Y-45130228D02*
X96676188Y-45092133D01*
X96676188Y-45092133D02*
X96638092Y-45015942D01*
X96638092Y-45015942D02*
X96638092Y-44977847D01*
X96638092Y-44977847D02*
X96676188Y-44901657D01*
X96676188Y-44901657D02*
X96752378Y-44863561D01*
X96752378Y-44863561D02*
X96866664Y-44863561D01*
X96866664Y-44863561D02*
X96942854Y-44901657D01*
X97323807Y-45396895D02*
X97323807Y-44863561D01*
X97323807Y-44596895D02*
X97285711Y-44634990D01*
X97285711Y-44634990D02*
X97323807Y-44673085D01*
X97323807Y-44673085D02*
X97361902Y-44634990D01*
X97361902Y-44634990D02*
X97323807Y-44596895D01*
X97323807Y-44596895D02*
X97323807Y-44673085D01*
X98047616Y-44863561D02*
X98047616Y-45511180D01*
X98047616Y-45511180D02*
X98009521Y-45587371D01*
X98009521Y-45587371D02*
X97971425Y-45625466D01*
X97971425Y-45625466D02*
X97895235Y-45663561D01*
X97895235Y-45663561D02*
X97780949Y-45663561D01*
X97780949Y-45663561D02*
X97704759Y-45625466D01*
X98047616Y-45358800D02*
X97971425Y-45396895D01*
X97971425Y-45396895D02*
X97819044Y-45396895D01*
X97819044Y-45396895D02*
X97742854Y-45358800D01*
X97742854Y-45358800D02*
X97704759Y-45320704D01*
X97704759Y-45320704D02*
X97666663Y-45244514D01*
X97666663Y-45244514D02*
X97666663Y-45015942D01*
X97666663Y-45015942D02*
X97704759Y-44939752D01*
X97704759Y-44939752D02*
X97742854Y-44901657D01*
X97742854Y-44901657D02*
X97819044Y-44863561D01*
X97819044Y-44863561D02*
X97971425Y-44863561D01*
X97971425Y-44863561D02*
X98047616Y-44901657D01*
X98428569Y-44863561D02*
X98428569Y-45396895D01*
X98428569Y-44939752D02*
X98466664Y-44901657D01*
X98466664Y-44901657D02*
X98542854Y-44863561D01*
X98542854Y-44863561D02*
X98657140Y-44863561D01*
X98657140Y-44863561D02*
X98733331Y-44901657D01*
X98733331Y-44901657D02*
X98771426Y-44977847D01*
X98771426Y-44977847D02*
X98771426Y-45396895D01*
X99457141Y-45358800D02*
X99380950Y-45396895D01*
X99380950Y-45396895D02*
X99228569Y-45396895D01*
X99228569Y-45396895D02*
X99152379Y-45358800D01*
X99152379Y-45358800D02*
X99114283Y-45282609D01*
X99114283Y-45282609D02*
X99114283Y-44977847D01*
X99114283Y-44977847D02*
X99152379Y-44901657D01*
X99152379Y-44901657D02*
X99228569Y-44863561D01*
X99228569Y-44863561D02*
X99380950Y-44863561D01*
X99380950Y-44863561D02*
X99457141Y-44901657D01*
X99457141Y-44901657D02*
X99495236Y-44977847D01*
X99495236Y-44977847D02*
X99495236Y-45054038D01*
X99495236Y-45054038D02*
X99114283Y-45130228D01*
X100180950Y-45396895D02*
X100180950Y-44596895D01*
X100180950Y-45358800D02*
X100104759Y-45396895D01*
X100104759Y-45396895D02*
X99952378Y-45396895D01*
X99952378Y-45396895D02*
X99876188Y-45358800D01*
X99876188Y-45358800D02*
X99838093Y-45320704D01*
X99838093Y-45320704D02*
X99799997Y-45244514D01*
X99799997Y-45244514D02*
X99799997Y-45015942D01*
X99799997Y-45015942D02*
X99838093Y-44939752D01*
X99838093Y-44939752D02*
X99876188Y-44901657D01*
X99876188Y-44901657D02*
X99952378Y-44863561D01*
X99952378Y-44863561D02*
X100104759Y-44863561D01*
X100104759Y-44863561D02*
X100180950Y-44901657D01*
X101171427Y-45396895D02*
X101171427Y-44596895D01*
X101171427Y-44901657D02*
X101247617Y-44863561D01*
X101247617Y-44863561D02*
X101399998Y-44863561D01*
X101399998Y-44863561D02*
X101476189Y-44901657D01*
X101476189Y-44901657D02*
X101514284Y-44939752D01*
X101514284Y-44939752D02*
X101552379Y-45015942D01*
X101552379Y-45015942D02*
X101552379Y-45244514D01*
X101552379Y-45244514D02*
X101514284Y-45320704D01*
X101514284Y-45320704D02*
X101476189Y-45358800D01*
X101476189Y-45358800D02*
X101399998Y-45396895D01*
X101399998Y-45396895D02*
X101247617Y-45396895D01*
X101247617Y-45396895D02*
X101171427Y-45358800D01*
X101819046Y-44863561D02*
X102009522Y-45396895D01*
X102199999Y-44863561D02*
X102009522Y-45396895D01*
X102009522Y-45396895D02*
X101933332Y-45587371D01*
X101933332Y-45587371D02*
X101895237Y-45625466D01*
X101895237Y-45625466D02*
X101819046Y-45663561D01*
X103342856Y-44596895D02*
X103342856Y-45168323D01*
X103342856Y-45168323D02*
X103304761Y-45282609D01*
X103304761Y-45282609D02*
X103228570Y-45358800D01*
X103228570Y-45358800D02*
X103114285Y-45396895D01*
X103114285Y-45396895D02*
X103038094Y-45396895D01*
X104066666Y-45396895D02*
X104066666Y-44977847D01*
X104066666Y-44977847D02*
X104028571Y-44901657D01*
X104028571Y-44901657D02*
X103952380Y-44863561D01*
X103952380Y-44863561D02*
X103799999Y-44863561D01*
X103799999Y-44863561D02*
X103723809Y-44901657D01*
X104066666Y-45358800D02*
X103990475Y-45396895D01*
X103990475Y-45396895D02*
X103799999Y-45396895D01*
X103799999Y-45396895D02*
X103723809Y-45358800D01*
X103723809Y-45358800D02*
X103685713Y-45282609D01*
X103685713Y-45282609D02*
X103685713Y-45206419D01*
X103685713Y-45206419D02*
X103723809Y-45130228D01*
X103723809Y-45130228D02*
X103799999Y-45092133D01*
X103799999Y-45092133D02*
X103990475Y-45092133D01*
X103990475Y-45092133D02*
X104066666Y-45054038D01*
X104409523Y-45358800D02*
X104485714Y-45396895D01*
X104485714Y-45396895D02*
X104638095Y-45396895D01*
X104638095Y-45396895D02*
X104714285Y-45358800D01*
X104714285Y-45358800D02*
X104752381Y-45282609D01*
X104752381Y-45282609D02*
X104752381Y-45244514D01*
X104752381Y-45244514D02*
X104714285Y-45168323D01*
X104714285Y-45168323D02*
X104638095Y-45130228D01*
X104638095Y-45130228D02*
X104523809Y-45130228D01*
X104523809Y-45130228D02*
X104447619Y-45092133D01*
X104447619Y-45092133D02*
X104409523Y-45015942D01*
X104409523Y-45015942D02*
X104409523Y-44977847D01*
X104409523Y-44977847D02*
X104447619Y-44901657D01*
X104447619Y-44901657D02*
X104523809Y-44863561D01*
X104523809Y-44863561D02*
X104638095Y-44863561D01*
X104638095Y-44863561D02*
X104714285Y-44901657D01*
X105209523Y-45396895D02*
X105133333Y-45358800D01*
X105133333Y-45358800D02*
X105095238Y-45320704D01*
X105095238Y-45320704D02*
X105057142Y-45244514D01*
X105057142Y-45244514D02*
X105057142Y-45015942D01*
X105057142Y-45015942D02*
X105095238Y-44939752D01*
X105095238Y-44939752D02*
X105133333Y-44901657D01*
X105133333Y-44901657D02*
X105209523Y-44863561D01*
X105209523Y-44863561D02*
X105323809Y-44863561D01*
X105323809Y-44863561D02*
X105400000Y-44901657D01*
X105400000Y-44901657D02*
X105438095Y-44939752D01*
X105438095Y-44939752D02*
X105476190Y-45015942D01*
X105476190Y-45015942D02*
X105476190Y-45244514D01*
X105476190Y-45244514D02*
X105438095Y-45320704D01*
X105438095Y-45320704D02*
X105400000Y-45358800D01*
X105400000Y-45358800D02*
X105323809Y-45396895D01*
X105323809Y-45396895D02*
X105209523Y-45396895D01*
X105819048Y-44863561D02*
X105819048Y-45396895D01*
X105819048Y-44939752D02*
X105857143Y-44901657D01*
X105857143Y-44901657D02*
X105933333Y-44863561D01*
X105933333Y-44863561D02*
X106047619Y-44863561D01*
X106047619Y-44863561D02*
X106123810Y-44901657D01*
X106123810Y-44901657D02*
X106161905Y-44977847D01*
X106161905Y-44977847D02*
X106161905Y-45396895D01*
X107114286Y-45358800D02*
X107228572Y-45396895D01*
X107228572Y-45396895D02*
X107419048Y-45396895D01*
X107419048Y-45396895D02*
X107495239Y-45358800D01*
X107495239Y-45358800D02*
X107533334Y-45320704D01*
X107533334Y-45320704D02*
X107571429Y-45244514D01*
X107571429Y-45244514D02*
X107571429Y-45168323D01*
X107571429Y-45168323D02*
X107533334Y-45092133D01*
X107533334Y-45092133D02*
X107495239Y-45054038D01*
X107495239Y-45054038D02*
X107419048Y-45015942D01*
X107419048Y-45015942D02*
X107266667Y-44977847D01*
X107266667Y-44977847D02*
X107190477Y-44939752D01*
X107190477Y-44939752D02*
X107152382Y-44901657D01*
X107152382Y-44901657D02*
X107114286Y-44825466D01*
X107114286Y-44825466D02*
X107114286Y-44749276D01*
X107114286Y-44749276D02*
X107152382Y-44673085D01*
X107152382Y-44673085D02*
X107190477Y-44634990D01*
X107190477Y-44634990D02*
X107266667Y-44596895D01*
X107266667Y-44596895D02*
X107457144Y-44596895D01*
X107457144Y-44596895D02*
X107571429Y-44634990D01*
X108257144Y-44863561D02*
X108257144Y-45396895D01*
X107914287Y-44863561D02*
X107914287Y-45282609D01*
X107914287Y-45282609D02*
X107952382Y-45358800D01*
X107952382Y-45358800D02*
X108028572Y-45396895D01*
X108028572Y-45396895D02*
X108142858Y-45396895D01*
X108142858Y-45396895D02*
X108219049Y-45358800D01*
X108219049Y-45358800D02*
X108257144Y-45320704D01*
X108980954Y-45396895D02*
X108980954Y-44977847D01*
X108980954Y-44977847D02*
X108942859Y-44901657D01*
X108942859Y-44901657D02*
X108866668Y-44863561D01*
X108866668Y-44863561D02*
X108714287Y-44863561D01*
X108714287Y-44863561D02*
X108638097Y-44901657D01*
X108980954Y-45358800D02*
X108904763Y-45396895D01*
X108904763Y-45396895D02*
X108714287Y-45396895D01*
X108714287Y-45396895D02*
X108638097Y-45358800D01*
X108638097Y-45358800D02*
X108600001Y-45282609D01*
X108600001Y-45282609D02*
X108600001Y-45206419D01*
X108600001Y-45206419D02*
X108638097Y-45130228D01*
X108638097Y-45130228D02*
X108714287Y-45092133D01*
X108714287Y-45092133D02*
X108904763Y-45092133D01*
X108904763Y-45092133D02*
X108980954Y-45054038D01*
X109361907Y-45396895D02*
X109361907Y-44863561D01*
X109361907Y-45015942D02*
X109400002Y-44939752D01*
X109400002Y-44939752D02*
X109438097Y-44901657D01*
X109438097Y-44901657D02*
X109514288Y-44863561D01*
X109514288Y-44863561D02*
X109590478Y-44863561D01*
X110161907Y-45358800D02*
X110085716Y-45396895D01*
X110085716Y-45396895D02*
X109933335Y-45396895D01*
X109933335Y-45396895D02*
X109857145Y-45358800D01*
X109857145Y-45358800D02*
X109819049Y-45282609D01*
X109819049Y-45282609D02*
X109819049Y-44977847D01*
X109819049Y-44977847D02*
X109857145Y-44901657D01*
X109857145Y-44901657D02*
X109933335Y-44863561D01*
X109933335Y-44863561D02*
X110085716Y-44863561D01*
X110085716Y-44863561D02*
X110161907Y-44901657D01*
X110161907Y-44901657D02*
X110200002Y-44977847D01*
X110200002Y-44977847D02*
X110200002Y-45054038D01*
X110200002Y-45054038D02*
X109819049Y-45130228D01*
X110466668Y-44863561D02*
X110885716Y-44863561D01*
X110885716Y-44863561D02*
X110466668Y-45396895D01*
X110466668Y-45396895D02*
X110885716Y-45396895D01*
D12*
X97699999Y-43135186D02*
X97699999Y-41735186D01*
X97699999Y-41735186D02*
X98233332Y-41735186D01*
X98233332Y-41735186D02*
X98366666Y-41801853D01*
X98366666Y-41801853D02*
X98433332Y-41868520D01*
X98433332Y-41868520D02*
X98499999Y-42001853D01*
X98499999Y-42001853D02*
X98499999Y-42201853D01*
X98499999Y-42201853D02*
X98433332Y-42335186D01*
X98433332Y-42335186D02*
X98366666Y-42401853D01*
X98366666Y-42401853D02*
X98233332Y-42468520D01*
X98233332Y-42468520D02*
X97699999Y-42468520D01*
X99099999Y-43135186D02*
X99099999Y-42201853D01*
X99099999Y-41735186D02*
X99033332Y-41801853D01*
X99033332Y-41801853D02*
X99099999Y-41868520D01*
X99099999Y-41868520D02*
X99166666Y-41801853D01*
X99166666Y-41801853D02*
X99099999Y-41735186D01*
X99099999Y-41735186D02*
X99099999Y-41868520D01*
X100833333Y-43135186D02*
X100833333Y-41735186D01*
X100833333Y-42401853D02*
X101633333Y-42401853D01*
X101633333Y-43135186D02*
X101633333Y-41735186D01*
X102233333Y-42735186D02*
X102900000Y-42735186D01*
X102100000Y-43135186D02*
X102566667Y-41735186D01*
X102566667Y-41735186D02*
X103033333Y-43135186D01*
X103300000Y-41735186D02*
X104100000Y-41735186D01*
X103700000Y-43135186D02*
X103700000Y-41735186D01*
X106366667Y-43135186D02*
X105566667Y-43135186D01*
X105966667Y-43135186D02*
X105966667Y-41735186D01*
X105966667Y-41735186D02*
X105833334Y-41935186D01*
X105833334Y-41935186D02*
X105700001Y-42068520D01*
X105700001Y-42068520D02*
X105566667Y-42135186D01*
X106966667Y-43001853D02*
X107033334Y-43068520D01*
X107033334Y-43068520D02*
X106966667Y-43135186D01*
X106966667Y-43135186D02*
X106900000Y-43068520D01*
X106900000Y-43068520D02*
X106966667Y-43001853D01*
X106966667Y-43001853D02*
X106966667Y-43135186D01*
X107900001Y-41735186D02*
X108033334Y-41735186D01*
X108033334Y-41735186D02*
X108166667Y-41801853D01*
X108166667Y-41801853D02*
X108233334Y-41868520D01*
X108233334Y-41868520D02*
X108300001Y-42001853D01*
X108300001Y-42001853D02*
X108366667Y-42268520D01*
X108366667Y-42268520D02*
X108366667Y-42601853D01*
X108366667Y-42601853D02*
X108300001Y-42868520D01*
X108300001Y-42868520D02*
X108233334Y-43001853D01*
X108233334Y-43001853D02*
X108166667Y-43068520D01*
X108166667Y-43068520D02*
X108033334Y-43135186D01*
X108033334Y-43135186D02*
X107900001Y-43135186D01*
X107900001Y-43135186D02*
X107766667Y-43068520D01*
X107766667Y-43068520D02*
X107700001Y-43001853D01*
X107700001Y-43001853D02*
X107633334Y-42868520D01*
X107633334Y-42868520D02*
X107566667Y-42601853D01*
X107566667Y-42601853D02*
X107566667Y-42268520D01*
X107566667Y-42268520D02*
X107633334Y-42001853D01*
X107633334Y-42001853D02*
X107700001Y-41868520D01*
X107700001Y-41868520D02*
X107766667Y-41801853D01*
X107766667Y-41801853D02*
X107900001Y-41735186D01*
D13*
%TO.C,G\u002A\u002A\u002A*%
G36*
X119996154Y-40423699D02*
G01*
X119996326Y-40425251D01*
X120004588Y-40430433D01*
X120027718Y-40440585D01*
X120063238Y-40454734D01*
X120108668Y-40471906D01*
X120161528Y-40491126D01*
X120186596Y-40500014D01*
X120242559Y-40519904D01*
X120292792Y-40538142D01*
X120334670Y-40553741D01*
X120365569Y-40565719D01*
X120382860Y-40573088D01*
X120385427Y-40574567D01*
X120390273Y-40584706D01*
X120383152Y-40589431D01*
X120370387Y-40584710D01*
X120370004Y-40584399D01*
X120357599Y-40578151D01*
X120331000Y-40567215D01*
X120293389Y-40552722D01*
X120247955Y-40535813D01*
X120197886Y-40517621D01*
X120146369Y-40499285D01*
X120096590Y-40481938D01*
X120051735Y-40466718D01*
X120014992Y-40454760D01*
X119989549Y-40447202D01*
X119979254Y-40445084D01*
X119969845Y-40450513D01*
X119947937Y-40465766D01*
X119915472Y-40489353D01*
X119874390Y-40519795D01*
X119826633Y-40555604D01*
X119774142Y-40595296D01*
X119718858Y-40637388D01*
X119662723Y-40680394D01*
X119607675Y-40722830D01*
X119555658Y-40763210D01*
X119508614Y-40800052D01*
X119468482Y-40831871D01*
X119437204Y-40857182D01*
X119416719Y-40874498D01*
X119411692Y-40879139D01*
X119407517Y-40887383D01*
X119406703Y-40902679D01*
X119409543Y-40927841D01*
X119416326Y-40965678D01*
X119425002Y-41007974D01*
X119434996Y-41052041D01*
X119444705Y-41089195D01*
X119453123Y-41115951D01*
X119459248Y-41128824D01*
X119460039Y-41129402D01*
X119472425Y-41126811D01*
X119496636Y-41116354D01*
X119529062Y-41100066D01*
X119566090Y-41079981D01*
X119604112Y-41058134D01*
X119639514Y-41036561D01*
X119668686Y-41017298D01*
X119688020Y-41002379D01*
X119691434Y-40998972D01*
X119706217Y-40974243D01*
X119712067Y-40948862D01*
X119714574Y-40929645D01*
X119724825Y-40923351D01*
X119732698Y-40923365D01*
X119748722Y-40921396D01*
X119778913Y-40915047D01*
X119819884Y-40905245D01*
X119868251Y-40892911D01*
X119920621Y-40878973D01*
X119973612Y-40864356D01*
X120023833Y-40849986D01*
X120067897Y-40836787D01*
X120102419Y-40825685D01*
X120124011Y-40817605D01*
X120128533Y-40815250D01*
X120143911Y-40807884D01*
X120154585Y-40813679D01*
X120156042Y-40815391D01*
X120167415Y-40822677D01*
X120192633Y-40835354D01*
X120228491Y-40852055D01*
X120271785Y-40871413D01*
X120319310Y-40892061D01*
X120367861Y-40912633D01*
X120414233Y-40931760D01*
X120455225Y-40948078D01*
X120487629Y-40960218D01*
X120508242Y-40966814D01*
X120512918Y-40967611D01*
X120526051Y-40972135D01*
X120528167Y-40976781D01*
X120521151Y-40985638D01*
X120518712Y-40985949D01*
X120507779Y-40982498D01*
X120482650Y-40972854D01*
X120445965Y-40958087D01*
X120400371Y-40939267D01*
X120348511Y-40917459D01*
X120333026Y-40910878D01*
X120279214Y-40888328D01*
X120230247Y-40868506D01*
X120188931Y-40852494D01*
X120158079Y-40841374D01*
X120140498Y-40836226D01*
X120138456Y-40836000D01*
X120123622Y-40838409D01*
X120094606Y-40844937D01*
X120054884Y-40854736D01*
X120007926Y-40866964D01*
X119977988Y-40875041D01*
X119906868Y-40894436D01*
X119851328Y-40909668D01*
X119809304Y-40921582D01*
X119778732Y-40931020D01*
X119757549Y-40938828D01*
X119743692Y-40945851D01*
X119735097Y-40952931D01*
X119729701Y-40960913D01*
X119725441Y-40970642D01*
X119721606Y-40979924D01*
X119713646Y-40995836D01*
X119703303Y-41009535D01*
X119687713Y-41023225D01*
X119664005Y-41039111D01*
X119629313Y-41059399D01*
X119589415Y-41081547D01*
X119548734Y-41104340D01*
X119514943Y-41124132D01*
X119490759Y-41139260D01*
X119478900Y-41148068D01*
X119478235Y-41149470D01*
X119488614Y-41152890D01*
X119513694Y-41158800D01*
X119550322Y-41166606D01*
X119595342Y-41175713D01*
X119645597Y-41185524D01*
X119697933Y-41195445D01*
X119749195Y-41204882D01*
X119796227Y-41213239D01*
X119835875Y-41219920D01*
X119864980Y-41224331D01*
X119880391Y-41225875D01*
X119881972Y-41225623D01*
X119894134Y-41220321D01*
X119903873Y-41218221D01*
X119917126Y-41214441D01*
X119943672Y-41205648D01*
X119979616Y-41193228D01*
X120021064Y-41178572D01*
X120064122Y-41163067D01*
X120104898Y-41148098D01*
X120139495Y-41135059D01*
X120161380Y-41126427D01*
X120176522Y-41123414D01*
X120204713Y-41120366D01*
X120240672Y-41117813D01*
X120252556Y-41117206D01*
X120289627Y-41114396D01*
X120320337Y-41110057D01*
X120339517Y-41104988D01*
X120342349Y-41103363D01*
X120357008Y-41098123D01*
X120364537Y-41102910D01*
X120369618Y-41116842D01*
X120362762Y-41128191D01*
X120349309Y-41129328D01*
X120335503Y-41128196D01*
X120308033Y-41128864D01*
X120271471Y-41131158D01*
X120246389Y-41133303D01*
X120205014Y-41138140D01*
X120166610Y-41145120D01*
X120126250Y-41155520D01*
X120079005Y-41170611D01*
X120019952Y-41191667D01*
X120018562Y-41192179D01*
X119970963Y-41209319D01*
X119928776Y-41223840D01*
X119895271Y-41234664D01*
X119873723Y-41240719D01*
X119867950Y-41241620D01*
X119855261Y-41239640D01*
X119827375Y-41234581D01*
X119787073Y-41226971D01*
X119737139Y-41217339D01*
X119680357Y-41206213D01*
X119653206Y-41200839D01*
X119452215Y-41160931D01*
X119291178Y-41196130D01*
X119226062Y-41209975D01*
X119177113Y-41219389D01*
X119142734Y-41224530D01*
X119121334Y-41225560D01*
X119111321Y-41222640D01*
X119111107Y-41215928D01*
X119112069Y-41214194D01*
X119112253Y-41202247D01*
X119108751Y-41176736D01*
X119102467Y-41141856D01*
X119094314Y-41101795D01*
X119085199Y-41060745D01*
X119076024Y-41022902D01*
X119067702Y-40992453D01*
X119063216Y-40979564D01*
X119083800Y-40979564D01*
X119087062Y-41004219D01*
X119093236Y-41038273D01*
X119101395Y-41077575D01*
X119110609Y-41117969D01*
X119119950Y-41155303D01*
X119128491Y-41185418D01*
X119135299Y-41204166D01*
X119137940Y-41208105D01*
X119155300Y-41211950D01*
X119161886Y-41210985D01*
X119175625Y-41207795D01*
X119203541Y-41201735D01*
X119241844Y-41193612D01*
X119286742Y-41184238D01*
X119296765Y-41182164D01*
X119342356Y-41172405D01*
X119381896Y-41163311D01*
X119411677Y-41155782D01*
X119427987Y-41150714D01*
X119429391Y-41150024D01*
X119433867Y-41142894D01*
X119434573Y-41127384D01*
X119431264Y-41100658D01*
X119423708Y-41059890D01*
X119420432Y-41043801D01*
X119411415Y-41000909D01*
X119403060Y-40962584D01*
X119396443Y-40933692D01*
X119393259Y-40921092D01*
X119386542Y-40897499D01*
X119238059Y-40930262D01*
X119188248Y-40941501D01*
X119144908Y-40951745D01*
X119111131Y-40960231D01*
X119090005Y-40966188D01*
X119084379Y-40968463D01*
X119083800Y-40979564D01*
X119063216Y-40979564D01*
X119061139Y-40973593D01*
X119059269Y-40970304D01*
X119054721Y-40955034D01*
X119062509Y-40944124D01*
X119075992Y-40943884D01*
X119091800Y-40944491D01*
X119121155Y-40940987D01*
X119160091Y-40934269D01*
X119204648Y-40925230D01*
X119250862Y-40914770D01*
X119294773Y-40903783D01*
X119332416Y-40893164D01*
X119359832Y-40883811D01*
X119372971Y-40876720D01*
X119387326Y-40865310D01*
X119395896Y-40863664D01*
X119404853Y-40858835D01*
X119426611Y-40843827D01*
X119459581Y-40819828D01*
X119502171Y-40788031D01*
X119552796Y-40749625D01*
X119609863Y-40705799D01*
X119671784Y-40657745D01*
X119691936Y-40642003D01*
X119755072Y-40592774D01*
X119813834Y-40547274D01*
X119866631Y-40506710D01*
X119911871Y-40472292D01*
X119947969Y-40445223D01*
X119973330Y-40426713D01*
X119986367Y-40417969D01*
X119987659Y-40417430D01*
X119996154Y-40423699D01*
G37*
G36*
X117795604Y-38422458D02*
G01*
X117842410Y-38425943D01*
X117899007Y-38431279D01*
X117957043Y-38437637D01*
X117992752Y-38442076D01*
X118044819Y-38449911D01*
X118088545Y-38459346D01*
X118128286Y-38472135D01*
X118168394Y-38490034D01*
X118213221Y-38514796D01*
X118267121Y-38548178D01*
X118285891Y-38560251D01*
X118396219Y-38638483D01*
X118495912Y-38723074D01*
X118583719Y-38812473D01*
X118658387Y-38905132D01*
X118718658Y-38999502D01*
X118763285Y-39094032D01*
X118790375Y-39184109D01*
X118799118Y-39244209D01*
X118803133Y-39314458D01*
X118802421Y-39387318D01*
X118796981Y-39455257D01*
X118790378Y-39495759D01*
X118759271Y-39609280D01*
X118715165Y-39715452D01*
X118657156Y-39815472D01*
X118584336Y-39910536D01*
X118495804Y-40001839D01*
X118390654Y-40090577D01*
X118280964Y-40169304D01*
X118183107Y-40231888D01*
X118083566Y-40289163D01*
X117980301Y-40341921D01*
X117871280Y-40390959D01*
X117754463Y-40437073D01*
X117627816Y-40481057D01*
X117489304Y-40523709D01*
X117336887Y-40565823D01*
X117168531Y-40608193D01*
X117139973Y-40615051D01*
X116959533Y-40661514D01*
X116794276Y-40711355D01*
X116641195Y-40765620D01*
X116497278Y-40825355D01*
X116393287Y-40874502D01*
X116349254Y-40896944D01*
X116303678Y-40921044D01*
X116259468Y-40945164D01*
X116219528Y-40967662D01*
X116186764Y-40986897D01*
X116164083Y-41001228D01*
X116154389Y-41009016D01*
X116154233Y-41009487D01*
X116162420Y-41010548D01*
X116183257Y-41009769D01*
X116197789Y-41008623D01*
X116221686Y-41006447D01*
X116259677Y-41002995D01*
X116307599Y-40998643D01*
X116361278Y-40993770D01*
X116397229Y-40990508D01*
X116451124Y-40985553D01*
X116500719Y-40980871D01*
X116542234Y-40976828D01*
X116571889Y-40973792D01*
X116583512Y-40972468D01*
X116619084Y-40971388D01*
X116665909Y-40974700D01*
X116717678Y-40981522D01*
X116768081Y-40990969D01*
X116810807Y-41002160D01*
X116821213Y-41005735D01*
X116863779Y-41025295D01*
X116899261Y-41051043D01*
X116930101Y-41085831D01*
X116958739Y-41132507D01*
X116987616Y-41193927D01*
X116992717Y-41206022D01*
X117025575Y-41283357D01*
X117054303Y-41346305D01*
X117080939Y-41397745D01*
X117107518Y-41440564D01*
X117136078Y-41477645D01*
X117168652Y-41511869D01*
X117207279Y-41546123D01*
X117253994Y-41583286D01*
X117265156Y-41591834D01*
X117309097Y-41624581D01*
X117355637Y-41657994D01*
X117402115Y-41690305D01*
X117445874Y-41719737D01*
X117484257Y-41744524D01*
X117514604Y-41762893D01*
X117534258Y-41773073D01*
X117539411Y-41774541D01*
X117545689Y-41766562D01*
X117555223Y-41745743D01*
X117564919Y-41719524D01*
X117574067Y-41691221D01*
X117579699Y-41671365D01*
X117580636Y-41664505D01*
X117571187Y-41667690D01*
X117551267Y-41675603D01*
X117544853Y-41678260D01*
X117520186Y-41685721D01*
X117491642Y-41690422D01*
X117464749Y-41692013D01*
X117445036Y-41690147D01*
X117437988Y-41684973D01*
X117442734Y-41673679D01*
X117454665Y-41653632D01*
X117460527Y-41644763D01*
X117473819Y-41624321D01*
X117493927Y-41592322D01*
X117518249Y-41552950D01*
X117544186Y-41510385D01*
X117547387Y-41505090D01*
X117574376Y-41459936D01*
X117591489Y-41428637D01*
X117598392Y-41409392D01*
X117594756Y-41400395D01*
X117580248Y-41399844D01*
X117554537Y-41405935D01*
X117530443Y-41412963D01*
X117503287Y-41420328D01*
X117484308Y-41424156D01*
X117478768Y-41424081D01*
X117483036Y-41416287D01*
X117497109Y-41397679D01*
X117518671Y-41371208D01*
X117540395Y-41345611D01*
X117612878Y-41272314D01*
X117682687Y-41217822D01*
X117760091Y-41165243D01*
X117729707Y-41154237D01*
X117697807Y-41145929D01*
X117667229Y-41142080D01*
X117653267Y-41140980D01*
X117649736Y-41138099D01*
X117658375Y-41132067D01*
X117680927Y-41121515D01*
X117708493Y-41109608D01*
X117746041Y-41094361D01*
X117780847Y-41081586D01*
X117806782Y-41073494D01*
X117811651Y-41072361D01*
X117831857Y-41066782D01*
X117841346Y-41061085D01*
X117841448Y-41060579D01*
X117838424Y-41049456D01*
X117830614Y-41026783D01*
X117822658Y-41005298D01*
X117809201Y-40955469D01*
X117806617Y-40913602D01*
X117809359Y-40871328D01*
X117843789Y-40904842D01*
X117878221Y-40938356D01*
X117883561Y-40914012D01*
X117889300Y-40890064D01*
X118080769Y-40890064D01*
X118083147Y-40897295D01*
X118086503Y-40915793D01*
X118088635Y-40944693D01*
X118089034Y-40963776D01*
X118089743Y-40992487D01*
X118093111Y-41007365D01*
X118100994Y-41012892D01*
X118109666Y-41013599D01*
X118132662Y-41017586D01*
X118144052Y-41022628D01*
X118161774Y-41031573D01*
X118166842Y-41028850D01*
X118158821Y-41016459D01*
X118147773Y-41005426D01*
X118121844Y-40970645D01*
X118113693Y-40944433D01*
X118106045Y-40917536D01*
X118094646Y-40897029D01*
X118092625Y-40894888D01*
X118081628Y-40885610D01*
X118080769Y-40890064D01*
X117889300Y-40890064D01*
X117895697Y-40863374D01*
X117908472Y-40824245D01*
X117924867Y-40790612D01*
X117947865Y-40756464D01*
X117980450Y-40715785D01*
X117984007Y-40711536D01*
X118031989Y-40656620D01*
X118081544Y-40604904D01*
X118135188Y-40554190D01*
X118195437Y-40502275D01*
X118264814Y-40446959D01*
X118345833Y-40386036D01*
X118407115Y-40341538D01*
X118525071Y-40255613D01*
X118627154Y-40178688D01*
X118713434Y-40110704D01*
X118783983Y-40051600D01*
X118838872Y-40001317D01*
X118878174Y-39959798D01*
X118893434Y-39940308D01*
X118910464Y-39919107D01*
X118924845Y-39906073D01*
X118929593Y-39904123D01*
X118941071Y-39912244D01*
X118952094Y-39933701D01*
X118961180Y-39963521D01*
X118966845Y-39996726D01*
X118967605Y-40028344D01*
X118967390Y-40030843D01*
X118959011Y-40076428D01*
X118941811Y-40123214D01*
X118914522Y-40173328D01*
X118875883Y-40228901D01*
X118824628Y-40292061D01*
X118786437Y-40335435D01*
X118727342Y-40400986D01*
X118875733Y-40326680D01*
X118924114Y-40302819D01*
X118967436Y-40282139D01*
X119002817Y-40265961D01*
X119027361Y-40255612D01*
X119037813Y-40252375D01*
X119050735Y-40260387D01*
X119057822Y-40281124D01*
X119058131Y-40309629D01*
X119053254Y-40333441D01*
X119036419Y-40372567D01*
X119009027Y-40418169D01*
X118974692Y-40465082D01*
X118937030Y-40508142D01*
X118918257Y-40526449D01*
X118891842Y-40548139D01*
X118854034Y-40575965D01*
X118809277Y-40606805D01*
X118762007Y-40637535D01*
X118746615Y-40647118D01*
X118699613Y-40676567D01*
X118668702Y-40697445D01*
X118653944Y-40710090D01*
X118655403Y-40714838D01*
X118673139Y-40712031D01*
X118707214Y-40702006D01*
X118753835Y-40686429D01*
X118787588Y-40674854D01*
X118816034Y-40665140D01*
X118833369Y-40659268D01*
X118834037Y-40659046D01*
X118843428Y-40657193D01*
X118845495Y-40663013D01*
X118840564Y-40680449D01*
X118836701Y-40691560D01*
X118819701Y-40731299D01*
X118796794Y-40768510D01*
X118766051Y-40805094D01*
X118725542Y-40842953D01*
X118673338Y-40883990D01*
X118607511Y-40930105D01*
X118568419Y-40955962D01*
X118532736Y-40979548D01*
X118503738Y-40999336D01*
X118484281Y-41013329D01*
X118477226Y-41019532D01*
X118477260Y-41019616D01*
X118486809Y-41019559D01*
X118509205Y-41017120D01*
X118539225Y-41013043D01*
X118571644Y-41008076D01*
X118601241Y-41002961D01*
X118618583Y-40999445D01*
X118634405Y-40999248D01*
X118639148Y-41011593D01*
X118639214Y-41014856D01*
X118631370Y-41035189D01*
X118608733Y-41062933D01*
X118572650Y-41096782D01*
X118524471Y-41135437D01*
X118483817Y-41164974D01*
X118410542Y-41216319D01*
X118467568Y-41267554D01*
X118501279Y-41296855D01*
X118536631Y-41326017D01*
X118566413Y-41349104D01*
X118568482Y-41350616D01*
X118606912Y-41384022D01*
X118629555Y-41418583D01*
X118638736Y-41458292D01*
X118639214Y-41471782D01*
X118632859Y-41522576D01*
X118613469Y-41560877D01*
X118580554Y-41587567D01*
X118573079Y-41591241D01*
X118527655Y-41606986D01*
X118487871Y-41608640D01*
X118449564Y-41595416D01*
X118408558Y-41566523D01*
X118399159Y-41558340D01*
X118350375Y-41526749D01*
X118291980Y-41510684D01*
X118258672Y-41508449D01*
X118197639Y-41502101D01*
X118140845Y-41485281D01*
X118105081Y-41466777D01*
X118083147Y-41453685D01*
X118073141Y-41451846D01*
X118074821Y-41462238D01*
X118087941Y-41485842D01*
X118096815Y-41499949D01*
X118124471Y-41538454D01*
X118150591Y-41562873D01*
X118179570Y-41576474D01*
X118206462Y-41581620D01*
X118249401Y-41586564D01*
X118260952Y-41646166D01*
X118265530Y-41676312D01*
X118268689Y-41713559D01*
X118270494Y-41760346D01*
X118271018Y-41819107D01*
X118270328Y-41892275D01*
X118269359Y-41944181D01*
X118272131Y-41971678D01*
X118283513Y-41998925D01*
X118301749Y-42026707D01*
X118335373Y-42078371D01*
X118365494Y-42134337D01*
X118389703Y-42189414D01*
X118405595Y-42238414D01*
X118409721Y-42259382D01*
X118412135Y-42295992D01*
X118411479Y-42340436D01*
X118408332Y-42378940D01*
X118404560Y-42414397D01*
X118402491Y-42444233D01*
X118402530Y-42462457D01*
X118402654Y-42463343D01*
X118406951Y-42465035D01*
X118418824Y-42459499D01*
X118439268Y-42445995D01*
X118469277Y-42423772D01*
X118509846Y-42392089D01*
X118561968Y-42350198D01*
X118626639Y-42297352D01*
X118652969Y-42275678D01*
X118900550Y-42071585D01*
X118902918Y-42593070D01*
X118905286Y-43114555D01*
X119442998Y-43380020D01*
X119535252Y-43425682D01*
X119622348Y-43469017D01*
X119702940Y-43509341D01*
X119775683Y-43545968D01*
X119839229Y-43578217D01*
X119892233Y-43605400D01*
X119933351Y-43626835D01*
X119961233Y-43641836D01*
X119974533Y-43649720D01*
X119975470Y-43650728D01*
X119966050Y-43654285D01*
X119940564Y-43662841D01*
X119900449Y-43675933D01*
X119847147Y-43693104D01*
X119782098Y-43713895D01*
X119706744Y-43737845D01*
X119622525Y-43764494D01*
X119530881Y-43793384D01*
X119433252Y-43824054D01*
X119376951Y-43841695D01*
X119271056Y-43875001D01*
X119172009Y-43906461D01*
X119081095Y-43935648D01*
X118999594Y-43962140D01*
X118928792Y-43985509D01*
X118869974Y-44005333D01*
X118824420Y-44021184D01*
X118793418Y-44032639D01*
X118778248Y-44039272D01*
X118776945Y-44040312D01*
X118772798Y-44051056D01*
X118763161Y-44077595D01*
X118748568Y-44118404D01*
X118729559Y-44171960D01*
X118706672Y-44236739D01*
X118680446Y-44311218D01*
X118651418Y-44393872D01*
X118620128Y-44483174D01*
X118587114Y-44577606D01*
X118583716Y-44587338D01*
X118550635Y-44681777D01*
X118519214Y-44770886D01*
X118489990Y-44853188D01*
X118463492Y-44927207D01*
X118440260Y-44991466D01*
X118420825Y-45044487D01*
X118405722Y-45084791D01*
X118395488Y-45110903D01*
X118390657Y-45121342D01*
X118390461Y-45121472D01*
X118383350Y-45114763D01*
X118365283Y-45095453D01*
X118337353Y-45064770D01*
X118300657Y-45023936D01*
X118256287Y-44974177D01*
X118205335Y-44916720D01*
X118148897Y-44852790D01*
X118088065Y-44783612D01*
X118038601Y-44727177D01*
X117975248Y-44654827D01*
X117915597Y-44586771D01*
X117860724Y-44524229D01*
X117811705Y-44468428D01*
X117769613Y-44420587D01*
X117735526Y-44381929D01*
X117710519Y-44353678D01*
X117695666Y-44337056D01*
X117691824Y-44332950D01*
X117682758Y-44334528D01*
X117656888Y-44339091D01*
X117615462Y-44346419D01*
X117559729Y-44356290D01*
X117490943Y-44368482D01*
X117410353Y-44382772D01*
X117319207Y-44398941D01*
X117218758Y-44416765D01*
X117110255Y-44436023D01*
X116994951Y-44456493D01*
X116874093Y-44477954D01*
X116842107Y-44483635D01*
X116719993Y-44505286D01*
X116603081Y-44525941D01*
X116492627Y-44545386D01*
X116389880Y-44563401D01*
X116296096Y-44579770D01*
X116212528Y-44594274D01*
X116140426Y-44606698D01*
X116081045Y-44616823D01*
X116035636Y-44624434D01*
X116005454Y-44629311D01*
X115991750Y-44631237D01*
X115991043Y-44631231D01*
X115996856Y-44624500D01*
X116014685Y-44606397D01*
X116043247Y-44578169D01*
X116081259Y-44541064D01*
X116127433Y-44496334D01*
X116180486Y-44445227D01*
X116239131Y-44388991D01*
X116299294Y-44331539D01*
X116362116Y-44271582D01*
X116420621Y-44215591D01*
X116473517Y-44164814D01*
X116519514Y-44120495D01*
X116557322Y-44083878D01*
X116585651Y-44056214D01*
X116603210Y-44038747D01*
X116608737Y-44032727D01*
X116599451Y-44031197D01*
X116575423Y-44028569D01*
X116540193Y-44025198D01*
X116497298Y-44021441D01*
X116492902Y-44021072D01*
X116280703Y-43998387D01*
X116081534Y-43966662D01*
X115892168Y-43925345D01*
X115821436Y-43906833D01*
X115654323Y-43854463D01*
X115492058Y-43790712D01*
X115336577Y-43716750D01*
X115189820Y-43633749D01*
X115053721Y-43542877D01*
X114930216Y-43445307D01*
X114821244Y-43342211D01*
X114745829Y-43256538D01*
X114656921Y-43133228D01*
X114584506Y-43004579D01*
X114528069Y-42869208D01*
X114487089Y-42725733D01*
X114461052Y-42572774D01*
X114452191Y-42472695D01*
X114450527Y-42417169D01*
X114451095Y-42349237D01*
X114453618Y-42273319D01*
X114457827Y-42193834D01*
X114463449Y-42115200D01*
X114470208Y-42041838D01*
X114470378Y-42040417D01*
X115509758Y-42040417D01*
X115511907Y-42111390D01*
X115516857Y-42178013D01*
X115524545Y-42234676D01*
X115525087Y-42237609D01*
X115557834Y-42378149D01*
X115600562Y-42505343D01*
X115652944Y-42618499D01*
X115714657Y-42716915D01*
X115785376Y-42799897D01*
X115788747Y-42803239D01*
X115836812Y-42847001D01*
X115889254Y-42887401D01*
X115947634Y-42925111D01*
X116013516Y-42960802D01*
X116088462Y-42995147D01*
X116174036Y-43028814D01*
X116271802Y-43062479D01*
X116383320Y-43096811D01*
X116510157Y-43132480D01*
X116626471Y-43163145D01*
X116690053Y-43179539D01*
X116747927Y-43194527D01*
X116797681Y-43207476D01*
X116836899Y-43217755D01*
X116863165Y-43224737D01*
X116874052Y-43227784D01*
X116893762Y-43232090D01*
X116902260Y-43228285D01*
X116899520Y-43221057D01*
X116820402Y-43118668D01*
X116749763Y-43026903D01*
X116687975Y-42946255D01*
X116635415Y-42877218D01*
X116592452Y-42820287D01*
X116559462Y-42775953D01*
X116536818Y-42744710D01*
X116524891Y-42727054D01*
X116523085Y-42723066D01*
X116532985Y-42722664D01*
X116558558Y-42723746D01*
X116597212Y-42726139D01*
X116646356Y-42729677D01*
X116703396Y-42734189D01*
X116740915Y-42737341D01*
X116802108Y-42742551D01*
X116857540Y-42747187D01*
X116904480Y-42751027D01*
X116940204Y-42753849D01*
X116961978Y-42755432D01*
X116967156Y-42755695D01*
X116969577Y-42748906D01*
X116960805Y-42729459D01*
X116944300Y-42702970D01*
X116923315Y-42669186D01*
X116904601Y-42634820D01*
X116894073Y-42611780D01*
X116882107Y-42574285D01*
X116869906Y-42525114D01*
X116858637Y-42470356D01*
X116853576Y-42440424D01*
X117194065Y-42440424D01*
X117197649Y-42455338D01*
X117208264Y-42482543D01*
X117218516Y-42505105D01*
X117253824Y-42564466D01*
X117302870Y-42620693D01*
X117306496Y-42624243D01*
X117334613Y-42652148D01*
X117352213Y-42672581D01*
X117362192Y-42690570D01*
X117367445Y-42711149D01*
X117370459Y-42735406D01*
X117376169Y-42790046D01*
X117455219Y-42796118D01*
X117500830Y-42799763D01*
X117548054Y-42803766D01*
X117587540Y-42807331D01*
X117591579Y-42807719D01*
X117648889Y-42813247D01*
X117648889Y-42849641D01*
X117650055Y-42872640D01*
X117654934Y-42881251D01*
X117664937Y-42879617D01*
X117682745Y-42875200D01*
X117711359Y-42870704D01*
X117732917Y-42868264D01*
X117770121Y-42866950D01*
X117800108Y-42872562D01*
X117827204Y-42883831D01*
X117855383Y-42900105D01*
X117878384Y-42917909D01*
X117885306Y-42925401D01*
X117899116Y-42939379D01*
X117911284Y-42938549D01*
X117914810Y-42936205D01*
X117927682Y-42926843D01*
X117931312Y-42924419D01*
X117931370Y-42922654D01*
X117929063Y-42917308D01*
X117923451Y-42906764D01*
X117913600Y-42889404D01*
X117898568Y-42863611D01*
X117877417Y-42827770D01*
X117849210Y-42780260D01*
X117834854Y-42756151D01*
X118026112Y-42756151D01*
X118026724Y-42776532D01*
X118029397Y-42783205D01*
X118039226Y-42777753D01*
X118059528Y-42763157D01*
X118086719Y-42742050D01*
X118101045Y-42730479D01*
X118165529Y-42677754D01*
X118125573Y-42672326D01*
X118092183Y-42663283D01*
X118066431Y-42643507D01*
X118059815Y-42635993D01*
X118034016Y-42605089D01*
X118034016Y-42637783D01*
X118033028Y-42665295D01*
X118030486Y-42701494D01*
X118028125Y-42726841D01*
X118026112Y-42756151D01*
X117834854Y-42756151D01*
X117813011Y-42719467D01*
X117790877Y-42682339D01*
X117766266Y-42640536D01*
X117743135Y-42600305D01*
X117724269Y-42566550D01*
X117713419Y-42546114D01*
X117694810Y-42498548D01*
X117679848Y-42440106D01*
X117670107Y-42378125D01*
X117667110Y-42329307D01*
X117666386Y-42299890D01*
X117664320Y-42286361D01*
X117660158Y-42286280D01*
X117655766Y-42292627D01*
X117650603Y-42310941D01*
X117646861Y-42344307D01*
X117644843Y-42389473D01*
X117644583Y-42411833D01*
X117644823Y-42457578D01*
X117646473Y-42490380D01*
X117650482Y-42515632D01*
X117657797Y-42538724D01*
X117669371Y-42565047D01*
X117672818Y-42572303D01*
X117693735Y-42608953D01*
X117722463Y-42650256D01*
X117753446Y-42688304D01*
X117757344Y-42692595D01*
X117813357Y-42753283D01*
X117771107Y-42759075D01*
X117679829Y-42764765D01*
X117592811Y-42756902D01*
X117513195Y-42736059D01*
X117444127Y-42702808D01*
X117436623Y-42697963D01*
X117391537Y-42664545D01*
X117344935Y-42624221D01*
X117300531Y-42580745D01*
X117262036Y-42537873D01*
X117233165Y-42499358D01*
X117223032Y-42481987D01*
X117207001Y-42452494D01*
X117197263Y-42439057D01*
X117194065Y-42440424D01*
X116853576Y-42440424D01*
X116849465Y-42416107D01*
X116843554Y-42368459D01*
X116841960Y-42339328D01*
X116840482Y-42307392D01*
X116834434Y-42291568D01*
X116821393Y-42289751D01*
X116798939Y-42299840D01*
X116797426Y-42300675D01*
X116768103Y-42325820D01*
X116741093Y-42365212D01*
X116717667Y-42414794D01*
X116699102Y-42470505D01*
X116686666Y-42528283D01*
X116681636Y-42584067D01*
X116685282Y-42633799D01*
X116688541Y-42647953D01*
X116690913Y-42666156D01*
X116683644Y-42672576D01*
X116665364Y-42667171D01*
X116634701Y-42649908D01*
X116629070Y-42646372D01*
X116583985Y-42607768D01*
X116552835Y-42559641D01*
X116536862Y-42505263D01*
X116537313Y-42447912D01*
X116543508Y-42421003D01*
X116551387Y-42394938D01*
X116556507Y-42377524D01*
X116557601Y-42373401D01*
X116550838Y-42377816D01*
X116532459Y-42391127D01*
X116505458Y-42411141D01*
X116479956Y-42430281D01*
X116445788Y-42455679D01*
X116415377Y-42477609D01*
X116392728Y-42493219D01*
X116383675Y-42498839D01*
X116370218Y-42502917D01*
X116365499Y-42495476D01*
X116369737Y-42475500D01*
X116383153Y-42441976D01*
X116405967Y-42393890D01*
X116406853Y-42392101D01*
X116445741Y-42324344D01*
X116489434Y-42270859D01*
X116541996Y-42227596D01*
X116607494Y-42190502D01*
X116610608Y-42189009D01*
X116643343Y-42173986D01*
X116669935Y-42164034D01*
X116696117Y-42157930D01*
X116727618Y-42154450D01*
X116770167Y-42152371D01*
X116784408Y-42151888D01*
X116887327Y-42148534D01*
X116918871Y-42092204D01*
X116953264Y-42041473D01*
X116999194Y-41988842D01*
X117051383Y-41939735D01*
X117104552Y-41899576D01*
X117109252Y-41896557D01*
X117152776Y-41871678D01*
X117194946Y-41854163D01*
X117240332Y-41842975D01*
X117293505Y-41837079D01*
X117359037Y-41835440D01*
X117378384Y-41835580D01*
X117497590Y-41837016D01*
X117433403Y-41804115D01*
X117409642Y-41792572D01*
X117566312Y-41792572D01*
X117567930Y-41793850D01*
X117584782Y-41795263D01*
X117604611Y-41786822D01*
X117616298Y-41775347D01*
X117612133Y-41772370D01*
X117595456Y-41775181D01*
X117589070Y-41777005D01*
X117569146Y-41785343D01*
X117566312Y-41792572D01*
X117409642Y-41792572D01*
X117400501Y-41788131D01*
X117373298Y-41778055D01*
X117345080Y-41772289D01*
X117309130Y-41769232D01*
X117282103Y-41768071D01*
X117156845Y-41762952D01*
X117037198Y-41756889D01*
X116924829Y-41750017D01*
X116821413Y-41742479D01*
X116728622Y-41734416D01*
X116648126Y-41725969D01*
X116581594Y-41717275D01*
X116530701Y-41708479D01*
X116507867Y-41703070D01*
X116480958Y-41695602D01*
X116512921Y-41675848D01*
X116539667Y-41660361D01*
X116564088Y-41647837D01*
X116567338Y-41646378D01*
X116580262Y-41640253D01*
X116578063Y-41638626D01*
X116559284Y-41640663D01*
X116557699Y-41640870D01*
X116490061Y-41647749D01*
X116417896Y-41651575D01*
X116343443Y-41652563D01*
X116268944Y-41650928D01*
X116196643Y-41646883D01*
X116128781Y-41640644D01*
X116067596Y-41632425D01*
X116015335Y-41622441D01*
X115974237Y-41610904D01*
X115946542Y-41598032D01*
X115934496Y-41584036D01*
X115934161Y-41581238D01*
X115942508Y-41571577D01*
X115965601Y-41558250D01*
X116000516Y-41542508D01*
X116044330Y-41525602D01*
X116094119Y-41508777D01*
X116126724Y-41498931D01*
X116213837Y-41473849D01*
X116103801Y-41478650D01*
X116017128Y-41479523D01*
X115928942Y-41475165D01*
X115845224Y-41466087D01*
X115771959Y-41452804D01*
X115755352Y-41448724D01*
X115700335Y-41434286D01*
X115680044Y-41459715D01*
X115653343Y-41499743D01*
X115624955Y-41553638D01*
X115596545Y-41617237D01*
X115569783Y-41686376D01*
X115546333Y-41756892D01*
X115527866Y-41824623D01*
X115520762Y-41857474D01*
X115514122Y-41907850D01*
X115510475Y-41970701D01*
X115509758Y-42040417D01*
X114470378Y-42040417D01*
X114477834Y-41978171D01*
X114485683Y-41930426D01*
X114527338Y-41765071D01*
X114584887Y-41601439D01*
X114656941Y-41441975D01*
X114742120Y-41289127D01*
X114746948Y-41281965D01*
X115819540Y-41281965D01*
X115842465Y-41276599D01*
X115864851Y-41272307D01*
X115896392Y-41267333D01*
X115914608Y-41264813D01*
X115941986Y-41259684D01*
X115951229Y-41254040D01*
X115942518Y-41248201D01*
X115916041Y-41242484D01*
X115900467Y-41240296D01*
X115873492Y-41238921D01*
X115855526Y-41245250D01*
X115840864Y-41258714D01*
X115819540Y-41281965D01*
X114746948Y-41281965D01*
X114839033Y-41145339D01*
X114946300Y-41013059D01*
X115062534Y-40894728D01*
X115082444Y-40876744D01*
X115141348Y-40827053D01*
X115212666Y-40771099D01*
X115292773Y-40711501D01*
X115378040Y-40650877D01*
X115464837Y-40591845D01*
X115549538Y-40537025D01*
X115575728Y-40520725D01*
X115665446Y-40467136D01*
X115754901Y-40417272D01*
X115845506Y-40370663D01*
X115938675Y-40326838D01*
X116035820Y-40285329D01*
X116138353Y-40245663D01*
X116247691Y-40207373D01*
X116365246Y-40169986D01*
X116492429Y-40133033D01*
X116630656Y-40096043D01*
X116781339Y-40058546D01*
X116945892Y-40020072D01*
X117125729Y-39980151D01*
X117322261Y-39938312D01*
X117332537Y-39936165D01*
X117437813Y-39913771D01*
X117527584Y-39893685D01*
X117604436Y-39875198D01*
X117670950Y-39857598D01*
X117729712Y-39840176D01*
X117783308Y-39822222D01*
X117834318Y-39803026D01*
X117869743Y-39788521D01*
X117993037Y-39729214D01*
X118101665Y-39661640D01*
X118195137Y-39586318D01*
X118272954Y-39503766D01*
X118334625Y-39414501D01*
X118379656Y-39319039D01*
X118405835Y-39226831D01*
X118416079Y-39141911D01*
X118411669Y-39058305D01*
X118392219Y-38971292D01*
X118382256Y-38940510D01*
X118345847Y-38856347D01*
X118296795Y-38778854D01*
X118234196Y-38707277D01*
X118157152Y-38640862D01*
X118064758Y-38578849D01*
X117956118Y-38520483D01*
X117830328Y-38465009D01*
X117802829Y-38454115D01*
X117708493Y-38417378D01*
X117795604Y-38422458D01*
G37*
G36*
X129155183Y-39972679D02*
G01*
X129168274Y-39974008D01*
X129187795Y-39976374D01*
X129212178Y-39979589D01*
X129235917Y-39982900D01*
X129270743Y-39987861D01*
X129309228Y-39993328D01*
X129347456Y-39998745D01*
X129381518Y-40003557D01*
X129392573Y-40005116D01*
X129423961Y-40009580D01*
X129447033Y-40013041D01*
X129463056Y-40015778D01*
X129473297Y-40018066D01*
X129479025Y-40020189D01*
X129481504Y-40022421D01*
X129482009Y-40024792D01*
X129484718Y-40030556D01*
X129491481Y-40040991D01*
X129500265Y-40053259D01*
X129509022Y-40064527D01*
X129515717Y-40071961D01*
X129516365Y-40072526D01*
X129520087Y-40076990D01*
X129528638Y-40087909D01*
X129541039Y-40104018D01*
X129556309Y-40124040D01*
X129572214Y-40145042D01*
X129591155Y-40170117D01*
X129609911Y-40194912D01*
X129626963Y-40217422D01*
X129640793Y-40235645D01*
X129647840Y-40244901D01*
X129658608Y-40259357D01*
X129666615Y-40270763D01*
X129670418Y-40277054D01*
X129670548Y-40277534D01*
X129670319Y-40278990D01*
X129668369Y-40279652D01*
X129662805Y-40279423D01*
X129651737Y-40278203D01*
X129633274Y-40275894D01*
X129629458Y-40275411D01*
X129613794Y-40273496D01*
X129591273Y-40270827D01*
X129564648Y-40267731D01*
X129536667Y-40264526D01*
X129530353Y-40263810D01*
X129487828Y-40258717D01*
X129448392Y-40253450D01*
X129413128Y-40248194D01*
X129383118Y-40243129D01*
X129359441Y-40238439D01*
X129343184Y-40234306D01*
X129335428Y-40230916D01*
X129335314Y-40230806D01*
X129330411Y-40224549D01*
X129321457Y-40212138D01*
X129309785Y-40195454D01*
X129298431Y-40178881D01*
X129284784Y-40159167D01*
X129271945Y-40141311D01*
X129261530Y-40127520D01*
X129256000Y-40120870D01*
X129248244Y-40111370D01*
X129237208Y-40096384D01*
X129224823Y-40078567D01*
X129219972Y-40071318D01*
X129208832Y-40054985D01*
X129199501Y-40042258D01*
X129193328Y-40034930D01*
X129191804Y-40033851D01*
X129187765Y-40030222D01*
X129180421Y-40020917D01*
X129171397Y-40008326D01*
X129162312Y-39994829D01*
X129154792Y-39982811D01*
X129150461Y-39974651D01*
X129150088Y-39972578D01*
X129155183Y-39972679D01*
G37*
G36*
X129446590Y-40304354D02*
G01*
X129461670Y-40306978D01*
X129484039Y-40310413D01*
X129511383Y-40314342D01*
X129541392Y-40318441D01*
X129571748Y-40322386D01*
X129600146Y-40325857D01*
X129605286Y-40326455D01*
X129631539Y-40329811D01*
X129648981Y-40332883D01*
X129658457Y-40335850D01*
X129660880Y-40338442D01*
X129658304Y-40343567D01*
X129651203Y-40355183D01*
X129640522Y-40371807D01*
X129627205Y-40391956D01*
X129619788Y-40402984D01*
X129605520Y-40424253D01*
X129593402Y-40442637D01*
X129584378Y-40456685D01*
X129579386Y-40464942D01*
X129578696Y-40466457D01*
X129576210Y-40471455D01*
X129569575Y-40482467D01*
X129560019Y-40497480D01*
X129555687Y-40504106D01*
X129541304Y-40526403D01*
X129525434Y-40551706D01*
X129511435Y-40574653D01*
X129511048Y-40575302D01*
X129500916Y-40591790D01*
X129492390Y-40604760D01*
X129486819Y-40612195D01*
X129485712Y-40613171D01*
X129482037Y-40618689D01*
X129482009Y-40619262D01*
X129479477Y-40624945D01*
X129472647Y-40636696D01*
X129462675Y-40652595D01*
X129454693Y-40664786D01*
X129445399Y-40679059D01*
X129438039Y-40689805D01*
X129431139Y-40697361D01*
X129423231Y-40702076D01*
X129412841Y-40704289D01*
X129398501Y-40704346D01*
X129378735Y-40702590D01*
X129352075Y-40699366D01*
X129322474Y-40695678D01*
X129288777Y-40691686D01*
X129251023Y-40687414D01*
X129213620Y-40683348D01*
X129180980Y-40679979D01*
X129178300Y-40679713D01*
X129153471Y-40677123D01*
X129132232Y-40674626D01*
X129116365Y-40672458D01*
X129107653Y-40670844D01*
X129106579Y-40670419D01*
X129107847Y-40665510D01*
X129113477Y-40654828D01*
X129122310Y-40640535D01*
X129123849Y-40638196D01*
X129133411Y-40623499D01*
X129140425Y-40612135D01*
X129143551Y-40606294D01*
X129143601Y-40606046D01*
X129146118Y-40601036D01*
X129152573Y-40590778D01*
X129158104Y-40582553D01*
X129166252Y-40570221D01*
X129171516Y-40561321D01*
X129172608Y-40558664D01*
X129175250Y-40552858D01*
X129182604Y-40540414D01*
X129193818Y-40522594D01*
X129208040Y-40500663D01*
X129224415Y-40475890D01*
X129242091Y-40449534D01*
X129260212Y-40422866D01*
X129277926Y-40397147D01*
X129294382Y-40373643D01*
X129308725Y-40353621D01*
X129320100Y-40338343D01*
X129326879Y-40329944D01*
X129348266Y-40312429D01*
X129375240Y-40302373D01*
X129408054Y-40299723D01*
X129446590Y-40304354D01*
G37*
G36*
X129105344Y-40004945D02*
G01*
X129108129Y-40008029D01*
X129114863Y-40017419D01*
X129118206Y-40021765D01*
X129122689Y-40027861D01*
X129130995Y-40039627D01*
X129141492Y-40054742D01*
X129143752Y-40058022D01*
X129154248Y-40073132D01*
X129162665Y-40084950D01*
X129167494Y-40091372D01*
X129167940Y-40091865D01*
X129171757Y-40096696D01*
X129179622Y-40107402D01*
X129190036Y-40121933D01*
X129193311Y-40126560D01*
X129204763Y-40142506D01*
X129214705Y-40155861D01*
X129221346Y-40164236D01*
X129222249Y-40165236D01*
X129227441Y-40172169D01*
X129235938Y-40185091D01*
X129246199Y-40201626D01*
X129249959Y-40207888D01*
X129260473Y-40225133D01*
X129269769Y-40239600D01*
X129276303Y-40248918D01*
X129277661Y-40250537D01*
X129282825Y-40258140D01*
X129282279Y-40266429D01*
X129275600Y-40278213D01*
X129272921Y-40282034D01*
X129265605Y-40292813D01*
X129256473Y-40307007D01*
X129246967Y-40322268D01*
X129238532Y-40336246D01*
X129232611Y-40346596D01*
X129230621Y-40350876D01*
X129228352Y-40355544D01*
X129222441Y-40366071D01*
X129215408Y-40378088D01*
X129203983Y-40397688D01*
X129191662Y-40419379D01*
X129185615Y-40430271D01*
X129174394Y-40449844D01*
X129161346Y-40471366D01*
X129153662Y-40483449D01*
X129142037Y-40502004D01*
X129130522Y-40521584D01*
X129124245Y-40533001D01*
X129116911Y-40545795D01*
X129110941Y-40554131D01*
X129108562Y-40555965D01*
X129105089Y-40559734D01*
X129104928Y-40561305D01*
X129102394Y-40568069D01*
X129095895Y-40579633D01*
X129090425Y-40588138D01*
X129082332Y-40600544D01*
X129077067Y-40609415D01*
X129075921Y-40612058D01*
X129073450Y-40617204D01*
X129067259Y-40627166D01*
X129064546Y-40631231D01*
X129053171Y-40647970D01*
X129039178Y-40627348D01*
X129030706Y-40615137D01*
X129024404Y-40606558D01*
X129022501Y-40604309D01*
X129018662Y-40599424D01*
X129010906Y-40588659D01*
X129000751Y-40574129D01*
X128998317Y-40570597D01*
X128987284Y-40554656D01*
X128977798Y-40541161D01*
X128971658Y-40532668D01*
X128971090Y-40531922D01*
X128953704Y-40509071D01*
X128940821Y-40491191D01*
X128933044Y-40479141D01*
X128930890Y-40474141D01*
X128927320Y-40468348D01*
X128926869Y-40468140D01*
X128922002Y-40463612D01*
X128913287Y-40453375D01*
X128902330Y-40439555D01*
X128890735Y-40424273D01*
X128880109Y-40409655D01*
X128872054Y-40397827D01*
X128868175Y-40390910D01*
X128868043Y-40390278D01*
X128870417Y-40384180D01*
X128876687Y-40372142D01*
X128885572Y-40356397D01*
X128895791Y-40339169D01*
X128906063Y-40322691D01*
X128912302Y-40313233D01*
X128918440Y-40303403D01*
X128921207Y-40297361D01*
X128921222Y-40297183D01*
X128923746Y-40291855D01*
X128930223Y-40281373D01*
X128935723Y-40273154D01*
X128943875Y-40260798D01*
X128949135Y-40251851D01*
X128950226Y-40249158D01*
X128952755Y-40244236D01*
X128959649Y-40232948D01*
X128969870Y-40216946D01*
X128982382Y-40197878D01*
X128983065Y-40196850D01*
X128994363Y-40179769D01*
X129004297Y-40164474D01*
X129013799Y-40149426D01*
X129023808Y-40133084D01*
X129035254Y-40113912D01*
X129049076Y-40090370D01*
X129066207Y-40060917D01*
X129078644Y-40039452D01*
X129089534Y-40021011D01*
X129096883Y-40009888D01*
X129101790Y-40004921D01*
X129105344Y-40004945D01*
G37*
G36*
X126404513Y-39473932D02*
G01*
X126424812Y-39477476D01*
X126447407Y-39482595D01*
X126466449Y-39487094D01*
X126492096Y-39493048D01*
X126521516Y-39499805D01*
X126551880Y-39506718D01*
X126564465Y-39509561D01*
X126592635Y-39516071D01*
X126628584Y-39524630D01*
X126670736Y-39534846D01*
X126717516Y-39546321D01*
X126767348Y-39558665D01*
X126818657Y-39571479D01*
X126869868Y-39584371D01*
X126919406Y-39596948D01*
X126965692Y-39608812D01*
X127007153Y-39619573D01*
X127042216Y-39628834D01*
X127057571Y-39632975D01*
X127088051Y-39641262D01*
X127120340Y-39650030D01*
X127150969Y-39658330D01*
X127176468Y-39665229D01*
X127180846Y-39666410D01*
X127200136Y-39671726D01*
X127226661Y-39679201D01*
X127258382Y-39688247D01*
X127293258Y-39698285D01*
X127329254Y-39708727D01*
X127350050Y-39714801D01*
X127384291Y-39724820D01*
X127417253Y-39734440D01*
X127447235Y-39743163D01*
X127472529Y-39750499D01*
X127491434Y-39755950D01*
X127499914Y-39758368D01*
X127542966Y-39770951D01*
X127593211Y-39786368D01*
X127648810Y-39804008D01*
X127707923Y-39823258D01*
X127768713Y-39843506D01*
X127829336Y-39864135D01*
X127887956Y-39884537D01*
X127942733Y-39904097D01*
X127991827Y-39922203D01*
X127993022Y-39922652D01*
X128012887Y-39930069D01*
X128038209Y-39939427D01*
X128065351Y-39949386D01*
X128084874Y-39956502D01*
X128132035Y-39973803D01*
X128181508Y-39992261D01*
X128231303Y-40011116D01*
X128279434Y-40029606D01*
X128323917Y-40046966D01*
X128362760Y-40062440D01*
X128387023Y-40072356D01*
X128409028Y-40081393D01*
X128430600Y-40090088D01*
X128448222Y-40097033D01*
X128453496Y-40099048D01*
X128466628Y-40105176D01*
X128474937Y-40111350D01*
X128476459Y-40114276D01*
X128473153Y-40119349D01*
X128462859Y-40119419D01*
X128445000Y-40114461D01*
X128440715Y-40112952D01*
X128424202Y-40106673D01*
X128408560Y-40100242D01*
X128406875Y-40099502D01*
X128393207Y-40093734D01*
X128372110Y-40085190D01*
X128345204Y-40074502D01*
X128314112Y-40062294D01*
X128280454Y-40049191D01*
X128245849Y-40035826D01*
X128211924Y-40022820D01*
X128180296Y-40010804D01*
X128152588Y-40000401D01*
X128130420Y-39992241D01*
X128118716Y-39988078D01*
X128096138Y-39980179D01*
X128075212Y-39972721D01*
X128058692Y-39966687D01*
X128051034Y-39963769D01*
X128036397Y-39958245D01*
X128013921Y-39950149D01*
X127984943Y-39939934D01*
X127950806Y-39928055D01*
X127912852Y-39914972D01*
X127872418Y-39901136D01*
X127830848Y-39887002D01*
X127789483Y-39873030D01*
X127749663Y-39859670D01*
X127712729Y-39847380D01*
X127680021Y-39836618D01*
X127652881Y-39827834D01*
X127632650Y-39821488D01*
X127628026Y-39820096D01*
X127600237Y-39811849D01*
X127568783Y-39802486D01*
X127539253Y-39793672D01*
X127531339Y-39791305D01*
X127507299Y-39784135D01*
X127484930Y-39777538D01*
X127461776Y-39770803D01*
X127435390Y-39763220D01*
X127403326Y-39754081D01*
X127385098Y-39748904D01*
X127365551Y-39743347D01*
X127345429Y-39737615D01*
X127323077Y-39731230D01*
X127296830Y-39723716D01*
X127265035Y-39714600D01*
X127226030Y-39703409D01*
X127214687Y-39700152D01*
X127145488Y-39680376D01*
X127083540Y-39662878D01*
X127026845Y-39647132D01*
X126973402Y-39632599D01*
X126921218Y-39618754D01*
X126868286Y-39605057D01*
X126812613Y-39590979D01*
X126752196Y-39575984D01*
X126709497Y-39565509D01*
X126657250Y-39552780D01*
X126611963Y-39541845D01*
X126571221Y-39532136D01*
X126532611Y-39523090D01*
X126493716Y-39514133D01*
X126452120Y-39504698D01*
X126424317Y-39498451D01*
X126403323Y-39493133D01*
X126390581Y-39488257D01*
X126384735Y-39483248D01*
X126384079Y-39481431D01*
X126385124Y-39475929D01*
X126391609Y-39473424D01*
X126404513Y-39473932D01*
G37*
G36*
X125722979Y-38986193D02*
G01*
X125734518Y-38987391D01*
X125750925Y-38989888D01*
X125772964Y-38993799D01*
X125801410Y-38999239D01*
X125837029Y-39006330D01*
X125880595Y-39015186D01*
X125931162Y-39025571D01*
X125961638Y-39031931D01*
X125996298Y-39039295D01*
X126029891Y-39046541D01*
X126047187Y-39050331D01*
X126071724Y-39055729D01*
X126094697Y-39060746D01*
X126113408Y-39064792D01*
X126124536Y-39067155D01*
X126143604Y-39071222D01*
X126170512Y-39077125D01*
X126203684Y-39084505D01*
X126241543Y-39093000D01*
X126282513Y-39102256D01*
X126325016Y-39111916D01*
X126367477Y-39121618D01*
X126408320Y-39131003D01*
X126445968Y-39139717D01*
X126478844Y-39147400D01*
X126504035Y-39153375D01*
X126569845Y-39168942D01*
X126640481Y-39185284D01*
X126711286Y-39201325D01*
X126719164Y-39203087D01*
X126745033Y-39208919D01*
X126773404Y-39215400D01*
X126798733Y-39221261D01*
X126801996Y-39222023D01*
X126826112Y-39227570D01*
X126851955Y-39233345D01*
X126874040Y-39238124D01*
X126874557Y-39238233D01*
X126897847Y-39243326D01*
X126927542Y-39250098D01*
X126960679Y-39257854D01*
X126994291Y-39265894D01*
X127025416Y-39273517D01*
X127043067Y-39277961D01*
X127062962Y-39282867D01*
X127082807Y-39287485D01*
X127093038Y-39289713D01*
X127110161Y-39293594D01*
X127135361Y-39299770D01*
X127167405Y-39307909D01*
X127205067Y-39317687D01*
X127247112Y-39328773D01*
X127292310Y-39340841D01*
X127339434Y-39353562D01*
X127387249Y-39366608D01*
X127434527Y-39379651D01*
X127480037Y-39392365D01*
X127509583Y-39400721D01*
X127545149Y-39410852D01*
X127573688Y-39419019D01*
X127597478Y-39425886D01*
X127618800Y-39432113D01*
X127639930Y-39438360D01*
X127659449Y-39444182D01*
X127684385Y-39451577D01*
X127709798Y-39459010D01*
X127731905Y-39465375D01*
X127741632Y-39468121D01*
X127769530Y-39476261D01*
X127805381Y-39487302D01*
X127848037Y-39500855D01*
X127896364Y-39516541D01*
X127949215Y-39533975D01*
X128005447Y-39552772D01*
X128063921Y-39572548D01*
X128123494Y-39592920D01*
X128183020Y-39613502D01*
X128241361Y-39633915D01*
X128297373Y-39653770D01*
X128345930Y-39671239D01*
X128365527Y-39678661D01*
X128389515Y-39688224D01*
X128416341Y-39699263D01*
X128444457Y-39711103D01*
X128472312Y-39723076D01*
X128498355Y-39734512D01*
X128521036Y-39744737D01*
X128538804Y-39753085D01*
X128550110Y-39758881D01*
X128553172Y-39760880D01*
X128556781Y-39768434D01*
X128554741Y-39775447D01*
X128549898Y-39777548D01*
X128544519Y-39775783D01*
X128531746Y-39770956D01*
X128513132Y-39763666D01*
X128490225Y-39754522D01*
X128471625Y-39747001D01*
X128445930Y-39736487D01*
X128422830Y-39726909D01*
X128404053Y-39718993D01*
X128391334Y-39713469D01*
X128387023Y-39711447D01*
X128378284Y-39707594D01*
X128361563Y-39700922D01*
X128337983Y-39691850D01*
X128308673Y-39680803D01*
X128274757Y-39668204D01*
X128237362Y-39654477D01*
X128197611Y-39640041D01*
X128179145Y-39633386D01*
X128150796Y-39623395D01*
X128115423Y-39611242D01*
X128074886Y-39597536D01*
X128031048Y-39582890D01*
X127985761Y-39567919D01*
X127940886Y-39553236D01*
X127898284Y-39539449D01*
X127859815Y-39527173D01*
X127827335Y-39517021D01*
X127809315Y-39511552D01*
X127787271Y-39504946D01*
X127767592Y-39498969D01*
X127752798Y-39494394D01*
X127746468Y-39492360D01*
X127741625Y-39490767D01*
X127735342Y-39488794D01*
X127726591Y-39486143D01*
X127714345Y-39482508D01*
X127697574Y-39477590D01*
X127675253Y-39471088D01*
X127646354Y-39462696D01*
X127609848Y-39452115D01*
X127582100Y-39444078D01*
X127553044Y-39435661D01*
X127525423Y-39427658D01*
X127501306Y-39420662D01*
X127482759Y-39415279D01*
X127473325Y-39412537D01*
X127457845Y-39408139D01*
X127434863Y-39401758D01*
X127406229Y-39393895D01*
X127373787Y-39385050D01*
X127339378Y-39375724D01*
X127304853Y-39366420D01*
X127272052Y-39357636D01*
X127242823Y-39349874D01*
X127231606Y-39346922D01*
X127194313Y-39337317D01*
X127149276Y-39326009D01*
X127098191Y-39313410D01*
X127042746Y-39299929D01*
X126984641Y-39285973D01*
X126925570Y-39271955D01*
X126867217Y-39258280D01*
X126813437Y-39245855D01*
X126786363Y-39239641D01*
X126759681Y-39233505D01*
X126736307Y-39228115D01*
X126719160Y-39224147D01*
X126717957Y-39223868D01*
X126661891Y-39210973D01*
X126603647Y-39197877D01*
X126583802Y-39193475D01*
X126549355Y-39185832D01*
X126511121Y-39177317D01*
X126471221Y-39168403D01*
X126431770Y-39159562D01*
X126394886Y-39151274D01*
X126362693Y-39144009D01*
X126337307Y-39138245D01*
X126332415Y-39137129D01*
X126315757Y-39133377D01*
X126292878Y-39128306D01*
X126267012Y-39122631D01*
X126245396Y-39117930D01*
X126193836Y-39106631D01*
X126136217Y-39093761D01*
X126075860Y-39080079D01*
X126016086Y-39066338D01*
X125960215Y-39053298D01*
X125926327Y-39045259D01*
X125902791Y-39039787D01*
X125873354Y-39033181D01*
X125841594Y-39026229D01*
X125811087Y-39019725D01*
X125807885Y-39019054D01*
X125775135Y-39012153D01*
X125750655Y-39006803D01*
X125733239Y-39002671D01*
X125721675Y-38999424D01*
X125714750Y-38996725D01*
X125711258Y-38994240D01*
X125710082Y-38992044D01*
X125709855Y-38989218D01*
X125711418Y-38987223D01*
X125715537Y-38986176D01*
X125722979Y-38986193D01*
G37*
G36*
X126715888Y-40546586D02*
G01*
X127132992Y-40961882D01*
X127132024Y-41216980D01*
X127131832Y-41269054D01*
X127131624Y-41329004D01*
X127131403Y-41395037D01*
X127131177Y-41465363D01*
X127130950Y-41538186D01*
X127130725Y-41611715D01*
X127130514Y-41684156D01*
X127130317Y-41753716D01*
X127130168Y-41809501D01*
X127129277Y-42146922D01*
X127107338Y-42169662D01*
X127092044Y-42185861D01*
X127074693Y-42204755D01*
X127061937Y-42218987D01*
X127057412Y-42224040D01*
X127052015Y-42229901D01*
X127045387Y-42236922D01*
X127037178Y-42245457D01*
X127027030Y-42255864D01*
X127014591Y-42268493D01*
X126999503Y-42283698D01*
X126981411Y-42301834D01*
X126959968Y-42323254D01*
X126934808Y-42348313D01*
X126905584Y-42377364D01*
X126871937Y-42410760D01*
X126833515Y-42448855D01*
X126789962Y-42492006D01*
X126740922Y-42540563D01*
X126686043Y-42594882D01*
X126624970Y-42655316D01*
X126562754Y-42716865D01*
X126511205Y-42767746D01*
X126464022Y-42814076D01*
X126421496Y-42855579D01*
X126383913Y-42891977D01*
X126351568Y-42922998D01*
X126324744Y-42948359D01*
X126303738Y-42967785D01*
X126288836Y-42981002D01*
X126280325Y-42987729D01*
X126278781Y-42988540D01*
X126272355Y-42988989D01*
X126256882Y-42989429D01*
X126232975Y-42989852D01*
X126201260Y-42990256D01*
X126162349Y-42990639D01*
X126116866Y-42990993D01*
X126065430Y-42991315D01*
X126008657Y-42991603D01*
X125947168Y-42991852D01*
X125881583Y-42992058D01*
X125812518Y-42992214D01*
X125740595Y-42992320D01*
X125704608Y-42992352D01*
X125615020Y-42992434D01*
X125534677Y-42992555D01*
X125463157Y-42992721D01*
X125400039Y-42992936D01*
X125344898Y-42993203D01*
X125297312Y-42993528D01*
X125256861Y-42993916D01*
X125223118Y-42994371D01*
X125195666Y-42994897D01*
X125174076Y-42995501D01*
X125157929Y-42996186D01*
X125146801Y-42996958D01*
X125140271Y-42997822D01*
X125137998Y-42998654D01*
X125134618Y-43005309D01*
X125128995Y-43019578D01*
X125121594Y-43040018D01*
X125112882Y-43065179D01*
X125103326Y-43093619D01*
X125093392Y-43123884D01*
X125083548Y-43154533D01*
X125074260Y-43184118D01*
X125065995Y-43211191D01*
X125059219Y-43234308D01*
X125054402Y-43252017D01*
X125052007Y-43262875D01*
X125051911Y-43265464D01*
X125058564Y-43271070D01*
X125068458Y-43272881D01*
X125079427Y-43274426D01*
X125085145Y-43277715D01*
X125091961Y-43281768D01*
X125097584Y-43282550D01*
X125104611Y-43283128D01*
X125112509Y-43285575D01*
X125124170Y-43290966D01*
X125134634Y-43296297D01*
X125146975Y-43300744D01*
X125154893Y-43301886D01*
X125163865Y-43303637D01*
X125166740Y-43305764D01*
X125172418Y-43309125D01*
X125184389Y-43313555D01*
X125193919Y-43316390D01*
X125208291Y-43320867D01*
X125218354Y-43325052D01*
X125221101Y-43327017D01*
X125227381Y-43330294D01*
X125232595Y-43330893D01*
X125242557Y-43333892D01*
X125245930Y-43341109D01*
X125243688Y-43346817D01*
X125239592Y-43354929D01*
X125234625Y-43367928D01*
X125233283Y-43371987D01*
X125219350Y-43409680D01*
X125212694Y-43423890D01*
X125208949Y-43436164D01*
X125208422Y-43441734D01*
X125205457Y-43452185D01*
X125197331Y-43454652D01*
X125190491Y-43452036D01*
X125183095Y-43448930D01*
X125168260Y-43443500D01*
X125147762Y-43436370D01*
X125123369Y-43428161D01*
X125106902Y-43422745D01*
X125081002Y-43414192D01*
X125057909Y-43406343D01*
X125039386Y-43399817D01*
X125027199Y-43395232D01*
X125023574Y-43393620D01*
X125010439Y-43388993D01*
X125000364Y-43390384D01*
X124995778Y-43397361D01*
X124995711Y-43398639D01*
X124993349Y-43411301D01*
X124991015Y-43416768D01*
X124987779Y-43424371D01*
X124982294Y-43439146D01*
X124975292Y-43459063D01*
X124967493Y-43482095D01*
X124966332Y-43485593D01*
X124958603Y-43508504D01*
X124951682Y-43528197D01*
X124946247Y-43542787D01*
X124942983Y-43550388D01*
X124942689Y-43550858D01*
X124937986Y-43560914D01*
X124935442Y-43573303D01*
X124935919Y-43583154D01*
X124936691Y-43584763D01*
X124943132Y-43589213D01*
X124955056Y-43594453D01*
X124959454Y-43596007D01*
X124977279Y-43602464D01*
X124995735Y-43609909D01*
X124998129Y-43610951D01*
X125014647Y-43618188D01*
X125030611Y-43625120D01*
X125033135Y-43626209D01*
X125043782Y-43632288D01*
X125046718Y-43639070D01*
X125046099Y-43642663D01*
X125042780Y-43652982D01*
X125037200Y-43668913D01*
X125030593Y-43687054D01*
X125024200Y-43704001D01*
X125019728Y-43715225D01*
X125016142Y-43724685D01*
X125010741Y-43739911D01*
X125005133Y-43756318D01*
X124999203Y-43772858D01*
X124993860Y-43785827D01*
X124990313Y-43792334D01*
X124986858Y-43800532D01*
X124986043Y-43807761D01*
X124984106Y-43817611D01*
X124981207Y-43821583D01*
X124977432Y-43828264D01*
X124976373Y-43836085D01*
X124974549Y-43846208D01*
X124971539Y-43850588D01*
X124967676Y-43857310D01*
X124966704Y-43864411D01*
X124965112Y-43875076D01*
X124962857Y-43879837D01*
X124959049Y-43887084D01*
X124954269Y-43899529D01*
X124952868Y-43903767D01*
X124938833Y-43941743D01*
X124932299Y-43955671D01*
X124928556Y-43967947D01*
X124928029Y-43973514D01*
X124925825Y-43982797D01*
X124923196Y-43985951D01*
X124919022Y-43992824D01*
X124918360Y-43997579D01*
X124916756Y-44005133D01*
X124912892Y-44016141D01*
X124908187Y-44027180D01*
X124904063Y-44034822D01*
X124902294Y-44036320D01*
X124897737Y-44034459D01*
X124886918Y-44030085D01*
X124877267Y-44026197D01*
X124859022Y-44018500D01*
X124840941Y-44010340D01*
X124834511Y-44007250D01*
X124820760Y-44001434D01*
X124809300Y-43998244D01*
X124806999Y-43998037D01*
X124797935Y-43995708D01*
X124795084Y-43993203D01*
X124788092Y-43988765D01*
X124785076Y-43988369D01*
X124776616Y-43986500D01*
X124763506Y-43981787D01*
X124757564Y-43979273D01*
X124740550Y-43972095D01*
X124723772Y-43965579D01*
X124720151Y-43964282D01*
X124692221Y-43953869D01*
X124671324Y-43944628D01*
X124670664Y-43944296D01*
X124658390Y-43940552D01*
X124652821Y-43940025D01*
X124643852Y-43938275D01*
X124640976Y-43936148D01*
X124635298Y-43932786D01*
X124623325Y-43928357D01*
X124613795Y-43925521D01*
X124599424Y-43921044D01*
X124589362Y-43916861D01*
X124586613Y-43914894D01*
X124580443Y-43911877D01*
X124572701Y-43911018D01*
X124562580Y-43909194D01*
X124558200Y-43906184D01*
X124551544Y-43902460D01*
X124543259Y-43901350D01*
X124533205Y-43899027D01*
X124528829Y-43894893D01*
X124528904Y-43886125D01*
X124532289Y-43871017D01*
X124538210Y-43851990D01*
X124545902Y-43831469D01*
X124554591Y-43811879D01*
X124556347Y-43808353D01*
X124560089Y-43796079D01*
X124560616Y-43790509D01*
X124562821Y-43781229D01*
X124565451Y-43778073D01*
X124569227Y-43771393D01*
X124570286Y-43763569D01*
X124572110Y-43753447D01*
X124575119Y-43749068D01*
X124578898Y-43742387D01*
X124579955Y-43734565D01*
X124581779Y-43724440D01*
X124584788Y-43720061D01*
X124588566Y-43713380D01*
X124589623Y-43705558D01*
X124591449Y-43695433D01*
X124594458Y-43691054D01*
X124598319Y-43684332D01*
X124599292Y-43677234D01*
X124600945Y-43666567D01*
X124603285Y-43661807D01*
X124606942Y-43654657D01*
X124611539Y-43641928D01*
X124613506Y-43635459D01*
X124618169Y-43620055D01*
X124622478Y-43607231D01*
X124623696Y-43604034D01*
X124627213Y-43594560D01*
X124632500Y-43579313D01*
X124637967Y-43562944D01*
X124643849Y-43545399D01*
X124649094Y-43530438D01*
X124652349Y-43521851D01*
X124657007Y-43509865D01*
X124659010Y-43504039D01*
X124662197Y-43498940D01*
X124668954Y-43498639D01*
X124677577Y-43501061D01*
X124691144Y-43505866D01*
X124701757Y-43510313D01*
X124701956Y-43510414D01*
X124714122Y-43514035D01*
X124720151Y-43514600D01*
X124732824Y-43516794D01*
X124738345Y-43518988D01*
X124748579Y-43523209D01*
X124763833Y-43528323D01*
X124780636Y-43533305D01*
X124795510Y-43537129D01*
X124804977Y-43538766D01*
X124805309Y-43538772D01*
X124810791Y-43534756D01*
X124812004Y-43529388D01*
X124814224Y-43520134D01*
X124816838Y-43517018D01*
X124820616Y-43510337D01*
X124821673Y-43502514D01*
X124823498Y-43492391D01*
X124826508Y-43488011D01*
X124830284Y-43481330D01*
X124831341Y-43473507D01*
X124833167Y-43463384D01*
X124836177Y-43459004D01*
X124839952Y-43452323D01*
X124841010Y-43444502D01*
X124842461Y-43434642D01*
X124844889Y-43430591D01*
X124848248Y-43424912D01*
X124852678Y-43412939D01*
X124855514Y-43403410D01*
X124859990Y-43389038D01*
X124864176Y-43378974D01*
X124866140Y-43376227D01*
X124869365Y-43369737D01*
X124869880Y-43359078D01*
X124867985Y-43348811D01*
X124863984Y-43343478D01*
X124863974Y-43343476D01*
X124837372Y-43335758D01*
X124809783Y-43326742D01*
X124784251Y-43317493D01*
X124763820Y-43309083D01*
X124757683Y-43306157D01*
X124745407Y-43302413D01*
X124739840Y-43301886D01*
X124730557Y-43299683D01*
X124727403Y-43297054D01*
X124720681Y-43293191D01*
X124713581Y-43292218D01*
X124702915Y-43290565D01*
X124698154Y-43288224D01*
X124691005Y-43284429D01*
X124678396Y-43279561D01*
X124672502Y-43277611D01*
X124655931Y-43270448D01*
X124648550Y-43261922D01*
X124649904Y-43251398D01*
X124651708Y-43248134D01*
X124656376Y-43236707D01*
X124657306Y-43230405D01*
X124659345Y-43220416D01*
X124661299Y-43217043D01*
X124664991Y-43209907D01*
X124669692Y-43197200D01*
X124671730Y-43190696D01*
X124677046Y-43175054D01*
X124682683Y-43161820D01*
X124684443Y-43158561D01*
X124689538Y-43152012D01*
X124695947Y-43150710D01*
X124707421Y-43153923D01*
X124707762Y-43154038D01*
X124719815Y-43158724D01*
X124727502Y-43162702D01*
X124728118Y-43163211D01*
X124735309Y-43166053D01*
X124740360Y-43166523D01*
X124752520Y-43168720D01*
X124757683Y-43170765D01*
X124767649Y-43174852D01*
X124781821Y-43179657D01*
X124785415Y-43180754D01*
X124800243Y-43185421D01*
X124812511Y-43189714D01*
X124814422Y-43190464D01*
X124824970Y-43194218D01*
X124839964Y-43198933D01*
X124845845Y-43200655D01*
X124859840Y-43205202D01*
X124869941Y-43209459D01*
X124872193Y-43210874D01*
X124880392Y-43214105D01*
X124887619Y-43214867D01*
X124897470Y-43216804D01*
X124901440Y-43219703D01*
X124907393Y-43225279D01*
X124913747Y-43222755D01*
X124920824Y-43211724D01*
X124928945Y-43191763D01*
X124933402Y-43178610D01*
X124938216Y-43165401D01*
X124942546Y-43156119D01*
X124943520Y-43154680D01*
X124946633Y-43146478D01*
X124947367Y-43139253D01*
X124949069Y-43129567D01*
X124951644Y-43125777D01*
X124955594Y-43119498D01*
X124958398Y-43109779D01*
X124961138Y-43099085D01*
X124966068Y-43083227D01*
X124972312Y-43064682D01*
X124978988Y-43045928D01*
X124985225Y-43029443D01*
X124990142Y-43017701D01*
X124992549Y-43013375D01*
X124995125Y-43006440D01*
X124995711Y-42999899D01*
X124997737Y-42989379D01*
X125000372Y-42984924D01*
X125004108Y-42977094D01*
X125006415Y-42965237D01*
X125006330Y-42961056D01*
X125004912Y-42956269D01*
X125001560Y-42950193D01*
X124995664Y-42942140D01*
X124986617Y-42931430D01*
X124973814Y-42917372D01*
X124956650Y-42899287D01*
X124934517Y-42876483D01*
X124906809Y-42848282D01*
X124872919Y-42813993D01*
X124869567Y-42810607D01*
X124831432Y-42772183D01*
X124789629Y-42730227D01*
X124744942Y-42685517D01*
X124698163Y-42638833D01*
X124650077Y-42590952D01*
X124601470Y-42542657D01*
X124553131Y-42494728D01*
X124505847Y-42447941D01*
X124460405Y-42403077D01*
X124417590Y-42360918D01*
X124378195Y-42322240D01*
X124343002Y-42287826D01*
X124312801Y-42258450D01*
X124288378Y-42234898D01*
X124281838Y-42228649D01*
X124213353Y-42163393D01*
X124210502Y-42037698D01*
X124210099Y-42016489D01*
X124577537Y-42016489D01*
X124588083Y-42024676D01*
X124593718Y-42029760D01*
X124605566Y-42040991D01*
X124622963Y-42057720D01*
X124645243Y-42079296D01*
X124671745Y-42105065D01*
X124701807Y-42134384D01*
X124734767Y-42166593D01*
X124769959Y-42201046D01*
X124806720Y-42237092D01*
X124844389Y-42274080D01*
X124882301Y-42311360D01*
X124919794Y-42348279D01*
X124956207Y-42384186D01*
X124990872Y-42418434D01*
X125023128Y-42450367D01*
X125052314Y-42479341D01*
X125077764Y-42504699D01*
X125098817Y-42525792D01*
X125104484Y-42531502D01*
X125127676Y-42554733D01*
X125148834Y-42575595D01*
X125166948Y-42593114D01*
X125181007Y-42606324D01*
X125190003Y-42614256D01*
X125192711Y-42616137D01*
X125198301Y-42616365D01*
X125212895Y-42616563D01*
X125235833Y-42616729D01*
X125266454Y-42616864D01*
X125304094Y-42616969D01*
X125348091Y-42617038D01*
X125397784Y-42617076D01*
X125452507Y-42617078D01*
X125511602Y-42617043D01*
X125574403Y-42616973D01*
X125640250Y-42616864D01*
X125676148Y-42616791D01*
X126153543Y-42615759D01*
X126334832Y-42432114D01*
X126399058Y-42367016D01*
X126456773Y-42308426D01*
X126508300Y-42256009D01*
X126553958Y-42209430D01*
X126594066Y-42168353D01*
X126628948Y-42132439D01*
X126658919Y-42101359D01*
X126684302Y-42074773D01*
X126705419Y-42052348D01*
X126722585Y-42033746D01*
X126736128Y-42018633D01*
X126746360Y-42006674D01*
X126753607Y-41997533D01*
X126758185Y-41990873D01*
X126760418Y-41986359D01*
X126760521Y-41986018D01*
X126761341Y-41978371D01*
X126762115Y-41961703D01*
X126762836Y-41936668D01*
X126763494Y-41903911D01*
X126764083Y-41864084D01*
X126764590Y-41817836D01*
X126765009Y-41765818D01*
X126765333Y-41708678D01*
X126765548Y-41647066D01*
X126765617Y-41612307D01*
X126765748Y-41552291D01*
X126765960Y-41493562D01*
X126766243Y-41437077D01*
X126766590Y-41383787D01*
X126766989Y-41334647D01*
X126767437Y-41290612D01*
X126767922Y-41252635D01*
X126768435Y-41221673D01*
X126768969Y-41198677D01*
X126769397Y-41186850D01*
X126770389Y-41158546D01*
X126770474Y-41135166D01*
X126769679Y-41118283D01*
X126768045Y-41109500D01*
X126763059Y-41102956D01*
X126752307Y-41091218D01*
X126737125Y-41075662D01*
X126718838Y-41057665D01*
X126707460Y-41046772D01*
X126694359Y-41034221D01*
X126675115Y-41015596D01*
X126650468Y-40991624D01*
X126621152Y-40963021D01*
X126587908Y-40930514D01*
X126551473Y-40894820D01*
X126512583Y-40856662D01*
X126471977Y-40816763D01*
X126430394Y-40775842D01*
X126411992Y-40757715D01*
X126371689Y-40718060D01*
X126333148Y-40680256D01*
X126296961Y-40644874D01*
X126263720Y-40612490D01*
X126234017Y-40583673D01*
X126208439Y-40558999D01*
X126187584Y-40539038D01*
X126172039Y-40524366D01*
X126162394Y-40515553D01*
X126159592Y-40513251D01*
X126154142Y-40510322D01*
X126147087Y-40508195D01*
X126137007Y-40506778D01*
X126122479Y-40505974D01*
X126102085Y-40505690D01*
X126074403Y-40505838D01*
X126051009Y-40506128D01*
X126030830Y-40506343D01*
X126001953Y-40506548D01*
X125965351Y-40506742D01*
X125921992Y-40506922D01*
X125872853Y-40507085D01*
X125818902Y-40507229D01*
X125761110Y-40507348D01*
X125700450Y-40507443D01*
X125637894Y-40507509D01*
X125574413Y-40507544D01*
X125562963Y-40507546D01*
X125170594Y-40507621D01*
X124875349Y-40803727D01*
X124580103Y-41099831D01*
X124579703Y-41285956D01*
X124579604Y-41328729D01*
X124579477Y-41379313D01*
X124579329Y-41435844D01*
X124579163Y-41496467D01*
X124578985Y-41559320D01*
X124578799Y-41622543D01*
X124578611Y-41684278D01*
X124578424Y-41742662D01*
X124578420Y-41744284D01*
X124577537Y-42016489D01*
X124210099Y-42016489D01*
X124209896Y-42005889D01*
X124209358Y-41967509D01*
X124208886Y-41923298D01*
X124208483Y-41873991D01*
X124208144Y-41820333D01*
X124207869Y-41763064D01*
X124207658Y-41702919D01*
X124207509Y-41640645D01*
X124207420Y-41576976D01*
X124207391Y-41512653D01*
X124207423Y-41448418D01*
X124207515Y-41385008D01*
X124207661Y-41323167D01*
X124207863Y-41263631D01*
X124208121Y-41207139D01*
X124208433Y-41154434D01*
X124208799Y-41106254D01*
X124209215Y-41063342D01*
X124209685Y-41026433D01*
X124210202Y-40996269D01*
X124210767Y-40973591D01*
X124211383Y-40959137D01*
X124212011Y-40953695D01*
X124215989Y-40949232D01*
X124226388Y-40938380D01*
X124242778Y-40921570D01*
X124264729Y-40899235D01*
X124291813Y-40871809D01*
X124323600Y-40839723D01*
X124359660Y-40803412D01*
X124399563Y-40763305D01*
X124442882Y-40719837D01*
X124489182Y-40673445D01*
X124538038Y-40624554D01*
X124589019Y-40573603D01*
X124619535Y-40543134D01*
X125022300Y-40141139D01*
X125580670Y-40137920D01*
X125655137Y-40137480D01*
X125728090Y-40137026D01*
X125798807Y-40136568D01*
X125866567Y-40136108D01*
X125930645Y-40135653D01*
X125990321Y-40135207D01*
X126044870Y-40134779D01*
X126093571Y-40134370D01*
X126135700Y-40133989D01*
X126170536Y-40133641D01*
X126197355Y-40133330D01*
X126215437Y-40133063D01*
X126218912Y-40132995D01*
X126298783Y-40131289D01*
X126715888Y-40546586D01*
G37*
%TD*%
D14*
%TO.C,R7*%
X101610000Y-87940000D03*
X93990000Y-87940000D03*
%TD*%
%TO.C,R1*%
X126500000Y-47690000D03*
X126500000Y-55310000D03*
%TD*%
D15*
%TO.C,J2*%
X87710000Y-93600000D03*
D16*
X90250000Y-93600000D03*
X87710000Y-91060000D03*
X90250000Y-91060000D03*
X87710000Y-88520000D03*
X90250000Y-88520000D03*
X87710000Y-85980000D03*
X90250000Y-85980000D03*
X87710000Y-83440000D03*
X90250000Y-83440000D03*
X87710000Y-80900000D03*
X90250000Y-80900000D03*
X87710000Y-78360000D03*
X90250000Y-78360000D03*
X87710000Y-75820000D03*
X90250000Y-75820000D03*
X87710000Y-73280000D03*
X90250000Y-73280000D03*
X87710000Y-70740000D03*
X90250000Y-70740000D03*
X87710000Y-68200000D03*
X90250000Y-68200000D03*
X87710000Y-65660000D03*
X90250000Y-65660000D03*
X87710000Y-63120000D03*
X90250000Y-63120000D03*
X87710000Y-60580000D03*
X90250000Y-60580000D03*
X87710000Y-58040000D03*
X90250000Y-58040000D03*
X87710000Y-55500000D03*
X90250000Y-55500000D03*
X87710000Y-52960000D03*
X90250000Y-52960000D03*
X87710000Y-50420000D03*
X90250000Y-50420000D03*
X87710000Y-47880000D03*
X90250000Y-47880000D03*
X87710000Y-45340000D03*
X90250000Y-45340000D03*
%TD*%
D14*
%TO.C,R4*%
X126500000Y-80470000D03*
X126500000Y-88090000D03*
%TD*%
D17*
%TO.C,H2*%
X89000000Y-98500000D03*
%TD*%
D14*
%TO.C,R2*%
X126500000Y-58163333D03*
X126500000Y-65783333D03*
%TD*%
D17*
%TO.C,H4*%
X138000000Y-98500000D03*
%TD*%
D14*
%TO.C,R3*%
X126500000Y-69316667D03*
X126500000Y-76936667D03*
%TD*%
D18*
%TO.C,J3*%
X135977500Y-45990000D03*
D19*
X135977500Y-49490000D03*
X135977500Y-52990000D03*
%TD*%
D18*
%TO.C,J5*%
X136007500Y-69990000D03*
D19*
X136007500Y-73490000D03*
X136007500Y-76990000D03*
%TD*%
D14*
%TO.C,R5*%
X122940000Y-87940000D03*
X115320000Y-87940000D03*
%TD*%
D17*
%TO.C,H3*%
X138000000Y-40500000D03*
%TD*%
D20*
%TO.C,J9*%
X104510000Y-96490000D03*
D19*
X101010000Y-96490000D03*
X97510000Y-96490000D03*
%TD*%
D18*
%TO.C,J6*%
X136000000Y-82000000D03*
D19*
X136000000Y-85500000D03*
X136000000Y-89000000D03*
%TD*%
D14*
%TO.C,R6*%
X112180000Y-87940000D03*
X104560000Y-87940000D03*
%TD*%
D20*
%TO.C,J7*%
X128420000Y-96590000D03*
D19*
X124920000Y-96590000D03*
X121420000Y-96590000D03*
%TD*%
D20*
%TO.C,J8*%
X116520000Y-96537500D03*
D19*
X113020000Y-96537500D03*
X109520000Y-96537500D03*
%TD*%
D18*
%TO.C,J4*%
X136007500Y-57990000D03*
D19*
X136007500Y-61490000D03*
X136007500Y-64990000D03*
%TD*%
D17*
%TO.C,H1*%
X89000000Y-40500000D03*
%TD*%
M02*
